<svg width="1982" height="1709" viewBox="0 0 1982 1709" fill="none" xmlns="http://www.w3.org/2000/svg">
<rect width="1982" height="1709" fill="#202B36"/>
<rect x="499" y="211" width="261" height="246" fill="#176197"/>
<rect x="238" y="610" width="261" height="246" fill="#18705B"/>
<rect x="299" y="1252" width="500" height="246" fill="#6E7018"/>
<rect x="1181" y="1252" width="502" height="246" fill="#704D18"/>
<rect x="1482" y="610" width="261" height="246" fill="#18705B"/>
<rect x="860" y="211" width="261" height="246" fill="#176197"/>
<rect x="799" y="856" width="382" height="246" fill="#5124B3"/>
<rect x="1221" y="211" width="261" height="246" fill="#176197"/>
<path d="M304.56 691L297.96 663.08H302.56L305.4 676.52L307.36 685.8H307.48L309.72 676.52L313.04 663.08H318.08L321.36 676.52L323.56 685.76H323.68L325.72 676.52L328.64 663.08H333.08L326.2 691H321.12L317.56 676.56L315.48 668.08H315.4L313.28 676.56L309.64 691H304.56ZM344.569 691.48C343.129 691.48 341.809 691.227 340.609 690.72C339.436 690.213 338.436 689.493 337.609 688.56C336.782 687.6 336.142 686.453 335.689 685.12C335.236 683.76 335.009 682.253 335.009 680.6C335.009 678.947 335.236 677.453 335.689 676.12C336.142 674.76 336.782 673.613 337.609 672.68C338.436 671.72 339.436 670.987 340.609 670.48C341.809 669.973 343.129 669.72 344.569 669.72C346.009 669.72 347.316 669.973 348.489 670.48C349.689 670.987 350.702 671.72 351.529 672.68C352.356 673.613 352.996 674.76 353.449 676.12C353.902 677.453 354.129 678.947 354.129 680.6C354.129 682.253 353.902 683.76 353.449 685.12C352.996 686.453 352.356 687.6 351.529 688.56C350.702 689.493 349.689 690.213 348.489 690.72C347.316 691.227 346.009 691.48 344.569 691.48ZM344.569 687.88C346.062 687.88 347.262 687.427 348.169 686.52C349.076 685.587 349.529 684.2 349.529 682.36V678.84C349.529 677 349.076 675.627 348.169 674.72C347.262 673.787 346.062 673.32 344.569 673.32C343.076 673.32 341.876 673.787 340.969 674.72C340.062 675.627 339.609 677 339.609 678.84V682.36C339.609 684.2 340.062 685.587 340.969 686.52C341.876 687.427 343.076 687.88 344.569 687.88ZM358.987 691V670.2H363.347V674.2H363.547C363.841 673.133 364.454 672.2 365.387 671.4C366.321 670.6 367.614 670.2 369.267 670.2H370.427V674.4H368.707C366.974 674.4 365.641 674.68 364.707 675.24C363.801 675.8 363.347 676.627 363.347 677.72V691H358.987ZM378.74 691C377.246 691 376.126 690.627 375.38 689.88C374.66 689.107 374.3 688.04 374.3 686.68V661.4H378.66V687.44H381.54V691H378.74ZM398.786 687.56H398.586C398.133 688.787 397.386 689.747 396.346 690.44C395.333 691.133 394.133 691.48 392.746 691.48C390.106 691.48 388.066 690.533 386.626 688.64C385.186 686.72 384.466 684.04 384.466 680.6C384.466 677.16 385.186 674.493 386.626 672.6C388.066 670.68 390.106 669.72 392.746 669.72C394.133 669.72 395.333 670.067 396.346 670.76C397.386 671.427 398.133 672.387 398.586 673.64H398.786V661.4H403.146V691H398.786V687.56ZM394.066 687.72C395.399 687.72 396.519 687.4 397.426 686.76C398.333 686.093 398.786 685.227 398.786 684.16V677.04C398.786 675.973 398.333 675.12 397.426 674.48C396.519 673.813 395.399 673.48 394.066 673.48C392.546 673.48 391.333 673.973 390.426 674.96C389.519 675.92 389.066 677.2 389.066 678.8V682.4C389.066 684 389.519 685.293 390.426 686.28C391.333 687.24 392.546 687.72 394.066 687.72ZM419.231 691V687.24H427.071V666.36H426.751L420.271 673.28L417.511 670.8L424.631 663.08H431.511V687.24H438.311V691H419.231Z" fill="white"/>
<path d="M572.92 292.48C569.267 292.48 566.4 291.253 564.32 288.8C562.24 286.32 561.2 282.733 561.2 278.04C561.2 275.693 561.467 273.627 562 271.84C562.533 270.053 563.307 268.547 564.32 267.32C565.333 266.093 566.56 265.173 568 264.56C569.467 263.92 571.107 263.6 572.92 263.6C575.347 263.6 577.373 264.133 579 265.2C580.653 266.267 581.947 267.84 582.88 269.92L579.08 272C578.6 270.667 577.853 269.613 576.84 268.84C575.853 268.04 574.547 267.64 572.92 267.64C570.76 267.64 569.067 268.373 567.84 269.84C566.613 271.307 566 273.333 566 275.92V280.16C566 282.747 566.613 284.773 567.84 286.24C569.067 287.707 570.76 288.44 572.92 288.44C574.6 288.44 575.96 288.013 577 287.16C578.067 286.28 578.853 285.16 579.36 283.8L583 286C582.067 288.027 580.76 289.613 579.08 290.76C577.4 291.907 575.347 292.48 572.92 292.48ZM591.912 292C590.418 292 589.298 291.627 588.552 290.88C587.832 290.107 587.472 289.04 587.472 287.68V262.4H591.832V288.44H594.712V292H591.912ZM601.078 267.48C600.171 267.48 599.504 267.267 599.078 266.84C598.678 266.413 598.478 265.867 598.478 265.2V264.52C598.478 263.853 598.678 263.307 599.078 262.88C599.504 262.453 600.171 262.24 601.078 262.24C601.984 262.24 602.638 262.453 603.038 262.88C603.438 263.307 603.638 263.853 603.638 264.52V265.2C603.638 265.867 603.438 266.413 603.038 266.84C602.638 267.267 601.984 267.48 601.078 267.48ZM598.878 271.2H603.238V292H598.878V271.2ZM617.624 292.48C616.13 292.48 614.797 292.227 613.624 291.72C612.45 291.213 611.45 290.493 610.624 289.56C609.797 288.6 609.157 287.453 608.704 286.12C608.277 284.76 608.064 283.253 608.064 281.6C608.064 279.947 608.277 278.453 608.704 277.12C609.157 275.76 609.797 274.613 610.624 273.68C611.45 272.72 612.45 271.987 613.624 271.48C614.797 270.973 616.13 270.72 617.624 270.72C619.144 270.72 620.477 270.987 621.624 271.52C622.797 272.053 623.77 272.8 624.544 273.76C625.317 274.693 625.89 275.787 626.264 277.04C626.664 278.293 626.864 279.64 626.864 281.08V282.72H612.584V283.4C612.584 285 613.05 286.32 613.984 287.36C614.944 288.373 616.304 288.88 618.064 288.88C619.344 288.88 620.424 288.6 621.304 288.04C622.184 287.48 622.93 286.72 623.544 285.76L626.104 288.28C625.33 289.56 624.21 290.587 622.744 291.36C621.277 292.107 619.57 292.48 617.624 292.48ZM617.624 274.12C616.877 274.12 616.184 274.253 615.544 274.52C614.93 274.787 614.397 275.16 613.944 275.64C613.517 276.12 613.184 276.693 612.944 277.36C612.704 278.027 612.584 278.76 612.584 279.56V279.84H622.264V279.44C622.264 277.84 621.85 276.56 621.024 275.6C620.197 274.613 619.064 274.12 617.624 274.12ZM631.69 292V271.2H636.05V274.64H636.25C636.704 273.52 637.384 272.587 638.29 271.84C639.224 271.093 640.49 270.72 642.09 270.72C644.224 270.72 645.877 271.427 647.05 272.84C648.25 274.227 648.85 276.213 648.85 278.8V292H644.49V279.36C644.49 276.107 643.184 274.48 640.57 274.48C640.01 274.48 639.45 274.56 638.89 274.72C638.357 274.853 637.877 275.067 637.45 275.36C637.024 275.653 636.677 276.027 636.41 276.48C636.17 276.933 636.05 277.467 636.05 278.08V292H631.69ZM660.653 292C659.133 292 657.987 291.613 657.213 290.84C656.44 290.04 656.053 288.92 656.053 287.48V274.76H652.813V271.2H654.573C655.293 271.2 655.787 271.04 656.053 270.72C656.347 270.4 656.493 269.88 656.493 269.16V265.52H660.413V271.2H664.773V274.76H660.413V288.44H664.453V292H660.653ZM679.356 292V288.24H687.196V267.36H686.876L680.396 274.28L677.636 271.8L684.756 264.08H691.636V288.24H698.436V292H679.356Z" fill="white"/>
<path d="M1244.44 1343V1315.08H1262.32V1319.08H1248.96V1326.84H1261.08V1330.84H1248.96V1339H1262.32V1343H1244.44ZM1265.51 1343L1272.83 1332.48L1265.71 1322.2H1270.75L1275.43 1329.44H1275.55L1280.35 1322.2H1284.99L1277.87 1332.44L1285.11 1343H1280.07L1275.27 1335.44H1275.15L1270.15 1343H1265.51ZM1294.8 1343C1293.28 1343 1292.14 1342.61 1291.36 1341.84C1290.59 1341.04 1290.2 1339.92 1290.2 1338.48V1325.76H1286.96V1322.2H1288.72C1289.44 1322.2 1289.94 1322.04 1290.2 1321.72C1290.5 1321.4 1290.64 1320.88 1290.64 1320.16V1316.52H1294.56V1322.2H1298.92V1325.76H1294.56V1339.44H1298.6V1343H1294.8ZM1311.66 1343.48C1310.16 1343.48 1308.83 1343.23 1307.66 1342.72C1306.48 1342.21 1305.48 1341.49 1304.66 1340.56C1303.83 1339.6 1303.19 1338.45 1302.74 1337.12C1302.31 1335.76 1302.1 1334.25 1302.1 1332.6C1302.1 1330.95 1302.31 1329.45 1302.74 1328.12C1303.19 1326.76 1303.83 1325.61 1304.66 1324.68C1305.48 1323.72 1306.48 1322.99 1307.66 1322.48C1308.83 1321.97 1310.16 1321.72 1311.66 1321.72C1313.18 1321.72 1314.51 1321.99 1315.66 1322.52C1316.83 1323.05 1317.8 1323.8 1318.58 1324.76C1319.35 1325.69 1319.92 1326.79 1320.3 1328.04C1320.7 1329.29 1320.9 1330.64 1320.9 1332.08V1333.72H1306.62V1334.4C1306.62 1336 1307.08 1337.32 1308.02 1338.36C1308.98 1339.37 1310.34 1339.88 1312.1 1339.88C1313.38 1339.88 1314.46 1339.6 1315.34 1339.04C1316.22 1338.48 1316.96 1337.72 1317.58 1336.76L1320.14 1339.28C1319.36 1340.56 1318.24 1341.59 1316.78 1342.36C1315.31 1343.11 1313.6 1343.48 1311.66 1343.48ZM1311.66 1325.12C1310.91 1325.12 1310.22 1325.25 1309.58 1325.52C1308.96 1325.79 1308.43 1326.16 1307.98 1326.64C1307.55 1327.12 1307.22 1327.69 1306.98 1328.36C1306.74 1329.03 1306.62 1329.76 1306.62 1330.56V1330.84H1316.3V1330.44C1316.3 1328.84 1315.88 1327.56 1315.06 1326.6C1314.23 1325.61 1313.1 1325.12 1311.66 1325.12ZM1325.72 1343V1322.2H1330.08V1326.2H1330.28C1330.57 1325.13 1331.19 1324.2 1332.12 1323.4C1333.05 1322.6 1334.35 1322.2 1336 1322.2H1337.16V1326.4H1335.44C1333.71 1326.4 1332.37 1326.68 1331.44 1327.24C1330.53 1327.8 1330.08 1328.63 1330.08 1329.72V1343H1325.72ZM1341.03 1343V1322.2H1345.39V1325.64H1345.59C1346.05 1324.52 1346.73 1323.59 1347.63 1322.84C1348.57 1322.09 1349.83 1321.72 1351.43 1321.72C1353.57 1321.72 1355.22 1322.43 1356.39 1323.84C1357.59 1325.23 1358.19 1327.21 1358.19 1329.8V1343H1353.83V1330.36C1353.83 1327.11 1352.53 1325.48 1349.91 1325.48C1349.35 1325.48 1348.79 1325.56 1348.23 1325.72C1347.7 1325.85 1347.22 1326.07 1346.79 1326.36C1346.37 1326.65 1346.02 1327.03 1345.75 1327.48C1345.51 1327.93 1345.39 1328.47 1345.39 1329.08V1343H1341.03ZM1379.48 1343C1378.33 1343 1377.45 1342.68 1376.84 1342.04C1376.22 1341.37 1375.85 1340.53 1375.72 1339.52H1375.52C1375.12 1340.83 1374.38 1341.81 1373.32 1342.48C1372.25 1343.15 1370.96 1343.48 1369.44 1343.48C1367.28 1343.48 1365.61 1342.92 1364.44 1341.8C1363.29 1340.68 1362.72 1339.17 1362.72 1337.28C1362.72 1335.2 1363.46 1333.64 1364.96 1332.6C1366.48 1331.56 1368.69 1331.04 1371.6 1331.04H1375.36V1329.28C1375.36 1328 1375.01 1327.01 1374.32 1326.32C1373.62 1325.63 1372.54 1325.28 1371.08 1325.28C1369.85 1325.28 1368.85 1325.55 1368.08 1326.08C1367.3 1326.61 1366.65 1327.29 1366.12 1328.12L1363.52 1325.76C1364.21 1324.59 1365.18 1323.63 1366.44 1322.88C1367.69 1322.11 1369.33 1321.72 1371.36 1321.72C1374.05 1321.72 1376.12 1322.35 1377.56 1323.6C1379 1324.85 1379.72 1326.65 1379.72 1329V1339.44H1381.92V1343H1379.48ZM1370.68 1340.16C1372.04 1340.16 1373.16 1339.87 1374.04 1339.28C1374.92 1338.67 1375.36 1337.85 1375.36 1336.84V1333.84H1371.68C1368.66 1333.84 1367.16 1334.77 1367.16 1336.64V1337.36C1367.16 1338.29 1367.46 1339 1368.08 1339.48C1368.72 1339.93 1369.58 1340.16 1370.68 1340.16ZM1390.63 1343C1389.14 1343 1388.02 1342.63 1387.27 1341.88C1386.55 1341.11 1386.19 1340.04 1386.19 1338.68V1313.4H1390.55V1339.44H1393.43V1343H1390.63ZM1404.97 1322.2H1409.21L1411.33 1330.92L1413.21 1338.8H1413.33L1415.49 1330.92L1418.01 1322.2H1421.93L1424.49 1330.92L1426.69 1338.8H1426.81L1428.65 1330.92L1430.81 1322.2H1434.85L1429.25 1343H1424.33L1421.61 1333.52L1419.93 1327.68H1419.85L1418.21 1333.52L1415.45 1343H1410.65L1404.97 1322.2ZM1446.89 1343.48C1445.4 1343.48 1444.06 1343.23 1442.89 1342.72C1441.72 1342.21 1440.72 1341.49 1439.89 1340.56C1439.06 1339.6 1438.42 1338.45 1437.97 1337.12C1437.54 1335.76 1437.33 1334.25 1437.33 1332.6C1437.33 1330.95 1437.54 1329.45 1437.97 1328.12C1438.42 1326.76 1439.06 1325.61 1439.89 1324.68C1440.72 1323.72 1441.72 1322.99 1442.89 1322.48C1444.06 1321.97 1445.4 1321.72 1446.89 1321.72C1448.41 1321.72 1449.74 1321.99 1450.89 1322.52C1452.06 1323.05 1453.04 1323.8 1453.81 1324.76C1454.58 1325.69 1455.16 1326.79 1455.53 1328.04C1455.93 1329.29 1456.13 1330.64 1456.13 1332.08V1333.72H1441.85V1334.4C1441.85 1336 1442.32 1337.32 1443.25 1338.36C1444.21 1339.37 1445.57 1339.88 1447.33 1339.88C1448.61 1339.88 1449.69 1339.6 1450.57 1339.04C1451.45 1338.48 1452.2 1337.72 1452.81 1336.76L1455.37 1339.28C1454.6 1340.56 1453.48 1341.59 1452.01 1342.36C1450.54 1343.11 1448.84 1343.48 1446.89 1343.48ZM1446.89 1325.12C1446.14 1325.12 1445.45 1325.25 1444.81 1325.52C1444.2 1325.79 1443.66 1326.16 1443.21 1326.64C1442.78 1327.12 1442.45 1327.69 1442.21 1328.36C1441.97 1329.03 1441.85 1329.76 1441.85 1330.56V1330.84H1451.53V1330.44C1451.53 1328.84 1451.12 1327.56 1450.29 1326.6C1449.46 1325.61 1448.33 1325.12 1446.89 1325.12ZM1460.96 1313.4H1465.32V1325.64H1465.52C1465.97 1324.39 1466.7 1323.43 1467.72 1322.76C1468.76 1322.07 1469.97 1321.72 1471.36 1321.72C1474 1321.72 1476.04 1322.68 1477.48 1324.6C1478.92 1326.49 1479.64 1329.16 1479.64 1332.6C1479.64 1336.04 1478.92 1338.72 1477.48 1340.64C1476.04 1342.53 1474 1343.48 1471.36 1343.48C1469.97 1343.48 1468.76 1343.13 1467.72 1342.44C1466.7 1341.75 1465.97 1340.79 1465.52 1339.56H1465.32V1343H1460.96V1313.4ZM1470.04 1339.72C1471.56 1339.72 1472.77 1339.24 1473.68 1338.28C1474.58 1337.29 1475.04 1336 1475.04 1334.4V1330.8C1475.04 1329.2 1474.58 1327.92 1473.68 1326.96C1472.77 1325.97 1471.56 1325.48 1470.04 1325.48C1468.7 1325.48 1467.58 1325.81 1466.68 1326.48C1465.77 1327.12 1465.32 1327.97 1465.32 1329.04V1336.16C1465.32 1337.23 1465.77 1338.09 1466.68 1338.76C1467.58 1339.4 1468.7 1339.72 1470.04 1339.72ZM1500.68 1343.48C1498.71 1343.48 1497.05 1343.13 1495.72 1342.44C1494.39 1341.75 1493.23 1340.79 1492.24 1339.56L1495.04 1337C1495.81 1337.93 1496.67 1338.67 1497.6 1339.2C1498.56 1339.71 1499.67 1339.96 1500.92 1339.96C1502.2 1339.96 1503.15 1339.72 1503.76 1339.24C1504.4 1338.73 1504.72 1338.04 1504.72 1337.16C1504.72 1336.49 1504.49 1335.93 1504.04 1335.48C1503.61 1335 1502.85 1334.69 1501.76 1334.56L1499.84 1334.32C1497.71 1334.05 1496.03 1333.44 1494.8 1332.48C1493.6 1331.49 1493 1330.04 1493 1328.12C1493 1327.11 1493.19 1326.21 1493.56 1325.44C1493.93 1324.64 1494.45 1323.97 1495.12 1323.44C1495.81 1322.88 1496.63 1322.45 1497.56 1322.16C1498.52 1321.87 1499.57 1321.72 1500.72 1321.72C1502.59 1321.72 1504.11 1322.01 1505.28 1322.6C1506.48 1323.19 1507.55 1324 1508.48 1325.04L1505.8 1327.6C1505.27 1326.96 1504.56 1326.41 1503.68 1325.96C1502.83 1325.48 1501.84 1325.24 1500.72 1325.24C1499.52 1325.24 1498.63 1325.48 1498.04 1325.96C1497.48 1326.44 1497.2 1327.07 1497.2 1327.84C1497.2 1328.64 1497.45 1329.24 1497.96 1329.64C1498.47 1330.04 1499.28 1330.33 1500.4 1330.52L1502.32 1330.76C1504.61 1331.11 1506.28 1331.79 1507.32 1332.8C1508.39 1333.79 1508.92 1335.12 1508.92 1336.8C1508.92 1337.81 1508.72 1338.73 1508.32 1339.56C1507.95 1340.36 1507.4 1341.05 1506.68 1341.64C1505.96 1342.23 1505.09 1342.68 1504.08 1343C1503.07 1343.32 1501.93 1343.48 1500.68 1343.48ZM1522.01 1343.48C1520.51 1343.48 1519.18 1343.23 1518.01 1342.72C1516.83 1342.21 1515.83 1341.49 1515.01 1340.56C1514.18 1339.6 1513.54 1338.45 1513.09 1337.12C1512.66 1335.76 1512.45 1334.25 1512.45 1332.6C1512.45 1330.95 1512.66 1329.45 1513.09 1328.12C1513.54 1326.76 1514.18 1325.61 1515.01 1324.68C1515.83 1323.72 1516.83 1322.99 1518.01 1322.48C1519.18 1321.97 1520.51 1321.72 1522.01 1321.72C1523.53 1321.72 1524.86 1321.99 1526.01 1322.52C1527.18 1323.05 1528.15 1323.8 1528.93 1324.76C1529.7 1325.69 1530.27 1326.79 1530.65 1328.04C1531.05 1329.29 1531.25 1330.64 1531.25 1332.08V1333.72H1516.97V1334.4C1516.97 1336 1517.43 1337.32 1518.37 1338.36C1519.33 1339.37 1520.69 1339.88 1522.45 1339.88C1523.73 1339.88 1524.81 1339.6 1525.69 1339.04C1526.57 1338.48 1527.31 1337.72 1527.93 1336.76L1530.49 1339.28C1529.71 1340.56 1528.59 1341.59 1527.13 1342.36C1525.66 1343.11 1523.95 1343.48 1522.01 1343.48ZM1522.01 1325.12C1521.26 1325.12 1520.57 1325.25 1519.93 1325.52C1519.31 1325.79 1518.78 1326.16 1518.33 1326.64C1517.9 1327.12 1517.57 1327.69 1517.33 1328.36C1517.09 1329.03 1516.97 1329.76 1516.97 1330.56V1330.84H1526.65V1330.44C1526.65 1328.84 1526.23 1327.56 1525.41 1326.6C1524.58 1325.61 1523.45 1325.12 1522.01 1325.12ZM1536.07 1343V1322.2H1540.43V1326.2H1540.63C1540.93 1325.13 1541.54 1324.2 1542.47 1323.4C1543.41 1322.6 1544.7 1322.2 1546.35 1322.2H1547.51V1326.4H1545.79C1544.06 1326.4 1542.73 1326.68 1541.79 1327.24C1540.89 1327.8 1540.43 1328.63 1540.43 1329.72V1343H1536.07ZM1556.26 1343L1549.18 1322.2H1553.5L1556.66 1331.68L1558.78 1338.96H1559.02L1561.14 1331.68L1564.38 1322.2H1568.54L1561.38 1343H1556.26ZM1574.41 1318.48C1573.5 1318.48 1572.83 1318.27 1572.41 1317.84C1572.01 1317.41 1571.81 1316.87 1571.81 1316.2V1315.52C1571.81 1314.85 1572.01 1314.31 1572.41 1313.88C1572.83 1313.45 1573.5 1313.24 1574.41 1313.24C1575.31 1313.24 1575.97 1313.45 1576.37 1313.88C1576.77 1314.31 1576.97 1314.85 1576.97 1315.52V1316.2C1576.97 1316.87 1576.77 1317.41 1576.37 1317.84C1575.97 1318.27 1575.31 1318.48 1574.41 1318.48ZM1572.21 1322.2H1576.57V1343H1572.21V1322.2ZM1590.83 1343.48C1589.34 1343.48 1588.01 1343.23 1586.83 1342.72C1585.66 1342.21 1584.67 1341.49 1583.87 1340.56C1583.07 1339.6 1582.46 1338.45 1582.03 1337.12C1581.61 1335.76 1581.39 1334.25 1581.39 1332.6C1581.39 1330.95 1581.61 1329.45 1582.03 1328.12C1582.46 1326.76 1583.07 1325.61 1583.87 1324.68C1584.67 1323.72 1585.66 1322.99 1586.83 1322.48C1588.01 1321.97 1589.34 1321.72 1590.83 1321.72C1592.91 1321.72 1594.62 1322.19 1595.95 1323.12C1597.29 1324.05 1598.26 1325.29 1598.87 1326.84L1595.27 1328.52C1594.98 1327.56 1594.46 1326.8 1593.71 1326.24C1592.99 1325.65 1592.03 1325.36 1590.83 1325.36C1589.23 1325.36 1588.02 1325.87 1587.19 1326.88C1586.39 1327.87 1585.99 1329.16 1585.99 1330.76V1334.48C1585.99 1336.08 1586.39 1337.39 1587.19 1338.4C1588.02 1339.39 1589.23 1339.88 1590.83 1339.88C1592.11 1339.88 1593.13 1339.57 1593.87 1338.96C1594.65 1338.32 1595.26 1337.48 1595.71 1336.44L1599.03 1338.2C1598.34 1339.91 1597.3 1341.21 1595.91 1342.12C1594.53 1343.03 1592.83 1343.48 1590.83 1343.48ZM1611.11 1343.48C1609.61 1343.48 1608.28 1343.23 1607.11 1342.72C1605.93 1342.21 1604.93 1341.49 1604.11 1340.56C1603.28 1339.6 1602.64 1338.45 1602.19 1337.12C1601.76 1335.76 1601.55 1334.25 1601.55 1332.6C1601.55 1330.95 1601.76 1329.45 1602.19 1328.12C1602.64 1326.76 1603.28 1325.61 1604.11 1324.68C1604.93 1323.72 1605.93 1322.99 1607.11 1322.48C1608.28 1321.97 1609.61 1321.72 1611.11 1321.72C1612.63 1321.72 1613.96 1321.99 1615.11 1322.52C1616.28 1323.05 1617.25 1323.8 1618.03 1324.76C1618.8 1325.69 1619.37 1326.79 1619.75 1328.04C1620.15 1329.29 1620.35 1330.64 1620.35 1332.08V1333.72H1606.07V1334.4C1606.07 1336 1606.53 1337.32 1607.47 1338.36C1608.43 1339.37 1609.79 1339.88 1611.55 1339.88C1612.83 1339.88 1613.91 1339.6 1614.79 1339.04C1615.67 1338.48 1616.41 1337.72 1617.03 1336.76L1619.59 1339.28C1618.81 1340.56 1617.69 1341.59 1616.23 1342.36C1614.76 1343.11 1613.05 1343.48 1611.11 1343.48ZM1611.11 1325.12C1610.36 1325.12 1609.67 1325.25 1609.03 1325.52C1608.41 1325.79 1607.88 1326.16 1607.43 1326.64C1607 1327.12 1606.67 1327.69 1606.43 1328.36C1606.19 1329.03 1606.07 1329.76 1606.07 1330.56V1330.84H1615.75V1330.44C1615.75 1328.84 1615.33 1327.56 1614.51 1326.6C1613.68 1325.61 1612.55 1325.12 1611.11 1325.12Z" fill="white"/>
<path d="M1400.42 1432L1397.42 1422.04H1383.44L1380.44 1432H1371.2L1385 1390.12H1396.28L1409.9 1432H1400.42ZM1390.52 1398.4H1390.22L1385.6 1414.3H1395.2L1390.52 1398.4ZM1415.69 1432V1390.12H1435.49C1437.45 1390.12 1439.21 1390.46 1440.77 1391.14C1442.33 1391.78 1443.65 1392.68 1444.73 1393.84C1445.85 1395 1446.71 1396.42 1447.31 1398.1C1447.91 1399.74 1448.21 1401.54 1448.21 1403.5C1448.21 1405.5 1447.91 1407.32 1447.31 1408.96C1446.71 1410.6 1445.85 1412 1444.73 1413.16C1443.65 1414.32 1442.33 1415.24 1440.77 1415.92C1439.21 1416.56 1437.45 1416.88 1435.49 1416.88H1424.81V1432H1415.69ZM1424.81 1408.96H1434.41C1435.77 1408.96 1436.83 1408.62 1437.59 1407.94C1438.39 1407.22 1438.79 1406.18 1438.79 1404.82V1402.18C1438.79 1400.82 1438.39 1399.8 1437.59 1399.12C1436.83 1398.4 1435.77 1398.04 1434.41 1398.04H1424.81V1408.96ZM1453.45 1432V1424.74H1458.85V1397.38H1453.45V1390.12H1473.37V1397.38H1467.97V1424.74H1473.37V1432H1453.45Z" fill="#FF9A00"/>
<path d="M1548.56 691L1541.96 663.08H1546.56L1549.4 676.52L1551.36 685.8H1551.48L1553.72 676.52L1557.04 663.08H1562.08L1565.36 676.52L1567.56 685.76H1567.68L1569.72 676.52L1572.64 663.08H1577.08L1570.2 691H1565.12L1561.56 676.56L1559.48 668.08H1559.4L1557.28 676.56L1553.64 691H1548.56ZM1588.57 691.48C1587.13 691.48 1585.81 691.227 1584.61 690.72C1583.44 690.213 1582.44 689.493 1581.61 688.56C1580.78 687.6 1580.14 686.453 1579.69 685.12C1579.24 683.76 1579.01 682.253 1579.01 680.6C1579.01 678.947 1579.24 677.453 1579.69 676.12C1580.14 674.76 1580.78 673.613 1581.61 672.68C1582.44 671.72 1583.44 670.987 1584.61 670.48C1585.81 669.973 1587.13 669.72 1588.57 669.72C1590.01 669.72 1591.32 669.973 1592.49 670.48C1593.69 670.987 1594.7 671.72 1595.53 672.68C1596.36 673.613 1597 674.76 1597.45 676.12C1597.9 677.453 1598.13 678.947 1598.13 680.6C1598.13 682.253 1597.9 683.76 1597.45 685.12C1597 686.453 1596.36 687.6 1595.53 688.56C1594.7 689.493 1593.69 690.213 1592.49 690.72C1591.32 691.227 1590.01 691.48 1588.57 691.48ZM1588.57 687.88C1590.06 687.88 1591.26 687.427 1592.17 686.52C1593.08 685.587 1593.53 684.2 1593.53 682.36V678.84C1593.53 677 1593.08 675.627 1592.17 674.72C1591.26 673.787 1590.06 673.32 1588.57 673.32C1587.08 673.32 1585.88 673.787 1584.97 674.72C1584.06 675.627 1583.61 677 1583.61 678.84V682.36C1583.61 684.2 1584.06 685.587 1584.97 686.52C1585.88 687.427 1587.08 687.88 1588.57 687.88ZM1602.99 691V670.2H1607.35V674.2H1607.55C1607.84 673.133 1608.45 672.2 1609.39 671.4C1610.32 670.6 1611.61 670.2 1613.27 670.2H1614.43V674.4H1612.71C1610.97 674.4 1609.64 674.68 1608.71 675.24C1607.8 675.8 1607.35 676.627 1607.35 677.72V691H1602.99ZM1622.74 691C1621.25 691 1620.13 690.627 1619.38 689.88C1618.66 689.107 1618.3 688.04 1618.3 686.68V661.4H1622.66V687.44H1625.54V691H1622.74ZM1642.79 687.56H1642.59C1642.13 688.787 1641.39 689.747 1640.35 690.44C1639.33 691.133 1638.13 691.48 1636.75 691.48C1634.11 691.48 1632.07 690.533 1630.63 688.64C1629.19 686.72 1628.47 684.04 1628.47 680.6C1628.47 677.16 1629.19 674.493 1630.63 672.6C1632.07 670.68 1634.11 669.72 1636.75 669.72C1638.13 669.72 1639.33 670.067 1640.35 670.76C1641.39 671.427 1642.13 672.387 1642.59 673.64H1642.79V661.4H1647.15V691H1642.79V687.56ZM1638.07 687.72C1639.4 687.72 1640.52 687.4 1641.43 686.76C1642.33 686.093 1642.79 685.227 1642.79 684.16V677.04C1642.79 675.973 1642.33 675.12 1641.43 674.48C1640.52 673.813 1639.4 673.48 1638.07 673.48C1636.55 673.48 1635.33 673.973 1634.43 674.96C1633.52 675.92 1633.07 677.2 1633.07 678.8V682.4C1633.07 684 1633.52 685.293 1634.43 686.28C1635.33 687.24 1636.55 687.72 1638.07 687.72ZM1681.35 691H1662.39V686.68L1671.31 678.72C1672.72 677.44 1673.8 676.227 1674.55 675.08C1675.32 673.907 1675.71 672.68 1675.71 671.4V670.88C1675.71 669.52 1675.3 668.453 1674.47 667.68C1673.67 666.907 1672.58 666.52 1671.19 666.52C1670.42 666.52 1669.74 666.64 1669.15 666.88C1668.59 667.093 1668.1 667.4 1667.67 667.8C1667.24 668.2 1666.88 668.667 1666.59 669.2C1666.32 669.733 1666.11 670.307 1665.95 670.92L1661.99 669.4C1662.28 668.52 1662.68 667.68 1663.19 666.88C1663.7 666.053 1664.34 665.32 1665.11 664.68C1665.88 664.04 1666.79 663.533 1667.83 663.16C1668.9 662.787 1670.14 662.6 1671.55 662.6C1672.96 662.6 1674.23 662.813 1675.35 663.24C1676.47 663.64 1677.4 664.213 1678.15 664.96C1678.92 665.68 1679.51 666.547 1679.91 667.56C1680.31 668.573 1680.51 669.68 1680.51 670.88C1680.51 672 1680.34 673.04 1679.99 674C1679.64 674.96 1679.16 675.867 1678.55 676.72C1677.94 677.573 1677.22 678.387 1676.39 679.16C1675.59 679.933 1674.74 680.72 1673.83 681.52L1667.27 687.16H1681.35V691Z" fill="white"/>
<path d="M933.92 292.48C930.267 292.48 927.4 291.253 925.32 288.8C923.24 286.32 922.2 282.733 922.2 278.04C922.2 275.693 922.467 273.627 923 271.84C923.533 270.053 924.307 268.547 925.32 267.32C926.333 266.093 927.56 265.173 929 264.56C930.467 263.92 932.107 263.6 933.92 263.6C936.347 263.6 938.373 264.133 940 265.2C941.653 266.267 942.947 267.84 943.88 269.92L940.08 272C939.6 270.667 938.853 269.613 937.84 268.84C936.853 268.04 935.547 267.64 933.92 267.64C931.76 267.64 930.067 268.373 928.84 269.84C927.613 271.307 927 273.333 927 275.92V280.16C927 282.747 927.613 284.773 928.84 286.24C930.067 287.707 931.76 288.44 933.92 288.44C935.6 288.44 936.96 288.013 938 287.16C939.067 286.28 939.853 285.16 940.36 283.8L944 286C943.067 288.027 941.76 289.613 940.08 290.76C938.4 291.907 936.347 292.48 933.92 292.48ZM952.912 292C951.418 292 950.298 291.627 949.552 290.88C948.832 290.107 948.472 289.04 948.472 287.68V262.4H952.832V288.44H955.712V292H952.912ZM962.078 267.48C961.171 267.48 960.504 267.267 960.078 266.84C959.678 266.413 959.478 265.867 959.478 265.2V264.52C959.478 263.853 959.678 263.307 960.078 262.88C960.504 262.453 961.171 262.24 962.078 262.24C962.984 262.24 963.638 262.453 964.038 262.88C964.438 263.307 964.638 263.853 964.638 264.52V265.2C964.638 265.867 964.438 266.413 964.038 266.84C963.638 267.267 962.984 267.48 962.078 267.48ZM959.878 271.2H964.238V292H959.878V271.2ZM978.624 292.48C977.13 292.48 975.797 292.227 974.624 291.72C973.45 291.213 972.45 290.493 971.624 289.56C970.797 288.6 970.157 287.453 969.704 286.12C969.277 284.76 969.064 283.253 969.064 281.6C969.064 279.947 969.277 278.453 969.704 277.12C970.157 275.76 970.797 274.613 971.624 273.68C972.45 272.72 973.45 271.987 974.624 271.48C975.797 270.973 977.13 270.72 978.624 270.72C980.144 270.72 981.477 270.987 982.624 271.52C983.797 272.053 984.77 272.8 985.544 273.76C986.317 274.693 986.89 275.787 987.264 277.04C987.664 278.293 987.864 279.64 987.864 281.08V282.72H973.584V283.4C973.584 285 974.05 286.32 974.984 287.36C975.944 288.373 977.304 288.88 979.064 288.88C980.344 288.88 981.424 288.6 982.304 288.04C983.184 287.48 983.93 286.72 984.544 285.76L987.104 288.28C986.33 289.56 985.21 290.587 983.744 291.36C982.277 292.107 980.57 292.48 978.624 292.48ZM978.624 274.12C977.877 274.12 977.184 274.253 976.544 274.52C975.93 274.787 975.397 275.16 974.944 275.64C974.517 276.12 974.184 276.693 973.944 277.36C973.704 278.027 973.584 278.76 973.584 279.56V279.84H983.264V279.44C983.264 277.84 982.85 276.56 982.024 275.6C981.197 274.613 980.064 274.12 978.624 274.12ZM992.69 292V271.2H997.05V274.64H997.25C997.704 273.52 998.384 272.587 999.29 271.84C1000.22 271.093 1001.49 270.72 1003.09 270.72C1005.22 270.72 1006.88 271.427 1008.05 272.84C1009.25 274.227 1009.85 276.213 1009.85 278.8V292H1005.49V279.36C1005.49 276.107 1004.18 274.48 1001.57 274.48C1001.01 274.48 1000.45 274.56 999.89 274.72C999.357 274.853 998.877 275.067 998.45 275.36C998.024 275.653 997.677 276.027 997.41 276.48C997.17 276.933 997.05 277.467 997.05 278.08V292H992.69ZM1021.65 292C1020.13 292 1018.99 291.613 1018.21 290.84C1017.44 290.04 1017.05 288.92 1017.05 287.48V274.76H1013.81V271.2H1015.57C1016.29 271.2 1016.79 271.04 1017.05 270.72C1017.35 270.4 1017.49 269.88 1017.49 269.16V265.52H1021.41V271.2H1025.77V274.76H1021.41V288.44H1025.45V292H1021.65ZM1058.48 292H1039.52V287.68L1048.44 279.72C1049.85 278.44 1050.93 277.227 1051.68 276.08C1052.45 274.907 1052.84 273.68 1052.84 272.4V271.88C1052.84 270.52 1052.42 269.453 1051.6 268.68C1050.8 267.907 1049.7 267.52 1048.32 267.52C1047.54 267.52 1046.86 267.64 1046.28 267.88C1045.72 268.093 1045.22 268.4 1044.8 268.8C1044.37 269.2 1044.01 269.667 1043.72 270.2C1043.45 270.733 1043.24 271.307 1043.08 271.92L1039.12 270.4C1039.41 269.52 1039.81 268.68 1040.32 267.88C1040.82 267.053 1041.46 266.32 1042.24 265.68C1043.01 265.04 1043.92 264.533 1044.96 264.16C1046.02 263.787 1047.26 263.6 1048.68 263.6C1050.09 263.6 1051.36 263.813 1052.48 264.24C1053.6 264.64 1054.53 265.213 1055.28 265.96C1056.05 266.68 1056.64 267.547 1057.04 268.56C1057.44 269.573 1057.64 270.68 1057.64 271.88C1057.64 273 1057.46 274.04 1057.12 275C1056.77 275.96 1056.29 276.867 1055.68 277.72C1055.06 278.573 1054.34 279.387 1053.52 280.16C1052.72 280.933 1051.86 281.72 1050.96 282.52L1044.4 288.16H1058.48V292Z" fill="white"/>
<path d="M872.8 920.64H872.6L870.4 925.16L864.28 936.32L858.16 925.16L855.96 920.64H855.76V942H851.44V914.08H856.8L864.28 928.28H864.52L872 914.08H877.12V942H872.8V920.64ZM905.378 920.64H905.178L902.978 925.16L896.858 936.32L890.738 925.16L888.538 920.64H888.338V942H884.018V914.08H889.378L896.858 928.28H897.098L904.578 914.08H909.698V942H905.378V920.64ZM916.596 942V914.08H921.116V938H932.476V942H916.596ZM946.557 914.08H956.437C958.224 914.08 959.837 914.373 961.277 914.96C962.744 915.547 963.984 916.427 964.997 917.6C966.037 918.747 966.837 920.2 967.397 921.96C967.957 923.693 968.237 925.72 968.237 928.04C968.237 930.36 967.957 932.4 967.397 934.16C966.837 935.893 966.037 937.347 964.997 938.52C963.984 939.667 962.744 940.533 961.277 941.12C959.837 941.707 958.224 942 956.437 942H946.557V914.08ZM956.437 938C958.517 938 960.197 937.347 961.477 936.04C962.757 934.733 963.397 932.813 963.397 930.28V925.8C963.397 923.267 962.757 921.347 961.477 920.04C960.197 918.733 958.517 918.08 956.437 918.08H951.077V938H956.437ZM981.702 942.48C980.262 942.48 978.942 942.227 977.742 941.72C976.569 941.213 975.569 940.493 974.742 939.56C973.915 938.6 973.275 937.453 972.822 936.12C972.369 934.76 972.142 933.253 972.142 931.6C972.142 929.947 972.369 928.453 972.822 927.12C973.275 925.76 973.915 924.613 974.742 923.68C975.569 922.72 976.569 921.987 977.742 921.48C978.942 920.973 980.262 920.72 981.702 920.72C983.142 920.72 984.449 920.973 985.622 921.48C986.822 921.987 987.835 922.72 988.662 923.68C989.489 924.613 990.129 925.76 990.582 927.12C991.035 928.453 991.262 929.947 991.262 931.6C991.262 933.253 991.035 934.76 990.582 936.12C990.129 937.453 989.489 938.6 988.662 939.56C987.835 940.493 986.822 941.213 985.622 941.72C984.449 942.227 983.142 942.48 981.702 942.48ZM981.702 938.88C983.195 938.88 984.395 938.427 985.302 937.52C986.209 936.587 986.662 935.2 986.662 933.36V929.84C986.662 928 986.209 926.627 985.302 925.72C984.395 924.787 983.195 924.32 981.702 924.32C980.209 924.32 979.009 924.787 978.102 925.72C977.195 926.627 976.742 928 976.742 929.84V933.36C976.742 935.2 977.195 936.587 978.102 937.52C979.009 938.427 980.209 938.88 981.702 938.88ZM1004.16 942.48C1002.67 942.48 1001.33 942.227 1000.16 941.72C998.987 941.213 998 940.493 997.2 939.56C996.4 938.6 995.787 937.453 995.36 936.12C994.933 934.76 994.72 933.253 994.72 931.6C994.72 929.947 994.933 928.453 995.36 927.12C995.787 925.76 996.4 924.613 997.2 923.68C998 922.72 998.987 921.987 1000.16 921.48C1001.33 920.973 1002.67 920.72 1004.16 920.72C1006.24 920.72 1007.95 921.187 1009.28 922.12C1010.61 923.053 1011.59 924.293 1012.2 925.84L1008.6 927.52C1008.31 926.56 1007.79 925.8 1007.04 925.24C1006.32 924.653 1005.36 924.36 1004.16 924.36C1002.56 924.36 1001.35 924.867 1000.52 925.88C999.72 926.867 999.32 928.16 999.32 929.76V933.48C999.32 935.08 999.72 936.387 1000.52 937.4C1001.35 938.387 1002.56 938.88 1004.16 938.88C1005.44 938.88 1006.45 938.573 1007.2 937.96C1007.97 937.32 1008.59 936.48 1009.04 935.44L1012.36 937.2C1011.67 938.907 1010.63 940.213 1009.24 941.12C1007.85 942.027 1006.16 942.48 1004.16 942.48ZM1029.11 938.56H1028.95C1028.76 939.067 1028.51 939.56 1028.19 940.04C1027.9 940.52 1027.51 940.947 1027.03 941.32C1026.58 941.667 1026.02 941.947 1025.35 942.16C1024.71 942.373 1023.96 942.48 1023.11 942.48C1020.95 942.48 1019.27 941.787 1018.07 940.4C1016.9 939.013 1016.31 937.027 1016.31 934.44V921.2H1020.67V933.88C1020.67 937.107 1022 938.72 1024.67 938.72C1025.23 938.72 1025.78 938.653 1026.31 938.52C1026.84 938.36 1027.31 938.133 1027.71 937.84C1028.14 937.547 1028.47 937.173 1028.71 936.72C1028.98 936.267 1029.11 935.733 1029.11 935.12V921.2H1033.47V942H1029.11V938.56ZM1039.71 942V921.2H1044.07V924.64H1044.27C1044.49 924.107 1044.74 923.6 1045.03 923.12C1045.35 922.64 1045.73 922.227 1046.15 921.88C1046.61 921.507 1047.13 921.227 1047.71 921.04C1048.33 920.827 1049.03 920.72 1049.83 920.72C1051.25 920.72 1052.5 921.067 1053.59 921.76C1054.69 922.453 1055.49 923.52 1055.99 924.96H1056.11C1056.49 923.787 1057.21 922.787 1058.27 921.96C1059.34 921.133 1060.71 920.72 1062.39 920.72C1064.47 920.72 1066.09 921.427 1067.23 922.84C1068.38 924.227 1068.95 926.213 1068.95 928.8V942H1064.59V929.32C1064.59 927.72 1064.29 926.52 1063.67 925.72C1063.06 924.893 1062.09 924.48 1060.75 924.48C1060.19 924.48 1059.66 924.56 1059.15 924.72C1058.65 924.853 1058.19 925.067 1057.79 925.36C1057.42 925.653 1057.11 926.027 1056.87 926.48C1056.63 926.933 1056.51 927.453 1056.51 928.04V942H1052.15V929.32C1052.15 926.093 1050.89 924.48 1048.35 924.48C1047.82 924.48 1047.29 924.56 1046.75 924.72C1046.25 924.853 1045.79 925.067 1045.39 925.36C1044.99 925.653 1044.67 926.027 1044.43 926.48C1044.19 926.933 1044.07 927.453 1044.07 928.04V942H1039.71ZM1083.15 942.48C1081.65 942.48 1080.32 942.227 1079.15 941.72C1077.97 941.213 1076.97 940.493 1076.15 939.56C1075.32 938.6 1074.68 937.453 1074.23 936.12C1073.8 934.76 1073.59 933.253 1073.59 931.6C1073.59 929.947 1073.8 928.453 1074.23 927.12C1074.68 925.76 1075.32 924.613 1076.15 923.68C1076.97 922.72 1077.97 921.987 1079.15 921.48C1080.32 920.973 1081.65 920.72 1083.15 920.72C1084.67 920.72 1086 920.987 1087.15 921.52C1088.32 922.053 1089.29 922.8 1090.07 923.76C1090.84 924.693 1091.41 925.787 1091.79 927.04C1092.19 928.293 1092.39 929.64 1092.39 931.08V932.72H1078.11V933.4C1078.11 935 1078.57 936.32 1079.51 937.36C1080.47 938.373 1081.83 938.88 1083.59 938.88C1084.87 938.88 1085.95 938.6 1086.83 938.04C1087.71 937.48 1088.45 936.72 1089.07 935.76L1091.63 938.28C1090.85 939.56 1089.73 940.587 1088.27 941.36C1086.8 942.107 1085.09 942.48 1083.15 942.48ZM1083.15 924.12C1082.4 924.12 1081.71 924.253 1081.07 924.52C1080.45 924.787 1079.92 925.16 1079.47 925.64C1079.04 926.12 1078.71 926.693 1078.47 927.36C1078.23 928.027 1078.11 928.76 1078.11 929.56V929.84H1087.79V929.44C1087.79 927.84 1087.37 926.56 1086.55 925.6C1085.72 924.613 1084.59 924.12 1083.15 924.12ZM1097.21 942V921.2H1101.57V924.64H1101.77C1102.23 923.52 1102.91 922.587 1103.81 921.84C1104.75 921.093 1106.01 920.72 1107.61 920.72C1109.75 920.72 1111.4 921.427 1112.57 922.84C1113.77 924.227 1114.37 926.213 1114.37 928.8V942H1110.01V929.36C1110.01 926.107 1108.71 924.48 1106.09 924.48C1105.53 924.48 1104.97 924.56 1104.41 924.72C1103.88 924.853 1103.4 925.067 1102.97 925.36C1102.55 925.653 1102.2 926.027 1101.93 926.48C1101.69 926.933 1101.57 927.467 1101.57 928.08V942H1097.21ZM1126.18 942C1124.66 942 1123.51 941.613 1122.74 940.84C1121.96 940.04 1121.58 938.92 1121.58 937.48V924.76H1118.34V921.2H1120.1C1120.82 921.2 1121.31 921.04 1121.58 920.72C1121.87 920.4 1122.02 919.88 1122.02 919.16V915.52H1125.94V921.2H1130.3V924.76H1125.94V938.44H1129.98V942H1126.18Z" fill="white"/>
<path d="M1294.92 292.48C1291.27 292.48 1288.4 291.253 1286.32 288.8C1284.24 286.32 1283.2 282.733 1283.2 278.04C1283.2 275.693 1283.47 273.627 1284 271.84C1284.53 270.053 1285.31 268.547 1286.32 267.32C1287.33 266.093 1288.56 265.173 1290 264.56C1291.47 263.92 1293.11 263.6 1294.92 263.6C1297.35 263.6 1299.37 264.133 1301 265.2C1302.65 266.267 1303.95 267.84 1304.88 269.92L1301.08 272C1300.6 270.667 1299.85 269.613 1298.84 268.84C1297.85 268.04 1296.55 267.64 1294.92 267.64C1292.76 267.64 1291.07 268.373 1289.84 269.84C1288.61 271.307 1288 273.333 1288 275.92V280.16C1288 282.747 1288.61 284.773 1289.84 286.24C1291.07 287.707 1292.76 288.44 1294.92 288.44C1296.6 288.44 1297.96 288.013 1299 287.16C1300.07 286.28 1300.85 285.16 1301.36 283.8L1305 286C1304.07 288.027 1302.76 289.613 1301.08 290.76C1299.4 291.907 1297.35 292.48 1294.92 292.48ZM1313.91 292C1312.42 292 1311.3 291.627 1310.55 290.88C1309.83 290.107 1309.47 289.04 1309.47 287.68V262.4H1313.83V288.44H1316.71V292H1313.91ZM1323.08 267.48C1322.17 267.48 1321.5 267.267 1321.08 266.84C1320.68 266.413 1320.48 265.867 1320.48 265.2V264.52C1320.48 263.853 1320.68 263.307 1321.08 262.88C1321.5 262.453 1322.17 262.24 1323.08 262.24C1323.98 262.24 1324.64 262.453 1325.04 262.88C1325.44 263.307 1325.64 263.853 1325.64 264.52V265.2C1325.64 265.867 1325.44 266.413 1325.04 266.84C1324.64 267.267 1323.98 267.48 1323.08 267.48ZM1320.88 271.2H1325.24V292H1320.88V271.2ZM1339.62 292.48C1338.13 292.48 1336.8 292.227 1335.62 291.72C1334.45 291.213 1333.45 290.493 1332.62 289.56C1331.8 288.6 1331.16 287.453 1330.7 286.12C1330.28 284.76 1330.06 283.253 1330.06 281.6C1330.06 279.947 1330.28 278.453 1330.7 277.12C1331.16 275.76 1331.8 274.613 1332.62 273.68C1333.45 272.72 1334.45 271.987 1335.62 271.48C1336.8 270.973 1338.13 270.72 1339.62 270.72C1341.14 270.72 1342.48 270.987 1343.62 271.52C1344.8 272.053 1345.77 272.8 1346.54 273.76C1347.32 274.693 1347.89 275.787 1348.26 277.04C1348.66 278.293 1348.86 279.64 1348.86 281.08V282.72H1334.58V283.4C1334.58 285 1335.05 286.32 1335.98 287.36C1336.94 288.373 1338.3 288.88 1340.06 288.88C1341.34 288.88 1342.42 288.6 1343.3 288.04C1344.18 287.48 1344.93 286.72 1345.54 285.76L1348.1 288.28C1347.33 289.56 1346.21 290.587 1344.74 291.36C1343.28 292.107 1341.57 292.48 1339.62 292.48ZM1339.62 274.12C1338.88 274.12 1338.18 274.253 1337.54 274.52C1336.93 274.787 1336.4 275.16 1335.94 275.64C1335.52 276.12 1335.18 276.693 1334.94 277.36C1334.7 278.027 1334.58 278.76 1334.58 279.56V279.84H1344.26V279.44C1344.26 277.84 1343.85 276.56 1343.02 275.6C1342.2 274.613 1341.06 274.12 1339.62 274.12ZM1353.69 292V271.2H1358.05V274.64H1358.25C1358.7 273.52 1359.38 272.587 1360.29 271.84C1361.22 271.093 1362.49 270.72 1364.09 270.72C1366.22 270.72 1367.88 271.427 1369.05 272.84C1370.25 274.227 1370.85 276.213 1370.85 278.8V292H1366.49V279.36C1366.49 276.107 1365.18 274.48 1362.57 274.48C1362.01 274.48 1361.45 274.56 1360.89 274.72C1360.36 274.853 1359.88 275.067 1359.45 275.36C1359.02 275.653 1358.68 276.027 1358.41 276.48C1358.17 276.933 1358.05 277.467 1358.05 278.08V292H1353.69ZM1382.65 292C1381.13 292 1379.99 291.613 1379.21 290.84C1378.44 290.04 1378.05 288.92 1378.05 287.48V274.76H1374.81V271.2H1376.57C1377.29 271.2 1377.79 271.04 1378.05 270.72C1378.35 270.4 1378.49 269.88 1378.49 269.16V265.52H1382.41V271.2H1386.77V274.76H1382.41V288.44H1386.45V292H1382.65ZM1408.32 275.56C1410.05 275.56 1411.33 275.2 1412.16 274.48C1412.98 273.733 1413.4 272.787 1413.4 271.64V271.36C1413.4 270.08 1413 269.107 1412.2 268.44C1411.4 267.747 1410.32 267.4 1408.96 267.4C1407.62 267.4 1406.49 267.707 1405.56 268.32C1404.62 268.907 1403.84 269.733 1403.2 270.8L1400.2 268.2C1400.62 267.587 1401.1 267 1401.64 266.44C1402.17 265.88 1402.8 265.4 1403.52 265C1404.24 264.573 1405.05 264.24 1405.96 264C1406.86 263.733 1407.9 263.6 1409.08 263.6C1410.38 263.6 1411.6 263.76 1412.72 264.08C1413.84 264.4 1414.8 264.88 1415.6 265.52C1416.4 266.133 1417.02 266.893 1417.48 267.8C1417.93 268.68 1418.16 269.68 1418.16 270.8C1418.16 271.68 1418.01 272.48 1417.72 273.2C1417.45 273.92 1417.06 274.56 1416.56 275.12C1416.08 275.653 1415.5 276.093 1414.84 276.44C1414.2 276.787 1413.52 277.04 1412.8 277.2V277.4C1413.6 277.56 1414.34 277.827 1415.04 278.2C1415.76 278.547 1416.38 279.013 1416.92 279.6C1417.45 280.16 1417.86 280.84 1418.16 281.64C1418.48 282.413 1418.64 283.307 1418.64 284.32C1418.64 285.547 1418.4 286.667 1417.92 287.68C1417.44 288.667 1416.76 289.52 1415.88 290.24C1415.02 290.96 1413.98 291.52 1412.76 291.92C1411.53 292.293 1410.17 292.48 1408.68 292.48C1407.37 292.48 1406.22 292.333 1405.24 292.04C1404.25 291.773 1403.37 291.413 1402.6 290.96C1401.85 290.48 1401.18 289.947 1400.6 289.36C1400.04 288.747 1399.54 288.12 1399.12 287.48L1402.44 284.88C1402.78 285.44 1403.14 285.96 1403.52 286.44C1403.92 286.893 1404.36 287.293 1404.84 287.64C1405.34 287.96 1405.9 288.213 1406.52 288.4C1407.16 288.587 1407.88 288.68 1408.68 288.68C1410.38 288.68 1411.69 288.28 1412.6 287.48C1413.5 286.653 1413.96 285.52 1413.96 284.08V283.8C1413.96 282.36 1413.48 281.267 1412.52 280.52C1411.56 279.773 1410.2 279.4 1408.44 279.4H1405.48V275.56H1408.32Z" fill="white"/>
<path d="M619.156 339.656C619.156 337.709 619.733 335.806 620.815 334.187C621.897 332.569 623.434 331.307 625.233 330.562C627.032 329.817 629.011 329.622 630.92 330.002C632.83 330.381 634.584 331.319 635.96 332.696C637.337 334.072 638.275 335.826 638.654 337.736C639.034 339.645 638.839 341.625 638.094 343.423C637.349 345.222 636.088 346.759 634.469 347.841C632.85 348.923 630.947 349.5 629 349.5C626.389 349.5 623.885 348.463 622.039 346.617C620.193 344.771 619.156 342.267 619.156 339.656ZM659.733 376.493L643.825 358.458C642.902 357.41 641.765 356.571 640.493 355.997C639.22 355.422 637.839 355.125 636.442 355.125H621.557C620.161 355.125 618.78 355.422 617.507 355.997C616.234 356.571 615.098 357.41 614.174 358.458L598.266 376.493C597.233 377.55 596.658 378.971 596.664 380.449C596.67 381.927 597.258 383.343 598.3 384.391C599.342 385.439 600.755 386.034 602.233 386.049C603.71 386.064 605.135 385.497 606.198 384.47L615.289 377.168L608.363 403.493C607.761 404.846 607.716 406.381 608.238 407.767C608.761 409.152 609.809 410.276 611.155 410.894C612.5 411.512 614.035 411.574 615.427 411.067C616.818 410.56 617.954 409.525 618.587 408.186L629 390.281L639.399 408.211C640.032 409.55 641.167 410.585 642.559 411.092C643.95 411.599 645.485 411.536 646.831 410.918C648.177 410.301 649.225 409.177 649.747 407.792C650.27 406.406 650.225 404.87 649.623 403.518L642.711 377.168L651.816 384.47C652.879 385.497 654.303 386.064 655.781 386.049C657.259 386.034 658.672 385.439 659.714 384.391C660.756 383.343 661.343 381.927 661.35 380.449C661.356 378.971 660.781 377.55 659.748 376.493H659.733Z" fill="#26A1FB"/>
<path d="M368 734.438C360.769 734.438 353.7 736.582 347.687 740.599C341.674 744.617 336.988 750.327 334.221 757.008C331.453 763.689 330.729 771.041 332.14 778.133C333.551 785.225 337.033 791.74 342.146 796.854C347.26 801.967 353.775 805.449 360.867 806.86C367.959 808.271 375.311 807.547 381.992 804.779C388.673 802.012 394.383 797.326 398.401 791.313C402.418 785.3 404.563 778.231 404.563 771C404.552 761.306 400.697 752.012 393.842 745.158C386.988 738.303 377.694 734.448 368 734.438ZM344.899 791.556L345.785 790.976C346.558 790.465 347.194 789.772 347.635 788.957C348.076 788.142 348.309 787.23 348.313 786.304L348.386 773.566L355.755 762.562C355.791 762.59 355.829 762.616 355.868 762.64L362.783 767.164C363.942 767.982 365.368 768.33 366.773 768.138L377.844 766.637C379.209 766.455 380.46 765.778 381.359 764.735L389.154 755.679C390.025 754.658 390.503 753.358 390.5 752.016V749.79C394.304 753.815 396.956 758.788 398.179 764.19C399.402 769.591 399.15 775.222 397.45 780.492L391.776 775.303C390.987 774.579 390.008 774.095 388.954 773.908C387.9 773.722 386.814 773.84 385.824 774.248L375.116 778.696C374.22 779.072 373.437 779.672 372.841 780.438C372.245 781.205 371.856 782.112 371.713 783.073L370.872 788.764C370.67 790.134 370.981 791.531 371.744 792.686C372.508 793.841 373.671 794.674 375.01 795.026L382.555 797.016L383.384 797.849C377.224 801.384 370.033 802.688 363.023 801.542C356.014 800.395 349.613 796.869 344.899 791.556Z" fill="#3AF1C6"/>
<path d="M980.156 339.656C980.156 337.709 980.733 335.806 981.815 334.187C982.897 332.569 984.434 331.307 986.233 330.562C988.032 329.817 990.011 329.622 991.92 330.002C993.83 330.381 995.584 331.319 996.96 332.696C998.337 334.072 999.275 335.826 999.654 337.736C1000.03 339.645 999.839 341.625 999.094 343.423C998.349 345.222 997.088 346.759 995.469 347.841C993.85 348.923 991.947 349.5 990 349.5C987.389 349.5 984.885 348.463 983.039 346.617C981.193 344.771 980.156 342.267 980.156 339.656ZM1020.73 376.493L1004.83 358.458C1003.9 357.41 1002.77 356.571 1001.49 355.997C1000.22 355.422 998.839 355.125 997.442 355.125H982.557C981.161 355.125 979.78 355.422 978.507 355.997C977.234 356.571 976.098 357.41 975.174 358.458L959.266 376.493C958.233 377.55 957.658 378.971 957.664 380.449C957.67 381.927 958.258 383.343 959.3 384.391C960.342 385.439 961.755 386.034 963.233 386.049C964.71 386.064 966.135 385.497 967.198 384.47L976.289 377.168L969.363 403.493C968.761 404.846 968.716 406.381 969.238 407.767C969.761 409.152 970.809 410.276 972.155 410.894C973.5 411.512 975.035 411.574 976.427 411.067C977.818 410.56 978.954 409.525 979.587 408.186L990 390.281L1000.4 408.211C1001.03 409.55 1002.17 410.585 1003.56 411.092C1004.95 411.599 1006.49 411.536 1007.83 410.918C1009.18 410.301 1010.22 409.177 1010.75 407.792C1011.27 406.406 1011.23 404.87 1010.62 403.518L1003.71 377.168L1012.82 384.47C1013.88 385.497 1015.3 386.064 1016.78 386.049C1018.26 386.034 1019.67 385.439 1020.71 384.391C1021.76 383.343 1022.34 381.927 1022.35 380.449C1022.36 378.971 1021.78 377.55 1020.75 376.493H1020.73Z" fill="#26A1FB"/>
<path d="M1341.16 339.656C1341.16 337.709 1341.73 335.806 1342.82 334.187C1343.9 332.569 1345.43 331.307 1347.23 330.562C1349.03 329.817 1351.01 329.622 1352.92 330.002C1354.83 330.381 1356.58 331.319 1357.96 332.696C1359.34 334.072 1360.27 335.826 1360.65 337.736C1361.03 339.645 1360.84 341.625 1360.09 343.423C1359.35 345.222 1358.09 346.759 1356.47 347.841C1354.85 348.923 1352.95 349.5 1351 349.5C1348.39 349.5 1345.89 348.463 1344.04 346.617C1342.19 344.771 1341.16 342.267 1341.16 339.656ZM1381.73 376.493L1365.83 358.458C1364.9 357.41 1363.77 356.571 1362.49 355.997C1361.22 355.422 1359.84 355.125 1358.44 355.125H1343.56C1342.16 355.125 1340.78 355.422 1339.51 355.997C1338.23 356.571 1337.1 357.41 1336.17 358.458L1320.27 376.493C1319.23 377.55 1318.66 378.971 1318.66 380.449C1318.67 381.927 1319.26 383.343 1320.3 384.391C1321.34 385.439 1322.75 386.034 1324.23 386.049C1325.71 386.064 1327.13 385.497 1328.2 384.47L1337.29 377.168L1330.36 403.493C1329.76 404.846 1329.72 406.381 1330.24 407.767C1330.76 409.152 1331.81 410.276 1333.15 410.894C1334.5 411.512 1336.04 411.574 1337.43 411.067C1338.82 410.56 1339.95 409.525 1340.59 408.186L1351 390.281L1361.4 408.211C1362.03 409.55 1363.17 410.585 1364.56 411.092C1365.95 411.599 1367.49 411.536 1368.83 410.918C1370.18 410.301 1371.22 409.177 1371.75 407.792C1372.27 406.406 1372.23 404.87 1371.62 403.518L1364.71 377.168L1373.82 384.47C1374.88 385.497 1376.3 386.064 1377.78 386.049C1379.26 386.034 1380.67 385.439 1381.71 384.391C1382.76 383.343 1383.34 381.927 1383.35 380.449C1383.36 378.971 1382.78 377.55 1381.75 376.493H1381.73Z" fill="#26A1FB"/>
<path d="M1612 734.438C1604.77 734.438 1597.7 736.582 1591.69 740.599C1585.67 744.617 1580.99 750.327 1578.22 757.008C1575.45 763.689 1574.73 771.041 1576.14 778.133C1577.55 785.225 1581.03 791.74 1586.15 796.854C1591.26 801.967 1597.77 805.449 1604.87 806.86C1611.96 808.271 1619.31 807.547 1625.99 804.779C1632.67 802.012 1638.38 797.326 1642.4 791.313C1646.42 785.3 1648.56 778.231 1648.56 771C1648.55 761.306 1644.7 752.012 1637.84 745.158C1630.99 738.303 1621.69 734.448 1612 734.438ZM1588.9 791.556L1589.78 790.976C1590.56 790.465 1591.19 789.772 1591.63 788.957C1592.08 788.142 1592.31 787.23 1592.31 786.304L1592.39 773.566L1599.76 762.562C1599.79 762.59 1599.83 762.616 1599.87 762.64L1606.78 767.164C1607.94 767.982 1609.37 768.33 1610.77 768.138L1621.84 766.637C1623.21 766.455 1624.46 765.778 1625.36 764.735L1633.15 755.679C1634.03 754.658 1634.5 753.358 1634.5 752.016V749.79C1638.3 753.815 1640.96 758.788 1642.18 764.19C1643.4 769.591 1643.15 775.222 1641.45 780.492L1635.78 775.303C1634.99 774.579 1634.01 774.095 1632.95 773.908C1631.9 773.722 1630.81 773.84 1629.82 774.248L1619.12 778.696C1618.22 779.072 1617.44 779.672 1616.84 780.438C1616.24 781.205 1615.86 782.112 1615.71 783.073L1614.87 788.764C1614.67 790.134 1614.98 791.531 1615.74 792.686C1616.51 793.841 1617.67 794.674 1619.01 795.026L1626.55 797.016L1627.38 797.849C1621.22 801.384 1614.03 802.688 1607.02 801.542C1600.01 800.395 1593.61 796.869 1588.9 791.556Z" fill="#3AF1C6"/>
<path d="M1016.77 1002.73L999.269 985.231C999.036 984.999 998.761 984.815 998.457 984.69C998.154 984.564 997.828 984.5 997.5 984.5H967.5C966.174 984.5 964.902 985.027 963.964 985.964C963.027 986.902 962.5 988.174 962.5 989.5V1044.5C962.5 1045.83 963.027 1047.1 963.964 1048.04C964.902 1048.97 966.174 1049.5 967.5 1049.5H1012.5C1013.83 1049.5 1015.1 1048.97 1016.04 1048.04C1016.97 1047.1 1017.5 1045.83 1017.5 1044.5V1004.5C1017.5 1004.17 1017.44 1003.85 1017.31 1003.54C1017.18 1003.24 1017 1002.96 1016.77 1002.73ZM997.5 1004.5V990.75L1011.25 1004.5H997.5Z" fill="#9B6CFF"/>
<path d="M634 457L619.566 482L648.434 482L634 457ZM631.5 479.5L631.5 681L636.5 681L636.5 479.5L631.5 479.5Z" fill="#176197"/>
<path d="M373 610L387.434 585L358.566 585L373 610ZM370.5 493L370.5 587.5L375.5 587.5L375.5 493L370.5 493Z" fill="#176197"/>
<line x1="370.5" y1="856" x2="370.5" y2="991" stroke="#18705B" stroke-width="5" stroke-dasharray="10 10"/>
<path d="M799 989L774 974.566V1003.43L799 989ZM784.307 986.5H774.511V991.5H784.307V986.5ZM764.716 986.5H754.92V991.5H764.716V986.5ZM745.125 986.5H735.33V991.5H745.125V986.5ZM725.534 986.5H715.739V991.5H725.534V986.5ZM705.943 986.5H696.148V991.5H705.943V986.5ZM686.352 986.5H676.557V991.5H686.352V986.5ZM666.761 986.5H656.966V991.5H666.761V986.5ZM647.17 986.5H637.375V991.5H647.17V986.5ZM627.58 986.5H617.784V991.5H627.58V986.5ZM607.989 986.5H598.193V991.5H607.989V986.5ZM588.398 986.5H578.602V991.5H588.398V986.5ZM568.807 986.5H559.011V991.5H568.807V986.5ZM549.216 986.5H539.42V991.5H549.216V986.5ZM529.625 986.5H519.83V991.5H529.625V986.5ZM510.034 986.5H500.239V991.5H510.034V986.5ZM490.443 986.5H480.648V991.5H490.443V986.5ZM470.852 986.5H461.057V991.5H470.852V986.5ZM451.261 986.5H441.466V991.5H451.261V986.5ZM431.671 986.5H421.875V991.5H431.671V986.5ZM412.08 986.5H402.284V991.5H412.08V986.5ZM392.489 986.5H382.693V991.5H392.489V986.5ZM372.898 986.5H368V991.5H372.898V986.5Z" fill="#18705B"/>
<line x1="1614.5" y1="856" x2="1614.5" y2="991" stroke="#18705B" stroke-width="5" stroke-dasharray="10 10"/>
<path d="M1181 989L1206 1003.43V974.566L1181 989ZM1617 986.5H1612.05V991.5H1617V986.5ZM1602.14 986.5H1592.23V991.5H1602.14V986.5ZM1582.32 986.5H1572.41V991.5H1582.32V986.5ZM1562.5 986.5H1552.59V991.5H1562.5V986.5ZM1542.68 986.5H1532.77V991.5H1542.68V986.5ZM1522.86 986.5H1512.95V991.5H1522.86V986.5ZM1503.05 986.5H1493.14V991.5H1503.05V986.5ZM1483.23 986.5H1473.32V991.5H1483.23V986.5ZM1463.41 986.5H1453.5V991.5H1463.41V986.5ZM1443.59 986.5H1433.68V991.5H1443.59V986.5ZM1423.77 986.5H1413.86V991.5H1423.77V986.5ZM1403.95 986.5H1394.05V991.5H1403.95V986.5ZM1384.14 986.5H1374.23V991.5H1384.14V986.5ZM1364.32 986.5H1354.41V991.5H1364.32V986.5ZM1344.5 986.5H1334.59V991.5H1344.5V986.5ZM1324.68 986.5H1314.77V991.5H1324.68V986.5ZM1304.86 986.5H1294.95V991.5H1304.86V986.5ZM1285.05 986.5H1275.14V991.5H1285.05V986.5ZM1265.23 986.5H1255.32V991.5H1265.23V986.5ZM1245.41 986.5H1235.5V991.5H1245.41V986.5ZM1225.59 986.5H1215.68V991.5H1225.59V986.5ZM1205.77 986.5H1195.86V991.5H1205.77V986.5Z" fill="#18705B"/>
<path d="M1356 457L1341.57 482L1370.43 482L1356 457ZM1353.5 479.5L1353.5 681L1358.5 681L1358.5 479.5L1353.5 479.5Z" fill="#176197"/>
<line x1="990" y1="678.5" x2="632" y2="678.5" stroke="#176197" stroke-width="5"/>
<line x1="960" y1="1377.5" x2="799" y2="1377.5" stroke="#6E7018" stroke-width="5"/>
<path d="M957 1102L942.566 1127L971.434 1127L957 1102ZM959.5 1375L959.5 1124.5L954.5 1124.5L954.5 1375L959.5 1375Z" fill="#6E7018"/>
<path d="M1181 1380L1156 1365.57V1394.43L1181 1380ZM1158.5 1377.5H1021V1382.5H1158.5V1377.5Z" fill="#704D18"/>
<path d="M1023 1102L1023 1375" stroke="#704D18" stroke-width="5"/>
<line x1="597" y1="495.5" x2="373" y2="495.5" stroke="#176197" stroke-width="5"/>
<line x1="594.5" y1="493" x2="594.5" y2="457" stroke="#176197" stroke-width="5"/>
<line x1="1357" y1="678.5" x2="990" y2="678.5" stroke="#176197" stroke-width="5"/>
<line x1="1634" y1="495.5" x2="1396" y2="495.5" stroke="#176197" stroke-width="5"/>
<line x1="1398.5" y1="457" x2="1398.5" y2="493" stroke="#176197" stroke-width="5"/>
<line x1="1328" y1="531.5" x2="1035" y2="531.5" stroke="#176197" stroke-width="5"/>
<line x1="1037.5" y1="457" x2="1037.5" y2="529" stroke="#176197" stroke-width="5"/>
<line x1="1593" y1="531.5" x2="1375" y2="531.5" stroke="#176197" stroke-width="5"/>
<path d="M1633 610L1647.43 585L1618.57 585L1633 610ZM1630.5 493L1630.5 587.5L1635.5 587.5L1635.5 493L1630.5 493Z" fill="#176197"/>
<path d="M1593 610L1607.43 585L1578.57 585L1593 610ZM1590.5 529L1590.5 587.5L1595.5 587.5L1595.5 529L1590.5 529Z" fill="#176197"/>
<path d="M995 457L980.566 482L1009.43 482L995 457ZM992.5 479.5L992.5 676L997.5 676L997.5 479.5L992.5 479.5Z" fill="#176197"/>
<path d="M993 856L1007.43 831L978.566 831L993 856ZM990.5 676L990.5 833.5L995.5 833.5L995.5 676L990.5 676Z" fill="#176197"/>
<path d="M379.92 1338.48C376.267 1338.48 373.4 1337.25 371.32 1334.8C369.24 1332.32 368.2 1328.73 368.2 1324.04C368.2 1321.69 368.467 1319.63 369 1317.84C369.533 1316.05 370.307 1314.55 371.32 1313.32C372.333 1312.09 373.56 1311.17 375 1310.56C376.467 1309.92 378.107 1309.6 379.92 1309.6C382.347 1309.6 384.373 1310.13 386 1311.2C387.653 1312.27 388.947 1313.84 389.88 1315.92L386.08 1318C385.6 1316.67 384.853 1315.61 383.84 1314.84C382.853 1314.04 381.547 1313.64 379.92 1313.64C377.76 1313.64 376.067 1314.37 374.84 1315.84C373.613 1317.31 373 1319.33 373 1321.92V1326.16C373 1328.75 373.613 1330.77 374.84 1332.24C376.067 1333.71 377.76 1334.44 379.92 1334.44C381.6 1334.44 382.96 1334.01 384 1333.16C385.067 1332.28 385.853 1331.16 386.36 1329.8L390 1332C389.067 1334.03 387.76 1335.61 386.08 1336.76C384.4 1337.91 382.347 1338.48 379.92 1338.48ZM402.632 1338.48C401.192 1338.48 399.872 1338.23 398.672 1337.72C397.498 1337.21 396.498 1336.49 395.672 1335.56C394.845 1334.6 394.205 1333.45 393.752 1332.12C393.298 1330.76 393.072 1329.25 393.072 1327.6C393.072 1325.95 393.298 1324.45 393.752 1323.12C394.205 1321.76 394.845 1320.61 395.672 1319.68C396.498 1318.72 397.498 1317.99 398.672 1317.48C399.872 1316.97 401.192 1316.72 402.632 1316.72C404.072 1316.72 405.378 1316.97 406.552 1317.48C407.752 1317.99 408.765 1318.72 409.592 1319.68C410.418 1320.61 411.058 1321.76 411.512 1323.12C411.965 1324.45 412.192 1325.95 412.192 1327.6C412.192 1329.25 411.965 1330.76 411.512 1332.12C411.058 1333.45 410.418 1334.6 409.592 1335.56C408.765 1336.49 407.752 1337.21 406.552 1337.72C405.378 1338.23 404.072 1338.48 402.632 1338.48ZM402.632 1334.88C404.125 1334.88 405.325 1334.43 406.232 1333.52C407.138 1332.59 407.592 1331.2 407.592 1329.36V1325.84C407.592 1324 407.138 1322.63 406.232 1321.72C405.325 1320.79 404.125 1320.32 402.632 1320.32C401.138 1320.32 399.938 1320.79 399.032 1321.72C398.125 1322.63 397.672 1324 397.672 1325.84V1329.36C397.672 1331.2 398.125 1332.59 399.032 1333.52C399.938 1334.43 401.138 1334.88 402.632 1334.88ZM430.13 1334.56H429.93C429.476 1335.79 428.73 1336.75 427.69 1337.44C426.676 1338.13 425.476 1338.48 424.09 1338.48C421.45 1338.48 419.41 1337.53 417.97 1335.64C416.53 1333.72 415.81 1331.04 415.81 1327.6C415.81 1324.16 416.53 1321.49 417.97 1319.6C419.41 1317.68 421.45 1316.72 424.09 1316.72C425.476 1316.72 426.676 1317.07 427.69 1317.76C428.73 1318.43 429.476 1319.39 429.93 1320.64H430.13V1308.4H434.49V1338H430.13V1334.56ZM425.41 1334.72C426.743 1334.72 427.863 1334.4 428.77 1333.76C429.676 1333.09 430.13 1332.23 430.13 1331.16V1324.04C430.13 1322.97 429.676 1322.12 428.77 1321.48C427.863 1320.81 426.743 1320.48 425.41 1320.48C423.89 1320.48 422.676 1320.97 421.77 1321.96C420.863 1322.92 420.41 1324.2 420.41 1325.8V1329.4C420.41 1331 420.863 1332.29 421.77 1333.28C422.676 1334.24 423.89 1334.72 425.41 1334.72ZM448.882 1338.48C447.388 1338.48 446.055 1338.23 444.882 1337.72C443.708 1337.21 442.708 1336.49 441.882 1335.56C441.055 1334.6 440.415 1333.45 439.962 1332.12C439.535 1330.76 439.322 1329.25 439.322 1327.6C439.322 1325.95 439.535 1324.45 439.962 1323.12C440.415 1321.76 441.055 1320.61 441.882 1319.68C442.708 1318.72 443.708 1317.99 444.882 1317.48C446.055 1316.97 447.388 1316.72 448.882 1316.72C450.402 1316.72 451.735 1316.99 452.882 1317.52C454.055 1318.05 455.028 1318.8 455.802 1319.76C456.575 1320.69 457.148 1321.79 457.522 1323.04C457.922 1324.29 458.122 1325.64 458.122 1327.08V1328.72H443.842V1329.4C443.842 1331 444.308 1332.32 445.242 1333.36C446.202 1334.37 447.562 1334.88 449.322 1334.88C450.602 1334.88 451.682 1334.6 452.562 1334.04C453.442 1333.48 454.188 1332.72 454.802 1331.76L457.362 1334.28C456.588 1335.56 455.468 1336.59 454.002 1337.36C452.535 1338.11 450.828 1338.48 448.882 1338.48ZM448.882 1320.12C448.135 1320.12 447.442 1320.25 446.802 1320.52C446.188 1320.79 445.655 1321.16 445.202 1321.64C444.775 1322.12 444.442 1322.69 444.202 1323.36C443.962 1324.03 443.842 1324.76 443.842 1325.56V1325.84H453.522V1325.44C453.522 1323.84 453.108 1322.56 452.282 1321.6C451.455 1320.61 450.322 1320.12 448.882 1320.12ZM471.801 1325.56C471.801 1323.61 471.975 1321.75 472.321 1319.96C472.695 1318.17 473.201 1316.51 473.841 1314.96C474.481 1313.41 475.228 1312.01 476.081 1310.76C476.961 1309.51 477.908 1308.45 478.921 1307.6H483.041C481.948 1308.61 480.961 1309.75 480.081 1311C479.201 1312.25 478.455 1313.59 477.841 1315C477.228 1316.41 476.748 1317.88 476.401 1319.4C476.081 1320.92 475.921 1322.44 475.921 1323.96V1327.16C475.921 1328.68 476.081 1330.2 476.401 1331.72C476.748 1333.24 477.228 1334.71 477.841 1336.12C478.455 1337.53 479.201 1338.87 480.081 1340.12C480.961 1341.4 481.948 1342.53 483.041 1343.52H478.921C477.908 1342.67 476.961 1341.61 476.081 1340.36C475.228 1339.11 474.481 1337.71 473.841 1336.16C473.201 1334.61 472.695 1332.95 472.321 1331.16C471.975 1329.37 471.801 1327.51 471.801 1325.56ZM503.319 1325.84H490.679V1338H486.159V1310.08H490.679V1321.84H503.319V1310.08H507.839V1338H503.319V1325.84ZM525.073 1314.08V1338H520.553V1314.08H512.233V1310.08H533.393V1314.08H525.073ZM559.159 1316.64H558.959L556.759 1321.16L550.639 1332.32L544.519 1321.16L542.319 1316.64H542.119V1338H537.799V1310.08H543.159L550.639 1324.28H550.879L558.359 1310.08H563.479V1338H559.159V1316.64ZM570.378 1338V1310.08H574.898V1334H586.258V1338H570.378ZM594.183 1332.44C595.169 1332.44 595.903 1332.69 596.383 1333.2C596.863 1333.71 597.103 1334.36 597.103 1335.16V1335.8C597.103 1337.11 596.743 1338.47 596.023 1339.88C595.329 1341.32 594.383 1342.53 593.183 1343.52H589.943C590.796 1342.67 591.503 1341.84 592.063 1341.04C592.623 1340.24 593.049 1339.35 593.343 1338.36C592.649 1338.23 592.129 1337.93 591.783 1337.48C591.436 1337 591.263 1336.44 591.263 1335.8V1335.16C591.263 1334.36 591.503 1333.71 591.983 1333.2C592.463 1332.69 593.196 1332.44 594.183 1332.44ZM621.238 1338.48C618.891 1338.48 616.891 1338.05 615.238 1337.2C613.611 1336.35 612.211 1335.2 611.038 1333.76L614.158 1330.84C615.144 1332.04 616.224 1332.95 617.398 1333.56C618.598 1334.17 619.958 1334.48 621.478 1334.48C623.264 1334.48 624.611 1334.08 625.518 1333.28C626.424 1332.48 626.878 1331.4 626.878 1330.04C626.878 1328.95 626.558 1328.08 625.918 1327.44C625.278 1326.8 624.144 1326.32 622.518 1326L620.038 1325.56C617.318 1325.05 615.278 1324.16 613.918 1322.88C612.558 1321.6 611.878 1319.84 611.878 1317.6C611.878 1316.37 612.104 1315.27 612.558 1314.28C613.038 1313.27 613.691 1312.43 614.518 1311.76C615.371 1311.07 616.398 1310.53 617.598 1310.16C618.798 1309.79 620.144 1309.6 621.638 1309.6C623.744 1309.6 625.571 1309.97 627.118 1310.72C628.664 1311.44 629.984 1312.49 631.078 1313.88L627.918 1316.68C627.198 1315.75 626.318 1315 625.278 1314.44C624.238 1313.88 622.944 1313.6 621.398 1313.6C619.798 1313.6 618.558 1313.92 617.678 1314.56C616.798 1315.2 616.358 1316.13 616.358 1317.36C616.358 1318.53 616.718 1319.41 617.438 1320C618.158 1320.56 619.278 1320.99 620.798 1321.28L623.278 1321.8C626.078 1322.33 628.118 1323.24 629.398 1324.52C630.704 1325.8 631.358 1327.56 631.358 1329.8C631.358 1331.11 631.131 1332.29 630.678 1333.36C630.224 1334.43 629.558 1335.35 628.678 1336.12C627.824 1336.87 626.771 1337.45 625.518 1337.88C624.264 1338.28 622.838 1338.48 621.238 1338.48ZM644.504 1338.48C643.01 1338.48 641.677 1338.23 640.504 1337.72C639.33 1337.21 638.344 1336.49 637.544 1335.56C636.744 1334.6 636.13 1333.45 635.704 1332.12C635.277 1330.76 635.064 1329.25 635.064 1327.6C635.064 1325.95 635.277 1324.45 635.704 1323.12C636.13 1321.76 636.744 1320.61 637.544 1319.68C638.344 1318.72 639.33 1317.99 640.504 1317.48C641.677 1316.97 643.01 1316.72 644.504 1316.72C646.584 1316.72 648.29 1317.19 649.624 1318.12C650.957 1319.05 651.93 1320.29 652.544 1321.84L648.944 1323.52C648.65 1322.56 648.13 1321.8 647.384 1321.24C646.664 1320.65 645.704 1320.36 644.504 1320.36C642.904 1320.36 641.69 1320.87 640.864 1321.88C640.064 1322.87 639.664 1324.16 639.664 1325.76V1329.48C639.664 1331.08 640.064 1332.39 640.864 1333.4C641.69 1334.39 642.904 1334.88 644.504 1334.88C645.784 1334.88 646.797 1334.57 647.544 1333.96C648.317 1333.32 648.93 1332.48 649.384 1331.44L652.704 1333.2C652.01 1334.91 650.97 1336.21 649.584 1337.12C648.197 1338.03 646.504 1338.48 644.504 1338.48ZM656.854 1338V1317.2H661.214V1321.2H661.414C661.708 1320.13 662.321 1319.2 663.254 1318.4C664.188 1317.6 665.481 1317.2 667.134 1317.2H668.294V1321.4H666.574C664.841 1321.4 663.508 1321.68 662.574 1322.24C661.668 1322.8 661.214 1323.63 661.214 1324.72V1338H656.854ZM674.367 1313.48C673.46 1313.48 672.794 1313.27 672.367 1312.84C671.967 1312.41 671.767 1311.87 671.767 1311.2V1310.52C671.767 1309.85 671.967 1309.31 672.367 1308.88C672.794 1308.45 673.46 1308.24 674.367 1308.24C675.274 1308.24 675.927 1308.45 676.327 1308.88C676.727 1309.31 676.927 1309.85 676.927 1310.52V1311.2C676.927 1311.87 676.727 1312.41 676.327 1312.84C675.927 1313.27 675.274 1313.48 674.367 1313.48ZM672.167 1317.2H676.527V1338H672.167V1317.2ZM682.753 1317.2H687.113V1320.64H687.313C687.766 1319.39 688.499 1318.43 689.513 1317.76C690.553 1317.07 691.766 1316.72 693.153 1316.72C695.793 1316.72 697.833 1317.68 699.273 1319.6C700.713 1321.49 701.433 1324.16 701.433 1327.6C701.433 1331.04 700.713 1333.72 699.273 1335.64C697.833 1337.53 695.793 1338.48 693.153 1338.48C691.766 1338.48 690.553 1338.13 689.513 1337.44C688.499 1336.75 687.766 1335.79 687.313 1334.56H687.113V1346H682.753V1317.2ZM691.833 1334.72C693.353 1334.72 694.566 1334.24 695.473 1333.28C696.379 1332.29 696.833 1331 696.833 1329.4V1325.8C696.833 1324.2 696.379 1322.92 695.473 1321.96C694.566 1320.97 693.353 1320.48 691.833 1320.48C690.499 1320.48 689.379 1320.81 688.473 1321.48C687.566 1322.12 687.113 1322.97 687.113 1324.04V1331.16C687.113 1332.23 687.566 1333.09 688.473 1333.76C689.379 1334.4 690.499 1334.72 691.833 1334.72ZM711.95 1338C710.43 1338 709.284 1337.61 708.51 1336.84C707.737 1336.04 707.35 1334.92 707.35 1333.48V1320.76H704.11V1317.2H705.87C706.59 1317.2 707.084 1317.04 707.35 1316.72C707.644 1316.4 707.79 1315.88 707.79 1315.16V1311.52H711.71V1317.2H716.07V1320.76H711.71V1334.44H715.75V1338H711.95ZM728.6 1325.56C728.6 1327.51 728.413 1329.37 728.04 1331.16C727.693 1332.95 727.2 1334.61 726.56 1336.16C725.92 1337.71 725.16 1339.11 724.28 1340.36C723.426 1341.61 722.493 1342.67 721.48 1343.52H717.36C718.453 1342.53 719.44 1341.4 720.32 1340.12C721.2 1338.87 721.946 1337.53 722.56 1336.12C723.173 1334.71 723.64 1333.24 723.96 1331.72C724.306 1330.2 724.48 1328.68 724.48 1327.16V1323.96C724.48 1322.44 724.306 1320.92 723.96 1319.4C723.64 1317.88 723.173 1316.41 722.56 1315C721.946 1313.59 721.2 1312.25 720.32 1311C719.44 1309.75 718.453 1308.61 717.36 1307.6H721.48C722.493 1308.45 723.426 1309.51 724.28 1310.76C725.16 1312.01 725.92 1313.41 726.56 1314.96C727.2 1316.51 727.693 1318.17 728.04 1319.96C728.413 1321.75 728.6 1323.61 728.6 1325.56Z" fill="white"/>
<path d="M507.2 1397.18L494.213 1408L507.2 1418.82C507.63 1419.17 507.987 1419.61 508.249 1420.1C508.511 1420.59 508.673 1421.13 508.725 1421.68C508.778 1422.24 508.721 1422.8 508.556 1423.33C508.392 1423.86 508.124 1424.36 507.767 1424.78C507.411 1425.21 506.973 1425.57 506.48 1425.82C505.986 1426.08 505.447 1426.24 504.892 1426.29C504.337 1426.34 503.778 1426.27 503.247 1426.1C502.717 1425.94 502.225 1425.66 501.8 1425.3L484.925 1411.24C484.45 1410.85 484.067 1410.35 483.805 1409.79C483.542 1409.23 483.406 1408.62 483.406 1408C483.406 1407.38 483.542 1406.77 483.805 1406.21C484.067 1405.65 484.45 1405.15 484.925 1404.76L501.8 1390.7C502.661 1389.99 503.765 1389.65 504.874 1389.76C505.982 1389.86 507.003 1390.4 507.715 1391.26C508.428 1392.11 508.773 1393.22 508.677 1394.33C508.58 1395.43 508.049 1396.46 507.2 1397.18ZM569.075 1404.76L552.2 1390.7C551.775 1390.34 551.283 1390.06 550.752 1389.9C550.221 1389.73 549.663 1389.66 549.108 1389.71C548.553 1389.76 548.013 1389.92 547.52 1390.18C547.026 1390.43 546.589 1390.79 546.232 1391.22C545.876 1391.64 545.608 1392.14 545.443 1392.67C545.279 1393.2 545.221 1393.76 545.274 1394.32C545.327 1394.87 545.489 1395.41 545.751 1395.9C546.013 1396.39 546.369 1396.83 546.8 1397.18L559.787 1408L546.8 1418.82C546.369 1419.17 546.013 1419.61 545.751 1420.1C545.489 1420.59 545.327 1421.13 545.274 1421.68C545.221 1422.24 545.279 1422.8 545.443 1423.33C545.608 1423.86 545.876 1424.36 546.232 1424.78C546.589 1425.21 547.026 1425.57 547.52 1425.82C548.013 1426.08 548.553 1426.24 549.108 1426.29C549.663 1426.34 550.221 1426.27 550.752 1426.1C551.283 1425.94 551.775 1425.66 552.2 1425.3L569.075 1411.24C569.55 1410.85 569.932 1410.35 570.195 1409.79C570.457 1409.23 570.593 1408.62 570.593 1408C570.593 1407.38 570.457 1406.77 570.195 1406.21C569.932 1405.65 569.55 1405.15 569.075 1404.76ZM539.691 1373.1C539.17 1372.91 538.617 1372.82 538.064 1372.85C537.51 1372.87 536.967 1373 536.465 1373.24C535.963 1373.47 535.512 1373.8 535.137 1374.21C534.763 1374.62 534.473 1375.1 534.284 1375.62L511.784 1437.5C511.403 1438.55 511.454 1439.71 511.928 1440.72C512.401 1441.73 513.257 1442.52 514.308 1442.9C514.77 1443.07 515.258 1443.16 515.75 1443.16C516.616 1443.16 517.461 1442.89 518.171 1442.39C518.88 1441.9 519.419 1441.19 519.715 1440.38L542.215 1378.5C542.405 1377.98 542.49 1377.43 542.465 1376.88C542.441 1376.32 542.308 1375.78 542.073 1375.28C541.839 1374.78 541.508 1374.32 541.099 1373.95C540.69 1373.58 540.212 1373.29 539.691 1373.1Z" fill="#F9FF00"/>
</svg>
