<svg width="2094" height="1775" viewBox="0 0 2094 1775" fill="none" xmlns="http://www.w3.org/2000/svg">
<rect width="2094" height="1775" fill="#202B36"/>
<rect x="556" y="240" width="261" height="246" fill="#176197"/>
<rect x="240" y="639" width="266" height="246" fill="#18705B"/>
<rect x="1238" y="1281" width="616" height="254" fill="#704D18"/>
<rect x="1588" y="639" width="266" height="246" fill="#18705B"/>
<rect x="917" y="240" width="261" height="246" fill="#176197"/>
<rect x="1278" y="240" width="261" height="246" fill="#176197"/>
<path d="M289.828 733L281.248 696.704H287.228L290.92 714.176L293.468 726.24H293.624L296.536 714.176L300.852 696.704H307.404L311.668 714.176L314.528 726.188H314.684L317.336 714.176L321.132 696.704H326.904L317.96 733H311.356L306.728 714.228L304.024 703.204H303.92L301.164 714.228L296.432 733H289.828ZM341.84 733.624C339.968 733.624 338.252 733.295 336.692 732.636C335.166 731.977 333.866 731.041 332.792 729.828C331.717 728.58 330.885 727.089 330.296 725.356C329.706 723.588 329.412 721.629 329.412 719.48C329.412 717.331 329.706 715.389 330.296 713.656C330.885 711.888 331.717 710.397 332.792 709.184C333.866 707.936 335.166 706.983 336.692 706.324C338.252 705.665 339.968 705.336 341.84 705.336C343.712 705.336 345.41 705.665 346.936 706.324C348.496 706.983 349.813 707.936 350.888 709.184C351.962 710.397 352.794 711.888 353.384 713.656C353.973 715.389 354.268 717.331 354.268 719.48C354.268 721.629 353.973 723.588 353.384 725.356C352.794 727.089 351.962 728.58 350.888 729.828C349.813 731.041 348.496 731.977 346.936 732.636C345.41 733.295 343.712 733.624 341.84 733.624ZM341.84 728.944C343.781 728.944 345.341 728.355 346.52 727.176C347.698 725.963 348.288 724.16 348.288 721.768V717.192C348.288 714.8 347.698 713.015 346.52 711.836C345.341 710.623 343.781 710.016 341.84 710.016C339.898 710.016 338.338 710.623 337.16 711.836C335.981 713.015 335.392 714.8 335.392 717.192V721.768C335.392 724.16 335.981 725.963 337.16 727.176C338.338 728.355 339.898 728.944 341.84 728.944ZM360.583 733V705.96H366.251V711.16H366.511C366.893 709.773 367.69 708.56 368.903 707.52C370.117 706.48 371.798 705.96 373.947 705.96H375.455V711.42H373.219C370.966 711.42 369.233 711.784 368.019 712.512C366.841 713.24 366.251 714.315 366.251 715.736V733H360.583ZM386.262 733C384.32 733 382.864 732.515 381.894 731.544C380.958 730.539 380.49 729.152 380.49 727.384V694.52H386.158V728.372H389.902V733H386.262ZM412.322 728.528H412.062C411.472 730.123 410.502 731.371 409.15 732.272C407.832 733.173 406.272 733.624 404.47 733.624C401.038 733.624 398.386 732.393 396.514 729.932C394.642 727.436 393.706 723.952 393.706 719.48C393.706 715.008 394.642 711.541 396.514 709.08C398.386 706.584 401.038 705.336 404.47 705.336C406.272 705.336 407.832 705.787 409.15 706.688C410.502 707.555 411.472 708.803 412.062 710.432H412.322V694.52H417.99V733H412.322V728.528ZM406.186 728.736C407.919 728.736 409.375 728.32 410.554 727.488C411.732 726.621 412.322 725.495 412.322 724.108V714.852C412.322 713.465 411.732 712.356 410.554 711.524C409.375 710.657 407.919 710.224 406.186 710.224C404.21 710.224 402.632 710.865 401.454 712.148C400.275 713.396 399.686 715.06 399.686 717.14V721.82C399.686 723.9 400.275 725.581 401.454 726.864C402.632 728.112 404.21 728.736 406.186 728.736ZM438.9 733V728.112H449.092V700.968H448.676L440.252 709.964L436.664 706.74L445.92 696.704H454.864V728.112H463.704V733H438.9Z" fill="white"/>
<path d="M612.096 334.624C607.347 334.624 603.62 333.029 600.916 329.84C598.212 326.616 596.86 321.953 596.86 315.852C596.86 312.801 597.207 310.115 597.9 307.792C598.593 305.469 599.599 303.511 600.916 301.916C602.233 300.321 603.828 299.125 605.7 298.328C607.607 297.496 609.739 297.08 612.096 297.08C615.251 297.08 617.885 297.773 620 299.16C622.149 300.547 623.831 302.592 625.044 305.296L620.104 308C619.48 306.267 618.509 304.897 617.192 303.892C615.909 302.852 614.211 302.332 612.096 302.332C609.288 302.332 607.087 303.285 605.492 305.192C603.897 307.099 603.1 309.733 603.1 313.096V318.608C603.1 321.971 603.897 324.605 605.492 326.512C607.087 328.419 609.288 329.372 612.096 329.372C614.28 329.372 616.048 328.817 617.4 327.708C618.787 326.564 619.809 325.108 620.468 323.34L625.2 326.2C623.987 328.835 622.288 330.897 620.104 332.388C617.92 333.879 615.251 334.624 612.096 334.624ZM636.785 334C634.844 334 633.388 333.515 632.417 332.544C631.481 331.539 631.013 330.152 631.013 328.384V295.52H636.681V329.372H640.425V334H636.785ZM648.701 302.124C647.522 302.124 646.656 301.847 646.101 301.292C645.581 300.737 645.321 300.027 645.321 299.16V298.276C645.321 297.409 645.581 296.699 646.101 296.144C646.656 295.589 647.522 295.312 648.701 295.312C649.88 295.312 650.729 295.589 651.249 296.144C651.769 296.699 652.029 297.409 652.029 298.276V299.16C652.029 300.027 651.769 300.737 651.249 301.292C650.729 301.847 649.88 302.124 648.701 302.124ZM645.841 306.96H651.509V334H645.841V306.96ZM670.211 334.624C668.27 334.624 666.536 334.295 665.011 333.636C663.486 332.977 662.186 332.041 661.111 330.828C660.036 329.58 659.204 328.089 658.615 326.356C658.06 324.588 657.783 322.629 657.783 320.48C657.783 318.331 658.06 316.389 658.615 314.656C659.204 312.888 660.036 311.397 661.111 310.184C662.186 308.936 663.486 307.983 665.011 307.324C666.536 306.665 668.27 306.336 670.211 306.336C672.187 306.336 673.92 306.683 675.411 307.376C676.936 308.069 678.202 309.04 679.207 310.288C680.212 311.501 680.958 312.923 681.443 314.552C681.963 316.181 682.223 317.932 682.223 319.804V321.936H663.659V322.82C663.659 324.9 664.266 326.616 665.479 327.968C666.727 329.285 668.495 329.944 670.783 329.944C672.447 329.944 673.851 329.58 674.995 328.852C676.139 328.124 677.11 327.136 677.907 325.888L681.235 329.164C680.23 330.828 678.774 332.163 676.867 333.168C674.96 334.139 672.742 334.624 670.211 334.624ZM670.211 310.756C669.24 310.756 668.339 310.929 667.507 311.276C666.71 311.623 666.016 312.108 665.427 312.732C664.872 313.356 664.439 314.101 664.127 314.968C663.815 315.835 663.659 316.788 663.659 317.828V318.192H676.243V317.672C676.243 315.592 675.706 313.928 674.631 312.68C673.556 311.397 672.083 310.756 670.211 310.756ZM688.497 334V306.96H694.165V311.432H694.425C695.015 309.976 695.899 308.763 697.077 307.792C698.291 306.821 699.937 306.336 702.017 306.336C704.791 306.336 706.94 307.255 708.465 309.092C710.025 310.895 710.805 313.477 710.805 316.84V334H705.137V317.568C705.137 313.339 703.439 311.224 700.041 311.224C699.313 311.224 698.585 311.328 697.857 311.536C697.164 311.709 696.54 311.987 695.985 312.368C695.431 312.749 694.98 313.235 694.633 313.824C694.321 314.413 694.165 315.107 694.165 315.904V334H688.497ZM726.149 334C724.173 334 722.683 333.497 721.677 332.492C720.672 331.452 720.169 329.996 720.169 328.124V311.588H715.957V306.96H718.245C719.181 306.96 719.823 306.752 720.169 306.336C720.551 305.92 720.741 305.244 720.741 304.308V299.576H725.837V306.96H731.505V311.588H725.837V329.372H731.089V334H726.149ZM750.463 334V329.112H760.655V301.968H760.239L751.815 310.964L748.227 307.74L757.483 297.704H766.427V329.112H775.267V334H750.463Z" fill="white"/>
<path d="M1302.47 1375V1338.7H1325.72V1343.9H1308.35V1353.99H1324.1V1359.19H1308.35V1369.8H1325.72V1375H1302.47ZM1329.86 1375L1339.38 1361.32L1330.12 1347.96H1336.68L1342.76 1357.37H1342.92L1349.16 1347.96H1355.19L1345.93 1361.27L1355.34 1375H1348.79L1342.55 1365.17H1342.4L1335.9 1375H1329.86ZM1367.94 1375C1365.97 1375 1364.48 1374.5 1363.47 1373.49C1362.47 1372.45 1361.96 1371 1361.96 1369.12V1352.59H1357.75V1347.96H1360.04C1360.97 1347.96 1361.62 1347.75 1361.96 1347.34C1362.34 1346.92 1362.53 1346.24 1362.53 1345.31V1340.58H1367.63V1347.96H1373.3V1352.59H1367.63V1370.37H1372.88V1375H1367.94ZM1389.85 1375.62C1387.91 1375.62 1386.18 1375.29 1384.65 1374.64C1383.13 1373.98 1381.83 1373.04 1380.75 1371.83C1379.68 1370.58 1378.84 1369.09 1378.26 1367.36C1377.7 1365.59 1377.42 1363.63 1377.42 1361.48C1377.42 1359.33 1377.7 1357.39 1378.26 1355.66C1378.84 1353.89 1379.68 1352.4 1380.75 1351.18C1381.83 1349.94 1383.13 1348.98 1384.65 1348.32C1386.18 1347.67 1387.91 1347.34 1389.85 1347.34C1391.83 1347.34 1393.56 1347.68 1395.05 1348.38C1396.58 1349.07 1397.84 1350.04 1398.85 1351.29C1399.85 1352.5 1400.6 1353.92 1401.08 1355.55C1401.6 1357.18 1401.86 1358.93 1401.86 1360.8V1362.94H1383.3V1363.82C1383.3 1365.9 1383.91 1367.62 1385.12 1368.97C1386.37 1370.29 1388.14 1370.94 1390.42 1370.94C1392.09 1370.94 1393.49 1370.58 1394.64 1369.85C1395.78 1369.12 1396.75 1368.14 1397.55 1366.89L1400.88 1370.16C1399.87 1371.83 1398.41 1373.16 1396.51 1374.17C1394.6 1375.14 1392.38 1375.62 1389.85 1375.62ZM1389.85 1351.76C1388.88 1351.76 1387.98 1351.93 1387.15 1352.28C1386.35 1352.62 1385.66 1353.11 1385.07 1353.73C1384.51 1354.36 1384.08 1355.1 1383.77 1355.97C1383.46 1356.83 1383.3 1357.79 1383.3 1358.83V1359.19H1395.88V1358.67C1395.88 1356.59 1395.35 1354.93 1394.27 1353.68C1393.2 1352.4 1391.72 1351.76 1389.85 1351.76ZM1408.14 1375V1347.96H1413.81V1353.16H1414.07C1414.45 1351.77 1415.24 1350.56 1416.46 1349.52C1417.67 1348.48 1419.35 1347.96 1421.5 1347.96H1423.01V1353.42H1420.77C1418.52 1353.42 1416.79 1353.78 1415.57 1354.51C1414.4 1355.24 1413.81 1356.31 1413.81 1357.74V1375H1408.14ZM1428.04 1375V1347.96H1433.71V1352.43H1433.97C1434.56 1350.98 1435.45 1349.76 1436.62 1348.79C1437.84 1347.82 1439.48 1347.34 1441.56 1347.34C1444.34 1347.34 1446.49 1348.25 1448.01 1350.09C1449.57 1351.89 1450.35 1354.48 1450.35 1357.84V1375H1444.68V1358.57C1444.68 1354.34 1442.99 1352.22 1439.59 1352.22C1438.86 1352.22 1438.13 1352.33 1437.4 1352.54C1436.71 1352.71 1436.09 1352.99 1435.53 1353.37C1434.98 1353.75 1434.53 1354.23 1434.18 1354.82C1433.87 1355.41 1433.71 1356.11 1433.71 1356.9V1375H1428.04ZM1478.02 1375C1476.53 1375 1475.39 1374.58 1474.59 1373.75C1473.79 1372.89 1473.31 1371.79 1473.13 1370.48H1472.87C1472.35 1372.17 1471.4 1373.46 1470.01 1374.32C1468.63 1375.19 1466.94 1375.62 1464.97 1375.62C1462.16 1375.62 1459.99 1374.9 1458.47 1373.44C1456.98 1371.98 1456.23 1370.03 1456.23 1367.56C1456.23 1364.86 1457.2 1362.83 1459.14 1361.48C1461.12 1360.13 1464 1359.45 1467.78 1359.45H1472.66V1357.16C1472.66 1355.5 1472.21 1354.22 1471.31 1353.32C1470.41 1352.41 1469.01 1351.96 1467.1 1351.96C1465.51 1351.96 1464.21 1352.31 1463.2 1353C1462.2 1353.7 1461.35 1354.58 1460.65 1355.66L1457.27 1352.59C1458.17 1351.06 1459.44 1349.81 1461.07 1348.84C1462.7 1347.84 1464.83 1347.34 1467.46 1347.34C1470.97 1347.34 1473.65 1348.15 1475.52 1349.78C1477.4 1351.41 1478.33 1353.75 1478.33 1356.8V1370.37H1481.19V1375H1478.02ZM1466.58 1371.31C1468.35 1371.31 1469.8 1370.93 1470.95 1370.16C1472.09 1369.37 1472.66 1368.31 1472.66 1366.99V1363.09H1467.88C1463.96 1363.09 1462 1364.31 1462 1366.73V1367.67C1462 1368.88 1462.4 1369.8 1463.2 1370.42C1464.03 1371.01 1465.16 1371.31 1466.58 1371.31ZM1492.52 1375C1490.58 1375 1489.12 1374.51 1488.15 1373.54C1487.22 1372.54 1486.75 1371.15 1486.75 1369.38V1336.52H1492.42V1370.37H1496.16V1375H1492.52ZM1511.16 1347.96H1516.67L1519.43 1359.3L1521.87 1369.54H1522.03L1524.84 1359.3L1528.11 1347.96H1533.21L1536.54 1359.3L1539.4 1369.54H1539.55L1541.94 1359.3L1544.75 1347.96H1550L1542.72 1375H1536.33L1532.79 1362.68L1530.61 1355.08H1530.5L1528.37 1362.68L1524.78 1375H1518.54L1511.16 1347.96ZM1565.66 1375.62C1563.71 1375.62 1561.98 1375.29 1560.46 1374.64C1558.93 1373.98 1557.63 1373.04 1556.56 1371.83C1555.48 1370.58 1554.65 1369.09 1554.06 1367.36C1553.51 1365.59 1553.23 1363.63 1553.23 1361.48C1553.23 1359.33 1553.51 1357.39 1554.06 1355.66C1554.65 1353.89 1555.48 1352.4 1556.56 1351.18C1557.63 1349.94 1558.93 1348.98 1560.46 1348.32C1561.98 1347.67 1563.71 1347.34 1565.66 1347.34C1567.63 1347.34 1569.37 1347.68 1570.86 1348.38C1572.38 1349.07 1573.65 1350.04 1574.65 1351.29C1575.66 1352.5 1576.4 1353.92 1576.89 1355.55C1577.41 1357.18 1577.67 1358.93 1577.67 1360.8V1362.94H1559.1V1363.82C1559.1 1365.9 1559.71 1367.62 1560.92 1368.97C1562.17 1370.29 1563.94 1370.94 1566.23 1370.94C1567.89 1370.94 1569.3 1370.58 1570.44 1369.85C1571.58 1369.12 1572.55 1368.14 1573.35 1366.89L1576.68 1370.16C1575.67 1371.83 1574.22 1373.16 1572.31 1374.17C1570.41 1375.14 1568.19 1375.62 1565.66 1375.62ZM1565.66 1351.76C1564.69 1351.76 1563.78 1351.93 1562.95 1352.28C1562.15 1352.62 1561.46 1353.11 1560.87 1353.73C1560.32 1354.36 1559.88 1355.1 1559.57 1355.97C1559.26 1356.83 1559.1 1357.79 1559.1 1358.83V1359.19H1571.69V1358.67C1571.69 1356.59 1571.15 1354.93 1570.08 1353.68C1569 1352.4 1567.53 1351.76 1565.66 1351.76ZM1583.94 1336.52H1589.61V1352.43H1589.87C1590.46 1350.8 1591.41 1349.55 1592.73 1348.69C1594.08 1347.79 1595.66 1347.34 1597.46 1347.34C1600.89 1347.34 1603.55 1348.58 1605.42 1351.08C1607.29 1353.54 1608.23 1357.01 1608.23 1361.48C1608.23 1365.95 1607.29 1369.44 1605.42 1371.93C1603.55 1374.39 1600.89 1375.62 1597.46 1375.62C1595.66 1375.62 1594.08 1375.17 1592.73 1374.27C1591.41 1373.37 1590.46 1372.12 1589.87 1370.53H1589.61V1375H1583.94V1336.52ZM1595.75 1370.74C1597.72 1370.74 1599.3 1370.11 1600.48 1368.86C1601.66 1367.58 1602.25 1365.9 1602.25 1363.82V1359.14C1602.25 1357.06 1601.66 1355.4 1600.48 1354.15C1599.3 1352.87 1597.72 1352.22 1595.75 1352.22C1594.01 1352.22 1592.56 1352.66 1591.38 1353.52C1590.2 1354.36 1589.61 1355.47 1589.61 1356.85V1366.11C1589.61 1367.49 1590.2 1368.62 1591.38 1369.49C1592.56 1370.32 1594.01 1370.74 1595.75 1370.74ZM1635.59 1375.62C1633.02 1375.62 1630.87 1375.17 1629.14 1374.27C1627.4 1373.37 1625.9 1372.12 1624.61 1370.53L1628.25 1367.2C1629.26 1368.41 1630.37 1369.37 1631.58 1370.06C1632.83 1370.72 1634.27 1371.05 1635.9 1371.05C1637.56 1371.05 1638.79 1370.74 1639.59 1370.11C1640.42 1369.45 1640.84 1368.55 1640.84 1367.41C1640.84 1366.54 1640.54 1365.81 1639.95 1365.22C1639.4 1364.6 1638.41 1364.2 1636.99 1364.03L1634.49 1363.72C1631.72 1363.37 1629.54 1362.57 1627.94 1361.32C1626.38 1360.04 1625.6 1358.15 1625.6 1355.66C1625.6 1354.34 1625.84 1353.18 1626.33 1352.17C1626.81 1351.13 1627.49 1350.27 1628.36 1349.57C1629.26 1348.84 1630.32 1348.29 1631.53 1347.91C1632.78 1347.53 1634.15 1347.34 1635.64 1347.34C1638.06 1347.34 1640.04 1347.72 1641.57 1348.48C1643.13 1349.24 1644.51 1350.3 1645.73 1351.65L1642.24 1354.98C1641.55 1354.15 1640.63 1353.44 1639.49 1352.85C1638.38 1352.22 1637.09 1351.91 1635.64 1351.91C1634.08 1351.91 1632.92 1352.22 1632.15 1352.85C1631.43 1353.47 1631.06 1354.29 1631.06 1355.29C1631.06 1356.33 1631.39 1357.11 1632.05 1357.63C1632.71 1358.15 1633.77 1358.53 1635.22 1358.78L1637.72 1359.09C1640.7 1359.54 1642.87 1360.42 1644.22 1361.74C1645.6 1363.02 1646.3 1364.76 1646.3 1366.94C1646.3 1368.26 1646.04 1369.45 1645.52 1370.53C1645.03 1371.57 1644.32 1372.47 1643.39 1373.23C1642.45 1373.99 1641.32 1374.58 1640.01 1375C1638.69 1375.42 1637.21 1375.62 1635.59 1375.62ZM1663.31 1375.62C1661.37 1375.62 1659.63 1375.29 1658.11 1374.64C1656.58 1373.98 1655.28 1373.04 1654.21 1371.83C1653.13 1370.58 1652.3 1369.09 1651.71 1367.36C1651.16 1365.59 1650.88 1363.63 1650.88 1361.48C1650.88 1359.33 1651.16 1357.39 1651.71 1355.66C1652.3 1353.89 1653.13 1352.4 1654.21 1351.18C1655.28 1349.94 1656.58 1348.98 1658.11 1348.32C1659.63 1347.67 1661.37 1347.34 1663.31 1347.34C1665.28 1347.34 1667.02 1347.68 1668.51 1348.38C1670.03 1349.07 1671.3 1350.04 1672.3 1351.29C1673.31 1352.5 1674.06 1353.92 1674.54 1355.55C1675.06 1357.18 1675.32 1358.93 1675.32 1360.8V1362.94H1656.76V1363.82C1656.76 1365.9 1657.36 1367.62 1658.58 1368.97C1659.82 1370.29 1661.59 1370.94 1663.88 1370.94C1665.54 1370.94 1666.95 1370.58 1668.09 1369.85C1669.24 1369.12 1670.21 1368.14 1671 1366.89L1674.33 1370.16C1673.33 1371.83 1671.87 1373.16 1669.96 1374.17C1668.06 1375.14 1665.84 1375.62 1663.31 1375.62ZM1663.31 1351.76C1662.34 1351.76 1661.44 1351.93 1660.6 1352.28C1659.81 1352.62 1659.11 1353.11 1658.52 1353.73C1657.97 1354.36 1657.54 1355.1 1657.22 1355.97C1656.91 1356.83 1656.76 1357.79 1656.76 1358.83V1359.19H1669.34V1358.67C1669.34 1356.59 1668.8 1354.93 1667.73 1353.68C1666.65 1352.4 1665.18 1351.76 1663.31 1351.76ZM1681.6 1375V1347.96H1687.26V1353.16H1687.52C1687.9 1351.77 1688.7 1350.56 1689.92 1349.52C1691.13 1348.48 1692.81 1347.96 1694.96 1347.96H1696.47V1353.42H1694.23C1691.98 1353.42 1690.24 1353.78 1689.03 1354.51C1687.85 1355.24 1687.26 1356.31 1687.26 1357.74V1375H1681.6ZM1707.83 1375L1698.63 1347.96H1704.25L1708.35 1360.28L1711.11 1369.75H1711.42L1714.18 1360.28L1718.39 1347.96H1723.8L1714.49 1375H1707.83ZM1731.43 1343.12C1730.25 1343.12 1729.38 1342.85 1728.83 1342.29C1728.31 1341.74 1728.05 1341.03 1728.05 1340.16V1339.28C1728.05 1338.41 1728.31 1337.7 1728.83 1337.14C1729.38 1336.59 1730.25 1336.31 1731.43 1336.31C1732.61 1336.31 1733.46 1336.59 1733.98 1337.14C1734.5 1337.7 1734.76 1338.41 1734.76 1339.28V1340.16C1734.76 1341.03 1734.5 1341.74 1733.98 1342.29C1733.46 1342.85 1732.61 1343.12 1731.43 1343.12ZM1728.57 1347.96H1734.24V1375H1728.57V1347.96ZM1752.78 1375.62C1750.84 1375.62 1749.11 1375.29 1747.58 1374.64C1746.06 1373.98 1744.77 1373.04 1743.73 1371.83C1742.69 1370.58 1741.9 1369.09 1741.34 1367.36C1740.79 1365.59 1740.51 1363.63 1740.51 1361.48C1740.51 1359.33 1740.79 1357.39 1741.34 1355.66C1741.9 1353.89 1742.69 1352.4 1743.73 1351.18C1744.77 1349.94 1746.06 1348.98 1747.58 1348.32C1749.11 1347.67 1750.84 1347.34 1752.78 1347.34C1755.49 1347.34 1757.7 1347.94 1759.44 1349.16C1761.17 1350.37 1762.44 1351.98 1763.23 1353.99L1758.55 1356.18C1758.17 1354.93 1757.5 1353.94 1756.53 1353.21C1755.59 1352.45 1754.34 1352.07 1752.78 1352.07C1750.7 1352.07 1749.12 1352.73 1748.05 1354.04C1747.01 1355.33 1746.49 1357.01 1746.49 1359.09V1363.92C1746.49 1366 1747.01 1367.7 1748.05 1369.02C1749.12 1370.3 1750.7 1370.94 1752.78 1370.94C1754.45 1370.94 1755.76 1370.55 1756.73 1369.75C1757.74 1368.92 1758.54 1367.82 1759.13 1366.47L1763.44 1368.76C1762.54 1370.98 1761.19 1372.68 1759.39 1373.86C1757.58 1375.03 1755.38 1375.62 1752.78 1375.62ZM1779.14 1375.62C1777.2 1375.62 1775.47 1375.29 1773.94 1374.64C1772.42 1373.98 1771.12 1373.04 1770.04 1371.83C1768.97 1370.58 1768.13 1369.09 1767.54 1367.36C1766.99 1365.59 1766.71 1363.63 1766.71 1361.48C1766.71 1359.33 1766.99 1357.39 1767.54 1355.66C1768.13 1353.89 1768.97 1352.4 1770.04 1351.18C1771.12 1349.94 1772.42 1348.98 1773.94 1348.32C1775.47 1347.67 1777.2 1347.34 1779.14 1347.34C1781.12 1347.34 1782.85 1347.68 1784.34 1348.38C1785.87 1349.07 1787.13 1350.04 1788.14 1351.29C1789.14 1352.5 1789.89 1353.92 1790.37 1355.55C1790.89 1357.18 1791.15 1358.93 1791.15 1360.8V1362.94H1772.59V1363.82C1772.59 1365.9 1773.2 1367.62 1774.41 1368.97C1775.66 1370.29 1777.42 1370.94 1779.71 1370.94C1781.38 1370.94 1782.78 1370.58 1783.92 1369.85C1785.07 1369.12 1786.04 1368.14 1786.84 1366.89L1790.16 1370.16C1789.16 1371.83 1787.7 1373.16 1785.8 1374.17C1783.89 1375.14 1781.67 1375.62 1779.14 1375.62ZM1779.14 1351.76C1778.17 1351.76 1777.27 1351.93 1776.44 1352.28C1775.64 1352.62 1774.95 1353.11 1774.36 1353.73C1773.8 1354.36 1773.37 1355.1 1773.06 1355.97C1772.74 1356.83 1772.59 1357.79 1772.59 1358.83V1359.19H1785.17V1358.67C1785.17 1356.59 1784.64 1354.93 1783.56 1353.68C1782.49 1352.4 1781.01 1351.76 1779.14 1351.76Z" fill="white"/>
<path d="M1522.42 1473L1519.42 1463.04H1505.44L1502.44 1473H1493.2L1507 1431.12H1518.28L1531.9 1473H1522.42ZM1512.52 1439.4H1512.22L1507.6 1455.3H1517.2L1512.52 1439.4ZM1537.69 1473V1431.12H1557.49C1559.45 1431.12 1561.21 1431.46 1562.77 1432.14C1564.33 1432.78 1565.65 1433.68 1566.73 1434.84C1567.85 1436 1568.71 1437.42 1569.31 1439.1C1569.91 1440.74 1570.21 1442.54 1570.21 1444.5C1570.21 1446.5 1569.91 1448.32 1569.31 1449.96C1568.71 1451.6 1567.85 1453 1566.73 1454.16C1565.65 1455.32 1564.33 1456.24 1562.77 1456.92C1561.21 1457.56 1559.45 1457.88 1557.49 1457.88H1546.81V1473H1537.69ZM1546.81 1449.96H1556.41C1557.77 1449.96 1558.83 1449.62 1559.59 1448.94C1560.39 1448.22 1560.79 1447.18 1560.79 1445.82V1443.18C1560.79 1441.82 1560.39 1440.8 1559.59 1440.12C1558.83 1439.4 1557.77 1439.04 1556.41 1439.04H1546.81V1449.96ZM1575.45 1473V1465.74H1580.85V1438.38H1575.45V1431.12H1595.37V1438.38H1589.97V1465.74H1595.37V1473H1575.45Z" fill="#FF9A00"/>
<path d="M1637.83 733L1629.25 696.704H1635.23L1638.92 714.176L1641.47 726.24H1641.62L1644.54 714.176L1648.85 696.704H1655.4L1659.67 714.176L1662.53 726.188H1662.68L1665.34 714.176L1669.13 696.704H1674.9L1665.96 733H1659.36L1654.73 714.228L1652.02 703.204H1651.92L1649.16 714.228L1644.43 733H1637.83ZM1689.84 733.624C1687.97 733.624 1686.25 733.295 1684.69 732.636C1683.17 731.977 1681.87 731.041 1680.79 729.828C1679.72 728.58 1678.89 727.089 1678.3 725.356C1677.71 723.588 1677.41 721.629 1677.41 719.48C1677.41 717.331 1677.71 715.389 1678.3 713.656C1678.89 711.888 1679.72 710.397 1680.79 709.184C1681.87 707.936 1683.17 706.983 1684.69 706.324C1686.25 705.665 1687.97 705.336 1689.84 705.336C1691.71 705.336 1693.41 705.665 1694.94 706.324C1696.5 706.983 1697.81 707.936 1698.89 709.184C1699.96 710.397 1700.79 711.888 1701.38 713.656C1701.97 715.389 1702.27 717.331 1702.27 719.48C1702.27 721.629 1701.97 723.588 1701.38 725.356C1700.79 727.089 1699.96 728.58 1698.89 729.828C1697.81 731.041 1696.5 731.977 1694.94 732.636C1693.41 733.295 1691.71 733.624 1689.84 733.624ZM1689.84 728.944C1691.78 728.944 1693.34 728.355 1694.52 727.176C1695.7 725.963 1696.29 724.16 1696.29 721.768V717.192C1696.29 714.8 1695.7 713.015 1694.52 711.836C1693.34 710.623 1691.78 710.016 1689.84 710.016C1687.9 710.016 1686.34 710.623 1685.16 711.836C1683.98 713.015 1683.39 714.8 1683.39 717.192V721.768C1683.39 724.16 1683.98 725.963 1685.16 727.176C1686.34 728.355 1687.9 728.944 1689.84 728.944ZM1708.58 733V705.96H1714.25V711.16H1714.51C1714.89 709.773 1715.69 708.56 1716.9 707.52C1718.12 706.48 1719.8 705.96 1721.95 705.96H1723.46V711.42H1721.22C1718.97 711.42 1717.23 711.784 1716.02 712.512C1714.84 713.24 1714.25 714.315 1714.25 715.736V733H1708.58ZM1734.26 733C1732.32 733 1730.86 732.515 1729.89 731.544C1728.96 730.539 1728.49 729.152 1728.49 727.384V694.52H1734.16V728.372H1737.9V733H1734.26ZM1760.32 728.528H1760.06C1759.47 730.123 1758.5 731.371 1757.15 732.272C1755.83 733.173 1754.27 733.624 1752.47 733.624C1749.04 733.624 1746.39 732.393 1744.51 729.932C1742.64 727.436 1741.71 723.952 1741.71 719.48C1741.71 715.008 1742.64 711.541 1744.51 709.08C1746.39 706.584 1749.04 705.336 1752.47 705.336C1754.27 705.336 1755.83 705.787 1757.15 706.688C1758.5 707.555 1759.47 708.803 1760.06 710.432H1760.32V694.52H1765.99V733H1760.32V728.528ZM1754.19 728.736C1755.92 728.736 1757.38 728.32 1758.55 727.488C1759.73 726.621 1760.32 725.495 1760.32 724.108V714.852C1760.32 713.465 1759.73 712.356 1758.55 711.524C1757.38 710.657 1755.92 710.224 1754.19 710.224C1752.21 710.224 1750.63 710.865 1749.45 712.148C1748.28 713.396 1747.69 715.06 1747.69 717.14V721.82C1747.69 723.9 1748.28 725.581 1749.45 726.864C1750.63 728.112 1752.21 728.736 1754.19 728.736ZM1810.46 733H1785.81V727.384L1797.4 717.036C1799.24 715.372 1800.65 713.795 1801.62 712.304C1802.62 710.779 1803.12 709.184 1803.12 707.52V706.844C1803.12 705.076 1802.59 703.689 1801.51 702.684C1800.47 701.679 1799.05 701.176 1797.25 701.176C1796.24 701.176 1795.36 701.332 1794.6 701.644C1793.87 701.921 1793.23 702.32 1792.67 702.84C1792.12 703.36 1791.65 703.967 1791.27 704.66C1790.92 705.353 1790.64 706.099 1790.44 706.896L1785.29 704.92C1785.67 703.776 1786.19 702.684 1786.85 701.644C1787.51 700.569 1788.34 699.616 1789.34 698.784C1790.35 697.952 1791.53 697.293 1792.88 696.808C1794.27 696.323 1795.88 696.08 1797.72 696.08C1799.55 696.08 1801.2 696.357 1802.66 696.912C1804.11 697.432 1805.33 698.177 1806.3 699.148C1807.3 700.084 1808.06 701.211 1808.58 702.528C1809.1 703.845 1809.36 705.284 1809.36 706.844C1809.36 708.3 1809.14 709.652 1808.69 710.9C1808.24 712.148 1807.61 713.327 1806.82 714.436C1806.02 715.545 1805.08 716.603 1804.01 717.608C1802.97 718.613 1801.86 719.636 1800.68 720.676L1792.15 728.008H1810.46V733Z" fill="white"/>
<path d="M973.096 334.624C968.347 334.624 964.62 333.029 961.916 329.84C959.212 326.616 957.86 321.953 957.86 315.852C957.86 312.801 958.207 310.115 958.9 307.792C959.593 305.469 960.599 303.511 961.916 301.916C963.233 300.321 964.828 299.125 966.7 298.328C968.607 297.496 970.739 297.08 973.096 297.08C976.251 297.08 978.885 297.773 981 299.16C983.149 300.547 984.831 302.592 986.044 305.296L981.104 308C980.48 306.267 979.509 304.897 978.192 303.892C976.909 302.852 975.211 302.332 973.096 302.332C970.288 302.332 968.087 303.285 966.492 305.192C964.897 307.099 964.1 309.733 964.1 313.096V318.608C964.1 321.971 964.897 324.605 966.492 326.512C968.087 328.419 970.288 329.372 973.096 329.372C975.28 329.372 977.048 328.817 978.4 327.708C979.787 326.564 980.809 325.108 981.468 323.34L986.2 326.2C984.987 328.835 983.288 330.897 981.104 332.388C978.92 333.879 976.251 334.624 973.096 334.624ZM997.785 334C995.844 334 994.388 333.515 993.417 332.544C992.481 331.539 992.013 330.152 992.013 328.384V295.52H997.681V329.372H1001.43V334H997.785ZM1009.7 302.124C1008.52 302.124 1007.66 301.847 1007.1 301.292C1006.58 300.737 1006.32 300.027 1006.32 299.16V298.276C1006.32 297.409 1006.58 296.699 1007.1 296.144C1007.66 295.589 1008.52 295.312 1009.7 295.312C1010.88 295.312 1011.73 295.589 1012.25 296.144C1012.77 296.699 1013.03 297.409 1013.03 298.276V299.16C1013.03 300.027 1012.77 300.737 1012.25 301.292C1011.73 301.847 1010.88 302.124 1009.7 302.124ZM1006.84 306.96H1012.51V334H1006.84V306.96ZM1031.21 334.624C1029.27 334.624 1027.54 334.295 1026.01 333.636C1024.49 332.977 1023.19 332.041 1022.11 330.828C1021.04 329.58 1020.2 328.089 1019.61 326.356C1019.06 324.588 1018.78 322.629 1018.78 320.48C1018.78 318.331 1019.06 316.389 1019.61 314.656C1020.2 312.888 1021.04 311.397 1022.11 310.184C1023.19 308.936 1024.49 307.983 1026.01 307.324C1027.54 306.665 1029.27 306.336 1031.21 306.336C1033.19 306.336 1034.92 306.683 1036.41 307.376C1037.94 308.069 1039.2 309.04 1040.21 310.288C1041.21 311.501 1041.96 312.923 1042.44 314.552C1042.96 316.181 1043.22 317.932 1043.22 319.804V321.936H1024.66V322.82C1024.66 324.9 1025.27 326.616 1026.48 327.968C1027.73 329.285 1029.49 329.944 1031.78 329.944C1033.45 329.944 1034.85 329.58 1035.99 328.852C1037.14 328.124 1038.11 327.136 1038.91 325.888L1042.23 329.164C1041.23 330.828 1039.77 332.163 1037.87 333.168C1035.96 334.139 1033.74 334.624 1031.21 334.624ZM1031.21 310.756C1030.24 310.756 1029.34 310.929 1028.51 311.276C1027.71 311.623 1027.02 312.108 1026.43 312.732C1025.87 313.356 1025.44 314.101 1025.13 314.968C1024.81 315.835 1024.66 316.788 1024.66 317.828V318.192H1037.24V317.672C1037.24 315.592 1036.71 313.928 1035.63 312.68C1034.56 311.397 1033.08 310.756 1031.21 310.756ZM1049.5 334V306.96H1055.17V311.432H1055.43C1056.01 309.976 1056.9 308.763 1058.08 307.792C1059.29 306.821 1060.94 306.336 1063.02 306.336C1065.79 306.336 1067.94 307.255 1069.47 309.092C1071.03 310.895 1071.81 313.477 1071.81 316.84V334H1066.14V317.568C1066.14 313.339 1064.44 311.224 1061.04 311.224C1060.31 311.224 1059.59 311.328 1058.86 311.536C1058.16 311.709 1057.54 311.987 1056.99 312.368C1056.43 312.749 1055.98 313.235 1055.63 313.824C1055.32 314.413 1055.17 315.107 1055.17 315.904V334H1049.5ZM1087.15 334C1085.17 334 1083.68 333.497 1082.68 332.492C1081.67 331.452 1081.17 329.996 1081.17 328.124V311.588H1076.96V306.96H1079.25C1080.18 306.96 1080.82 306.752 1081.17 306.336C1081.55 305.92 1081.74 305.244 1081.74 304.308V299.576H1086.84V306.96H1092.51V311.588H1086.84V329.372H1092.09V334H1087.15ZM1135.02 334H1110.37V328.384L1121.97 318.036C1123.8 316.372 1125.21 314.795 1126.18 313.304C1127.18 311.779 1127.69 310.184 1127.69 308.52V307.844C1127.69 306.076 1127.15 304.689 1126.07 303.684C1125.03 302.679 1123.61 302.176 1121.81 302.176C1120.81 302.176 1119.92 302.332 1119.16 302.644C1118.43 302.921 1117.79 303.32 1117.23 303.84C1116.68 304.36 1116.21 304.967 1115.83 305.66C1115.48 306.353 1115.21 307.099 1115 307.896L1109.85 305.92C1110.23 304.776 1110.75 303.684 1111.41 302.644C1112.07 301.569 1112.9 300.616 1113.91 299.784C1114.91 298.952 1116.09 298.293 1117.44 297.808C1118.83 297.323 1120.44 297.08 1122.28 297.08C1124.12 297.08 1125.76 297.357 1127.22 297.912C1128.67 298.432 1129.89 299.177 1130.86 300.148C1131.86 301.084 1132.63 302.211 1133.15 303.528C1133.67 304.845 1133.93 306.284 1133.93 307.844C1133.93 309.3 1133.7 310.652 1133.25 311.9C1132.8 313.148 1132.18 314.327 1131.38 315.436C1130.58 316.545 1129.65 317.603 1128.57 318.608C1127.53 319.613 1126.42 320.636 1125.24 321.676L1116.71 329.008H1135.02V334Z" fill="white"/>
<path d="M1334.1 334.624C1329.35 334.624 1325.62 333.029 1322.92 329.84C1320.21 326.616 1318.86 321.953 1318.86 315.852C1318.86 312.801 1319.21 310.115 1319.9 307.792C1320.59 305.469 1321.6 303.511 1322.92 301.916C1324.23 300.321 1325.83 299.125 1327.7 298.328C1329.61 297.496 1331.74 297.08 1334.1 297.08C1337.25 297.08 1339.89 297.773 1342 299.16C1344.15 300.547 1345.83 302.592 1347.04 305.296L1342.1 308C1341.48 306.267 1340.51 304.897 1339.19 303.892C1337.91 302.852 1336.21 302.332 1334.1 302.332C1331.29 302.332 1329.09 303.285 1327.49 305.192C1325.9 307.099 1325.1 309.733 1325.1 313.096V318.608C1325.1 321.971 1325.9 324.605 1327.49 326.512C1329.09 328.419 1331.29 329.372 1334.1 329.372C1336.28 329.372 1338.05 328.817 1339.4 327.708C1340.79 326.564 1341.81 325.108 1342.47 323.34L1347.2 326.2C1345.99 328.835 1344.29 330.897 1342.1 332.388C1339.92 333.879 1337.25 334.624 1334.1 334.624ZM1358.79 334C1356.84 334 1355.39 333.515 1354.42 332.544C1353.48 331.539 1353.01 330.152 1353.01 328.384V295.52H1358.68V329.372H1362.43V334H1358.79ZM1370.7 302.124C1369.52 302.124 1368.66 301.847 1368.1 301.292C1367.58 300.737 1367.32 300.027 1367.32 299.16V298.276C1367.32 297.409 1367.58 296.699 1368.1 296.144C1368.66 295.589 1369.52 295.312 1370.7 295.312C1371.88 295.312 1372.73 295.589 1373.25 296.144C1373.77 296.699 1374.03 297.409 1374.03 298.276V299.16C1374.03 300.027 1373.77 300.737 1373.25 301.292C1372.73 301.847 1371.88 302.124 1370.7 302.124ZM1367.84 306.96H1373.51V334H1367.84V306.96ZM1392.21 334.624C1390.27 334.624 1388.54 334.295 1387.01 333.636C1385.49 332.977 1384.19 332.041 1383.11 330.828C1382.04 329.58 1381.2 328.089 1380.61 326.356C1380.06 324.588 1379.78 322.629 1379.78 320.48C1379.78 318.331 1380.06 316.389 1380.61 314.656C1381.2 312.888 1382.04 311.397 1383.11 310.184C1384.19 308.936 1385.49 307.983 1387.01 307.324C1388.54 306.665 1390.27 306.336 1392.21 306.336C1394.19 306.336 1395.92 306.683 1397.41 307.376C1398.94 308.069 1400.2 309.04 1401.21 310.288C1402.21 311.501 1402.96 312.923 1403.44 314.552C1403.96 316.181 1404.22 317.932 1404.22 319.804V321.936H1385.66V322.82C1385.66 324.9 1386.27 326.616 1387.48 327.968C1388.73 329.285 1390.49 329.944 1392.78 329.944C1394.45 329.944 1395.85 329.58 1396.99 328.852C1398.14 328.124 1399.11 327.136 1399.91 325.888L1403.23 329.164C1402.23 330.828 1400.77 332.163 1398.87 333.168C1396.96 334.139 1394.74 334.624 1392.21 334.624ZM1392.21 310.756C1391.24 310.756 1390.34 310.929 1389.51 311.276C1388.71 311.623 1388.02 312.108 1387.43 312.732C1386.87 313.356 1386.44 314.101 1386.13 314.968C1385.81 315.835 1385.66 316.788 1385.66 317.828V318.192H1398.24V317.672C1398.24 315.592 1397.71 313.928 1396.63 312.68C1395.56 311.397 1394.08 310.756 1392.21 310.756ZM1410.5 334V306.96H1416.17V311.432H1416.43C1417.01 309.976 1417.9 308.763 1419.08 307.792C1420.29 306.821 1421.94 306.336 1424.02 306.336C1426.79 306.336 1428.94 307.255 1430.47 309.092C1432.03 310.895 1432.81 313.477 1432.81 316.84V334H1427.14V317.568C1427.14 313.339 1425.44 311.224 1422.04 311.224C1421.31 311.224 1420.59 311.328 1419.86 311.536C1419.16 311.709 1418.54 311.987 1417.99 312.368C1417.43 312.749 1416.98 313.235 1416.63 313.824C1416.32 314.413 1416.17 315.107 1416.17 315.904V334H1410.5ZM1448.15 334C1446.17 334 1444.68 333.497 1443.68 332.492C1442.67 331.452 1442.17 329.996 1442.17 328.124V311.588H1437.96V306.96H1440.25C1441.18 306.96 1441.82 306.752 1442.17 306.336C1442.55 305.92 1442.74 305.244 1442.74 304.308V299.576H1447.84V306.96H1453.51V311.588H1447.84V329.372H1453.09V334H1448.15ZM1481.51 312.628C1483.76 312.628 1485.43 312.16 1486.5 311.224C1487.58 310.253 1488.11 309.023 1488.11 307.532V307.168C1488.11 305.504 1487.59 304.239 1486.55 303.372C1485.51 302.471 1484.11 302.02 1482.34 302.02C1480.61 302.02 1479.14 302.419 1477.92 303.216C1476.71 303.979 1475.69 305.053 1474.85 306.44L1470.95 303.06C1471.51 302.263 1472.13 301.5 1472.83 300.772C1473.52 300.044 1474.33 299.42 1475.27 298.9C1476.21 298.345 1477.26 297.912 1478.44 297.6C1479.62 297.253 1480.97 297.08 1482.5 297.08C1484.2 297.08 1485.77 297.288 1487.23 297.704C1488.69 298.12 1489.93 298.744 1490.97 299.576C1492.01 300.373 1492.83 301.361 1493.42 302.54C1494.01 303.684 1494.3 304.984 1494.3 306.44C1494.3 307.584 1494.11 308.624 1493.73 309.56C1493.38 310.496 1492.88 311.328 1492.22 312.056C1491.6 312.749 1490.85 313.321 1489.99 313.772C1489.15 314.223 1488.27 314.552 1487.33 314.76V315.02C1488.37 315.228 1489.35 315.575 1490.25 316.06C1491.18 316.511 1492 317.117 1492.69 317.88C1493.38 318.608 1493.92 319.492 1494.3 320.532C1494.72 321.537 1494.93 322.699 1494.93 324.016C1494.93 325.611 1494.61 327.067 1493.99 328.384C1493.37 329.667 1492.48 330.776 1491.34 331.712C1490.23 332.648 1488.88 333.376 1487.28 333.896C1485.69 334.381 1483.92 334.624 1481.98 334.624C1480.28 334.624 1478.79 334.433 1477.51 334.052C1476.22 333.705 1475.08 333.237 1474.07 332.648C1473.1 332.024 1472.24 331.331 1471.47 330.568C1470.75 329.771 1470.11 328.956 1469.55 328.124L1473.87 324.744C1474.32 325.472 1474.79 326.148 1475.27 326.772C1475.79 327.361 1476.36 327.881 1476.99 328.332C1477.65 328.748 1478.37 329.077 1479.17 329.32C1480 329.563 1480.94 329.684 1481.98 329.684C1484.2 329.684 1485.9 329.164 1487.07 328.124C1488.25 327.049 1488.84 325.576 1488.84 323.704V323.34C1488.84 321.468 1488.22 320.047 1486.97 319.076C1485.72 318.105 1483.95 317.62 1481.67 317.62H1477.82V312.628H1481.51Z" fill="white"/>
<path d="M676.156 368.656C676.156 366.709 676.733 364.806 677.815 363.187C678.897 361.569 680.434 360.307 682.233 359.562C684.032 358.817 686.011 358.622 687.92 359.002C689.83 359.381 691.584 360.319 692.96 361.696C694.337 363.072 695.275 364.826 695.654 366.736C696.034 368.645 695.839 370.625 695.094 372.423C694.349 374.222 693.088 375.759 691.469 376.841C689.85 377.923 687.947 378.5 686 378.5C683.389 378.5 680.885 377.463 679.039 375.617C677.193 373.771 676.156 371.267 676.156 368.656ZM716.733 405.493L700.825 387.458C699.902 386.41 698.765 385.571 697.493 384.997C696.22 384.422 694.839 384.125 693.442 384.125H678.557C677.161 384.125 675.78 384.422 674.507 384.997C673.234 385.571 672.098 386.41 671.174 387.458L655.266 405.493C654.233 406.55 653.658 407.971 653.664 409.449C653.67 410.927 654.258 412.343 655.3 413.391C656.342 414.439 657.755 415.034 659.233 415.049C660.71 415.064 662.135 414.497 663.198 413.47L672.289 406.168L665.363 432.493C664.761 433.846 664.716 435.381 665.238 436.767C665.761 438.152 666.809 439.276 668.155 439.894C669.5 440.512 671.035 440.574 672.427 440.067C673.818 439.56 674.954 438.525 675.587 437.186L686 419.281L696.399 437.211C697.032 438.55 698.167 439.585 699.559 440.092C700.95 440.599 702.485 440.536 703.831 439.918C705.177 439.301 706.225 438.177 706.747 436.792C707.27 435.406 707.225 433.87 706.623 432.518L699.711 406.168L708.816 413.47C709.879 414.497 711.303 415.064 712.781 415.049C714.259 415.034 715.672 414.439 716.714 413.391C717.756 412.343 718.343 410.927 718.35 409.449C718.356 407.971 717.781 406.55 716.748 405.493H716.733Z" fill="#26A1FB"/>
<path d="M373 763.438C365.769 763.438 358.7 765.582 352.687 769.599C346.674 773.617 341.988 779.327 339.221 786.008C336.453 792.689 335.729 800.041 337.14 807.133C338.551 814.225 342.033 820.74 347.146 825.854C352.26 830.967 358.775 834.449 365.867 835.86C372.959 837.271 380.311 836.547 386.992 833.779C393.673 831.012 399.383 826.326 403.401 820.313C407.418 814.3 409.563 807.231 409.563 800C409.552 790.306 405.697 781.012 398.842 774.158C391.988 767.303 382.694 763.448 373 763.438ZM349.899 820.556L350.785 819.976C351.558 819.465 352.194 818.772 352.635 817.957C353.076 817.142 353.309 816.23 353.313 815.304L353.386 802.566L360.755 791.562C360.791 791.59 360.829 791.616 360.868 791.64L367.783 796.164C368.942 796.982 370.368 797.33 371.773 797.138L382.844 795.637C384.209 795.455 385.46 794.778 386.359 793.735L394.154 784.679C395.025 783.658 395.503 782.358 395.5 781.016V778.79C399.304 782.815 401.956 787.788 403.179 793.19C404.402 798.591 404.15 804.222 402.45 809.492L396.776 804.303C395.987 803.579 395.008 803.095 393.954 802.908C392.9 802.722 391.814 802.84 390.824 803.248L380.116 807.696C379.22 808.072 378.437 808.672 377.841 809.438C377.245 810.205 376.856 811.112 376.713 812.073L375.872 817.764C375.67 819.134 375.981 820.531 376.744 821.686C377.508 822.841 378.671 823.674 380.01 824.026L387.555 826.016L388.384 826.849C382.224 830.384 375.033 831.688 368.023 830.542C361.014 829.395 354.613 825.869 349.899 820.556Z" fill="#3AF1C6"/>
<path d="M1037.16 368.656C1037.16 366.709 1037.73 364.806 1038.82 363.187C1039.9 361.569 1041.43 360.307 1043.23 359.562C1045.03 358.817 1047.01 358.622 1048.92 359.002C1050.83 359.381 1052.58 360.319 1053.96 361.696C1055.34 363.072 1056.27 364.826 1056.65 366.736C1057.03 368.645 1056.84 370.625 1056.09 372.423C1055.35 374.222 1054.09 375.759 1052.47 376.841C1050.85 377.923 1048.95 378.5 1047 378.5C1044.39 378.5 1041.89 377.463 1040.04 375.617C1038.19 373.771 1037.16 371.267 1037.16 368.656ZM1077.73 405.493L1061.83 387.458C1060.9 386.41 1059.77 385.571 1058.49 384.997C1057.22 384.422 1055.84 384.125 1054.44 384.125H1039.56C1038.16 384.125 1036.78 384.422 1035.51 384.997C1034.23 385.571 1033.1 386.41 1032.17 387.458L1016.27 405.493C1015.23 406.55 1014.66 407.971 1014.66 409.449C1014.67 410.927 1015.26 412.343 1016.3 413.391C1017.34 414.439 1018.75 415.034 1020.23 415.049C1021.71 415.064 1023.13 414.497 1024.2 413.47L1033.29 406.168L1026.36 432.493C1025.76 433.846 1025.72 435.381 1026.24 436.767C1026.76 438.152 1027.81 439.276 1029.15 439.894C1030.5 440.512 1032.04 440.574 1033.43 440.067C1034.82 439.56 1035.95 438.525 1036.59 437.186L1047 419.281L1057.4 437.211C1058.03 438.55 1059.17 439.585 1060.56 440.092C1061.95 440.599 1063.49 440.536 1064.83 439.918C1066.18 439.301 1067.22 438.177 1067.75 436.792C1068.27 435.406 1068.23 433.87 1067.62 432.518L1060.71 406.168L1069.82 413.47C1070.88 414.497 1072.3 415.064 1073.78 415.049C1075.26 415.034 1076.67 414.439 1077.71 413.391C1078.76 412.343 1079.34 410.927 1079.35 409.449C1079.36 407.971 1078.78 406.55 1077.75 405.493H1077.73Z" fill="#26A1FB"/>
<path d="M1398.16 368.656C1398.16 366.709 1398.73 364.806 1399.82 363.187C1400.9 361.569 1402.43 360.307 1404.23 359.562C1406.03 358.817 1408.01 358.622 1409.92 359.002C1411.83 359.381 1413.58 360.319 1414.96 361.696C1416.34 363.072 1417.27 364.826 1417.65 366.736C1418.03 368.645 1417.84 370.625 1417.09 372.423C1416.35 374.222 1415.09 375.759 1413.47 376.841C1411.85 377.923 1409.95 378.5 1408 378.5C1405.39 378.5 1402.89 377.463 1401.04 375.617C1399.19 373.771 1398.16 371.267 1398.16 368.656ZM1438.73 405.493L1422.83 387.458C1421.9 386.41 1420.77 385.571 1419.49 384.997C1418.22 384.422 1416.84 384.125 1415.44 384.125H1400.56C1399.16 384.125 1397.78 384.422 1396.51 384.997C1395.23 385.571 1394.1 386.41 1393.17 387.458L1377.27 405.493C1376.23 406.55 1375.66 407.971 1375.66 409.449C1375.67 410.927 1376.26 412.343 1377.3 413.391C1378.34 414.439 1379.75 415.034 1381.23 415.049C1382.71 415.064 1384.13 414.497 1385.2 413.47L1394.29 406.168L1387.36 432.493C1386.76 433.846 1386.72 435.381 1387.24 436.767C1387.76 438.152 1388.81 439.276 1390.15 439.894C1391.5 440.512 1393.04 440.574 1394.43 440.067C1395.82 439.56 1396.95 438.525 1397.59 437.186L1408 419.281L1418.4 437.211C1419.03 438.55 1420.17 439.585 1421.56 440.092C1422.95 440.599 1424.49 440.536 1425.83 439.918C1427.18 439.301 1428.22 438.177 1428.75 436.792C1429.27 435.406 1429.23 433.87 1428.62 432.518L1421.71 406.168L1430.82 413.47C1431.88 414.497 1433.3 415.064 1434.78 415.049C1436.26 415.034 1437.67 414.439 1438.71 413.391C1439.76 412.343 1440.34 410.927 1440.35 409.449C1440.36 407.971 1439.78 406.55 1438.75 405.493H1438.73Z" fill="#26A1FB"/>
<path d="M1721 763.438C1713.77 763.438 1706.7 765.582 1700.69 769.599C1694.67 773.617 1689.99 779.327 1687.22 786.008C1684.45 792.689 1683.73 800.041 1685.14 807.133C1686.55 814.225 1690.03 820.74 1695.15 825.854C1700.26 830.967 1706.77 834.449 1713.87 835.86C1720.96 837.271 1728.31 836.547 1734.99 833.779C1741.67 831.012 1747.38 826.326 1751.4 820.313C1755.42 814.3 1757.56 807.231 1757.56 800C1757.55 790.306 1753.7 781.012 1746.84 774.158C1739.99 767.303 1730.69 763.448 1721 763.438ZM1697.9 820.556L1698.78 819.976C1699.56 819.465 1700.19 818.772 1700.63 817.957C1701.08 817.142 1701.31 816.23 1701.31 815.304L1701.39 802.566L1708.76 791.562C1708.79 791.59 1708.83 791.616 1708.87 791.64L1715.78 796.164C1716.94 796.982 1718.37 797.33 1719.77 797.138L1730.84 795.637C1732.21 795.455 1733.46 794.778 1734.36 793.735L1742.15 784.679C1743.03 783.658 1743.5 782.358 1743.5 781.016V778.79C1747.3 782.815 1749.96 787.788 1751.18 793.19C1752.4 798.591 1752.15 804.222 1750.45 809.492L1744.78 804.303C1743.99 803.579 1743.01 803.095 1741.95 802.908C1740.9 802.722 1739.81 802.84 1738.82 803.248L1728.12 807.696C1727.22 808.072 1726.44 808.672 1725.84 809.438C1725.24 810.205 1724.86 811.112 1724.71 812.073L1723.87 817.764C1723.67 819.134 1723.98 820.531 1724.74 821.686C1725.51 822.841 1726.67 823.674 1728.01 824.026L1735.55 826.016L1736.38 826.849C1730.22 830.384 1723.03 831.688 1716.02 830.542C1709.01 829.395 1702.61 825.869 1697.9 820.556Z" fill="#3AF1C6"/>
<rect x="802" y="885" width="490" height="244" fill="#5124B3"/>
<path d="M894.24 951.232H893.98L891.12 957.108L883.164 971.616L875.208 957.108L872.348 951.232H872.088V979H866.472V942.704H873.44L883.164 961.164H883.476L893.2 942.704H899.856V979H894.24V951.232ZM936.592 951.232H936.332L933.472 957.108L925.516 971.616L917.56 957.108L914.7 951.232H914.44V979H908.824V942.704H915.792L925.516 961.164H925.828L935.552 942.704H942.208V979H936.592V951.232ZM951.175 979V942.704H957.051V973.8H971.819V979H951.175ZM990.124 942.704H1002.97C1005.29 942.704 1007.39 943.085 1009.26 943.848C1011.17 944.611 1012.78 945.755 1014.1 947.28C1015.45 948.771 1016.49 950.66 1017.22 952.948C1017.94 955.201 1018.31 957.836 1018.31 960.852C1018.31 963.868 1017.94 966.52 1017.22 968.808C1016.49 971.061 1015.45 972.951 1014.1 974.476C1012.78 975.967 1011.17 977.093 1009.26 977.856C1007.39 978.619 1005.29 979 1002.97 979H990.124V942.704ZM1002.97 973.8C1005.67 973.8 1007.86 972.951 1009.52 971.252C1011.18 969.553 1012.02 967.057 1012.02 963.764V957.94C1012.02 954.647 1011.18 952.151 1009.52 950.452C1007.86 948.753 1005.67 947.904 1002.97 947.904H996V973.8H1002.97ZM1035.81 979.624C1033.94 979.624 1032.22 979.295 1030.66 978.636C1029.14 977.977 1027.84 977.041 1026.76 975.828C1025.69 974.58 1024.86 973.089 1024.27 971.356C1023.68 969.588 1023.38 967.629 1023.38 965.48C1023.38 963.331 1023.68 961.389 1024.27 959.656C1024.86 957.888 1025.69 956.397 1026.76 955.184C1027.84 953.936 1029.14 952.983 1030.66 952.324C1032.22 951.665 1033.94 951.336 1035.81 951.336C1037.68 951.336 1039.38 951.665 1040.91 952.324C1042.47 952.983 1043.79 953.936 1044.86 955.184C1045.94 956.397 1046.77 957.888 1047.36 959.656C1047.95 961.389 1048.24 963.331 1048.24 965.48C1048.24 967.629 1047.95 969.588 1047.36 971.356C1046.77 973.089 1045.94 974.58 1044.86 975.828C1043.79 977.041 1042.47 977.977 1040.91 978.636C1039.38 979.295 1037.68 979.624 1035.81 979.624ZM1035.81 974.944C1037.75 974.944 1039.31 974.355 1040.49 973.176C1041.67 971.963 1042.26 970.16 1042.26 967.768V963.192C1042.26 960.8 1041.67 959.015 1040.49 957.836C1039.31 956.623 1037.75 956.016 1035.81 956.016C1033.87 956.016 1032.31 956.623 1031.13 957.836C1029.95 959.015 1029.36 960.8 1029.36 963.192V967.768C1029.36 970.16 1029.95 971.963 1031.13 973.176C1032.31 974.355 1033.87 974.944 1035.81 974.944ZM1065.01 979.624C1063.07 979.624 1061.33 979.295 1059.81 978.636C1058.28 977.977 1057 977.041 1055.96 975.828C1054.92 974.58 1054.12 973.089 1053.57 971.356C1053.01 969.588 1052.74 967.629 1052.74 965.48C1052.74 963.331 1053.01 961.389 1053.57 959.656C1054.12 957.888 1054.92 956.397 1055.96 955.184C1057 953.936 1058.28 952.983 1059.81 952.324C1061.33 951.665 1063.07 951.336 1065.01 951.336C1067.71 951.336 1069.93 951.943 1071.66 953.156C1073.4 954.369 1074.66 955.981 1075.46 957.992L1070.78 960.176C1070.4 958.928 1069.72 957.94 1068.75 957.212C1067.82 956.449 1066.57 956.068 1065.01 956.068C1062.93 956.068 1061.35 956.727 1060.28 958.044C1059.24 959.327 1058.72 961.008 1058.72 963.088V967.924C1058.72 970.004 1059.24 971.703 1060.28 973.02C1061.35 974.303 1062.93 974.944 1065.01 974.944C1066.67 974.944 1067.99 974.545 1068.96 973.748C1069.97 972.916 1070.76 971.824 1071.35 970.472L1075.67 972.76C1074.77 974.979 1073.41 976.677 1071.61 977.856C1069.81 979.035 1067.61 979.624 1065.01 979.624ZM1097.44 974.528H1097.24C1096.99 975.187 1096.66 975.828 1096.25 976.452C1095.87 977.076 1095.36 977.631 1094.74 978.116C1094.15 978.567 1093.42 978.931 1092.56 979.208C1091.72 979.485 1090.75 979.624 1089.64 979.624C1086.84 979.624 1084.65 978.723 1083.09 976.92C1081.57 975.117 1080.8 972.535 1080.8 969.172V951.96H1086.47V968.444C1086.47 972.639 1088.21 974.736 1091.67 974.736C1092.4 974.736 1093.11 974.649 1093.8 974.476C1094.5 974.268 1095.1 973.973 1095.62 973.592C1096.18 973.211 1096.61 972.725 1096.92 972.136C1097.27 971.547 1097.44 970.853 1097.44 970.056V951.96H1103.11V979H1097.44V974.528ZM1111.23 979V951.96H1116.9V956.432H1117.16C1117.43 955.739 1117.76 955.08 1118.14 954.456C1118.56 953.832 1119.05 953.295 1119.6 952.844C1120.19 952.359 1120.87 951.995 1121.63 951.752C1122.43 951.475 1123.34 951.336 1124.38 951.336C1126.22 951.336 1127.85 951.787 1129.27 952.688C1130.69 953.589 1131.73 954.976 1132.39 956.848H1132.55C1133.03 955.323 1133.97 954.023 1135.36 952.948C1136.74 951.873 1138.53 951.336 1140.71 951.336C1143.42 951.336 1145.51 952.255 1147 954.092C1148.49 955.895 1149.24 958.477 1149.24 961.84V979H1143.57V962.516C1143.57 960.436 1143.17 958.876 1142.38 957.836C1141.58 956.761 1140.31 956.224 1138.58 956.224C1137.85 956.224 1137.16 956.328 1136.5 956.536C1135.84 956.709 1135.25 956.987 1134.73 957.368C1134.25 957.749 1133.85 958.235 1133.54 958.824C1133.22 959.413 1133.07 960.089 1133.07 960.852V979H1127.4V962.516C1127.4 958.321 1125.75 956.224 1122.46 956.224C1121.77 956.224 1121.07 956.328 1120.38 956.536C1119.72 956.709 1119.13 956.987 1118.61 957.368C1118.09 957.749 1117.68 958.235 1117.36 958.824C1117.05 959.413 1116.9 960.089 1116.9 960.852V979H1111.23ZM1167.69 979.624C1165.75 979.624 1164.02 979.295 1162.49 978.636C1160.97 977.977 1159.67 977.041 1158.59 975.828C1157.52 974.58 1156.68 973.089 1156.1 971.356C1155.54 969.588 1155.26 967.629 1155.26 965.48C1155.26 963.331 1155.54 961.389 1156.1 959.656C1156.68 957.888 1157.52 956.397 1158.59 955.184C1159.67 953.936 1160.97 952.983 1162.49 952.324C1164.02 951.665 1165.75 951.336 1167.69 951.336C1169.67 951.336 1171.4 951.683 1172.89 952.376C1174.42 953.069 1175.68 954.04 1176.69 955.288C1177.69 956.501 1178.44 957.923 1178.92 959.552C1179.44 961.181 1179.7 962.932 1179.7 964.804V966.936H1161.14V967.82C1161.14 969.9 1161.75 971.616 1162.96 972.968C1164.21 974.285 1165.98 974.944 1168.26 974.944C1169.93 974.944 1171.33 974.58 1172.48 973.852C1173.62 973.124 1174.59 972.136 1175.39 970.888L1178.72 974.164C1177.71 975.828 1176.25 977.163 1174.35 978.168C1172.44 979.139 1170.22 979.624 1167.69 979.624ZM1167.69 955.756C1166.72 955.756 1165.82 955.929 1164.99 956.276C1164.19 956.623 1163.5 957.108 1162.91 957.732C1162.35 958.356 1161.92 959.101 1161.61 959.968C1161.3 960.835 1161.14 961.788 1161.14 962.828V963.192H1173.72V962.672C1173.72 960.592 1173.19 958.928 1172.11 957.68C1171.04 956.397 1169.56 955.756 1167.69 955.756ZM1185.98 979V951.96H1191.65V956.432H1191.91C1192.5 954.976 1193.38 953.763 1194.56 952.792C1195.77 951.821 1197.42 951.336 1199.5 951.336C1202.27 951.336 1204.42 952.255 1205.95 954.092C1207.51 955.895 1208.29 958.477 1208.29 961.84V979H1202.62V962.568C1202.62 958.339 1200.92 956.224 1197.52 956.224C1196.79 956.224 1196.07 956.328 1195.34 956.536C1194.64 956.709 1194.02 956.987 1193.47 957.368C1192.91 957.749 1192.46 958.235 1192.11 958.824C1191.8 959.413 1191.65 960.107 1191.65 960.904V979H1185.98ZM1223.63 979C1221.65 979 1220.16 978.497 1219.16 977.492C1218.15 976.452 1217.65 974.996 1217.65 973.124V956.588H1213.44V951.96H1215.73C1216.66 951.96 1217.3 951.752 1217.65 951.336C1218.03 950.92 1218.22 950.244 1218.22 949.308V944.576H1223.32V951.96H1228.99V956.588H1223.32V974.372H1228.57V979H1223.63Z" fill="white"/>
<path d="M1073.77 1034.73L1056.27 1017.23C1056.04 1017 1055.76 1016.82 1055.46 1016.69C1055.15 1016.56 1054.83 1016.5 1054.5 1016.5H1024.5C1023.17 1016.5 1021.9 1017.03 1020.96 1017.96C1020.03 1018.9 1019.5 1020.17 1019.5 1021.5V1076.5C1019.5 1077.83 1020.03 1079.1 1020.96 1080.04C1021.9 1080.97 1023.17 1081.5 1024.5 1081.5H1069.5C1070.83 1081.5 1072.1 1080.97 1073.04 1080.04C1073.97 1079.1 1074.5 1077.83 1074.5 1076.5V1036.5C1074.5 1036.17 1074.44 1035.85 1074.31 1035.54C1074.18 1035.24 1074 1034.96 1073.77 1034.73ZM1054.5 1036.5V1022.75L1068.25 1036.5H1054.5Z" fill="#9B6CFF"/>
<path d="M691 486L676.566 511L705.434 511L691 486ZM688.5 508.5L688.5 710L693.5 710L693.5 508.5L688.5 508.5Z" fill="#176197"/>
<path d="M373 639L387.434 614L358.566 614L373 639ZM370.5 522L370.5 616.5L375.5 616.5L375.5 522L370.5 522Z" fill="#176197"/>
<line x1="375.5" y1="885" x2="375.5" y2="1020" stroke="#18705B" stroke-width="5" stroke-dasharray="10 10"/>
<path d="M800 1018L775 1003.57V1032.43L800 1018ZM784.75 1015.5H774.583V1020.5H784.75V1015.5ZM764.417 1015.5H754.25V1020.5H764.417V1015.5ZM744.083 1015.5H733.917V1020.5H744.083V1015.5ZM723.75 1015.5H713.583V1020.5H723.75V1015.5ZM703.417 1015.5H693.25V1020.5H703.417V1015.5ZM683.083 1015.5H672.917V1020.5H683.083V1015.5ZM662.75 1015.5H652.583V1020.5H662.75V1015.5ZM642.417 1015.5H632.25V1020.5H642.417V1015.5ZM622.083 1015.5H611.917V1020.5H622.083V1015.5ZM601.75 1015.5H591.583V1020.5H601.75V1015.5ZM581.417 1015.5H571.25V1020.5H581.417V1015.5ZM561.083 1015.5H550.917V1020.5H561.083V1015.5ZM540.75 1015.5H530.583V1020.5H540.75V1015.5ZM520.417 1015.5H510.25V1020.5H520.417V1015.5ZM500.083 1015.5H489.917V1020.5H500.083V1015.5ZM479.75 1015.5H469.583V1020.5H479.75V1015.5ZM459.417 1015.5H449.25V1020.5H459.417V1015.5ZM439.083 1015.5H428.917V1020.5H439.083V1015.5ZM418.75 1015.5H408.583V1020.5H418.75V1015.5ZM398.417 1015.5H388.25V1020.5H398.417V1015.5ZM378.083 1015.5H373V1020.5H378.083V1015.5Z" fill="#18705B"/>
<line x1="1723.5" y1="885" x2="1723.5" y2="1020" stroke="#18705B" stroke-width="5" stroke-dasharray="10 10"/>
<path d="M1292 1018L1317 1032.43V1003.57L1292 1018ZM1727 1015.5H1722.06V1020.5H1727V1015.5ZM1712.17 1015.5H1702.28V1020.5H1712.17V1015.5ZM1692.4 1015.5H1682.51V1020.5H1692.4V1015.5ZM1672.63 1015.5H1662.74V1020.5H1672.63V1015.5ZM1652.85 1015.5H1642.97V1020.5H1652.85V1015.5ZM1633.08 1015.5H1623.19V1020.5H1633.08V1015.5ZM1613.31 1015.5H1603.42V1020.5H1613.31V1015.5ZM1593.53 1015.5H1583.65V1020.5H1593.53V1015.5ZM1573.76 1015.5H1563.87V1020.5H1573.76V1015.5ZM1553.99 1015.5H1544.1V1020.5H1553.99V1015.5ZM1534.22 1015.5H1524.33V1020.5H1534.22V1015.5ZM1514.44 1015.5H1504.56V1020.5H1514.44V1015.5ZM1494.67 1015.5H1484.78V1020.5H1494.67V1015.5ZM1474.9 1015.5H1465.01V1020.5H1474.9V1015.5ZM1455.12 1015.5H1445.24V1020.5H1455.12V1015.5ZM1435.35 1015.5H1425.47V1020.5H1435.35V1015.5ZM1415.58 1015.5H1405.69V1020.5H1415.58V1015.5ZM1395.81 1015.5H1385.92V1020.5H1395.81V1015.5ZM1376.03 1015.5H1366.15V1020.5H1376.03V1015.5ZM1356.26 1015.5H1346.38V1020.5H1356.26V1015.5ZM1336.49 1015.5H1326.6V1020.5H1336.49V1015.5ZM1316.72 1015.5H1306.83V1020.5H1316.72V1015.5Z" fill="#18705B"/>
<path d="M1413 486L1398.57 511L1427.43 511L1413 486ZM1410.5 508.5L1410.5 710L1415.5 710L1415.5 508.5L1410.5 508.5Z" fill="#176197"/>
<line x1="1047" y1="707.5" x2="689" y2="707.5" stroke="#176197" stroke-width="5"/>
<line x1="1017" y1="1406.5" x2="856" y2="1406.5" stroke="#6E7018" stroke-width="5"/>
<path d="M1014 1131L999.566 1156L1028.43 1156L1014 1131ZM1016.5 1404L1016.5 1153.5L1011.5 1153.5L1011.5 1404L1016.5 1404Z" fill="#6E7018"/>
<path d="M1238 1409L1213 1394.57V1423.43L1238 1409ZM1215.5 1406.5H1078V1411.5H1215.5V1406.5Z" fill="#704D18"/>
<path d="M1080 1131L1080 1404" stroke="#704D18" stroke-width="5"/>
<line x1="654" y1="524.5" x2="371" y2="524.5" stroke="#176197" stroke-width="5"/>
<line x1="651.5" y1="522" x2="651.5" y2="486" stroke="#176197" stroke-width="5"/>
<line x1="1414" y1="707.5" x2="1047" y2="707.5" stroke="#176197" stroke-width="5"/>
<line x1="1741" y1="524.5" x2="1453" y2="524.5" stroke="#176197" stroke-width="5"/>
<line x1="1455.5" y1="486" x2="1455.5" y2="522" stroke="#176197" stroke-width="5"/>
<line x1="1389" y1="560.5" x2="1067" y2="560.5" stroke="#176197" stroke-width="5"/>
<line x1="1702" y1="560.5" x2="1437" y2="560.5" stroke="#176197" stroke-width="5"/>
<path d="M1741 639L1755.43 614L1726.57 614L1741 639ZM1738.5 522L1738.5 616.5L1743.5 616.5L1743.5 522L1738.5 522Z" fill="#176197"/>
<path d="M1701 639L1715.43 614L1686.57 614L1701 639ZM1698.5 558L1698.5 616.5L1703.5 616.5L1703.5 558L1698.5 558Z" fill="#176197"/>
<line x1="1069.5" y1="486" x2="1069.5" y2="558" stroke="#176197" stroke-width="5"/>
<path d="M1027 486L1012.57 511L1041.43 511L1027 486ZM1024.5 508.5L1024.5 705L1029.5 705L1029.5 508.5L1024.5 508.5Z" fill="#176197"/>
<path d="M1027 885L1041.43 860L1012.57 860L1027 885ZM1024.5 705L1024.5 862.5L1029.5 862.5L1029.5 705L1024.5 705Z" fill="#176197"/>
<rect x="240" y="1281" width="616" height="254" fill="#6E7018"/>
<path d="M328.096 1375.62C323.347 1375.62 319.62 1374.03 316.916 1370.84C314.212 1367.62 312.86 1362.95 312.86 1356.85C312.86 1353.8 313.207 1351.11 313.9 1348.79C314.593 1346.47 315.599 1344.51 316.916 1342.92C318.233 1341.32 319.828 1340.13 321.7 1339.33C323.607 1338.5 325.739 1338.08 328.096 1338.08C331.251 1338.08 333.885 1338.77 336 1340.16C338.149 1341.55 339.831 1343.59 341.044 1346.3L336.104 1349C335.48 1347.27 334.509 1345.9 333.192 1344.89C331.909 1343.85 330.211 1343.33 328.096 1343.33C325.288 1343.33 323.087 1344.29 321.492 1346.19C319.897 1348.1 319.1 1350.73 319.1 1354.1V1359.61C319.1 1362.97 319.897 1365.61 321.492 1367.51C323.087 1369.42 325.288 1370.37 328.096 1370.37C330.28 1370.37 332.048 1369.82 333.4 1368.71C334.787 1367.56 335.809 1366.11 336.468 1364.34L341.2 1367.2C339.987 1369.83 338.288 1371.9 336.104 1373.39C333.92 1374.88 331.251 1375.62 328.096 1375.62ZM357.621 1375.62C355.749 1375.62 354.033 1375.29 352.473 1374.64C350.948 1373.98 349.648 1373.04 348.573 1371.83C347.498 1370.58 346.666 1369.09 346.077 1367.36C345.488 1365.59 345.193 1363.63 345.193 1361.48C345.193 1359.33 345.488 1357.39 346.077 1355.66C346.666 1353.89 347.498 1352.4 348.573 1351.18C349.648 1349.94 350.948 1348.98 352.473 1348.32C354.033 1347.67 355.749 1347.34 357.621 1347.34C359.493 1347.34 361.192 1347.67 362.717 1348.32C364.277 1348.98 365.594 1349.94 366.669 1351.18C367.744 1352.4 368.576 1353.89 369.165 1355.66C369.754 1357.39 370.049 1359.33 370.049 1361.48C370.049 1363.63 369.754 1365.59 369.165 1367.36C368.576 1369.09 367.744 1370.58 366.669 1371.83C365.594 1373.04 364.277 1373.98 362.717 1374.64C361.192 1375.29 359.493 1375.62 357.621 1375.62ZM357.621 1370.94C359.562 1370.94 361.122 1370.35 362.301 1369.18C363.48 1367.96 364.069 1366.16 364.069 1363.77V1359.19C364.069 1356.8 363.48 1355.01 362.301 1353.84C361.122 1352.62 359.562 1352.02 357.621 1352.02C355.68 1352.02 354.12 1352.62 352.941 1353.84C351.762 1355.01 351.173 1356.8 351.173 1359.19V1363.77C351.173 1366.16 351.762 1367.96 352.941 1369.18C354.12 1370.35 355.68 1370.94 357.621 1370.94ZM393.369 1370.53H393.109C392.519 1372.12 391.549 1373.37 390.197 1374.27C388.879 1375.17 387.319 1375.62 385.517 1375.62C382.085 1375.62 379.433 1374.39 377.561 1371.93C375.689 1369.44 374.753 1365.95 374.753 1361.48C374.753 1357.01 375.689 1353.54 377.561 1351.08C379.433 1348.58 382.085 1347.34 385.517 1347.34C387.319 1347.34 388.879 1347.79 390.197 1348.69C391.549 1349.55 392.519 1350.8 393.109 1352.43H393.369V1336.52H399.037V1375H393.369V1370.53ZM387.233 1370.74C388.966 1370.74 390.422 1370.32 391.601 1369.49C392.779 1368.62 393.369 1367.49 393.369 1366.11V1356.85C393.369 1355.47 392.779 1354.36 391.601 1353.52C390.422 1352.66 388.966 1352.22 387.233 1352.22C385.257 1352.22 383.679 1352.87 382.501 1354.15C381.322 1355.4 380.733 1357.06 380.733 1359.14V1363.82C380.733 1365.9 381.322 1367.58 382.501 1368.86C383.679 1370.11 385.257 1370.74 387.233 1370.74ZM417.746 1375.62C415.805 1375.62 414.071 1375.29 412.546 1374.64C411.021 1373.98 409.721 1373.04 408.646 1371.83C407.571 1370.58 406.739 1369.09 406.15 1367.36C405.595 1365.59 405.318 1363.63 405.318 1361.48C405.318 1359.33 405.595 1357.39 406.15 1355.66C406.739 1353.89 407.571 1352.4 408.646 1351.18C409.721 1349.94 411.021 1348.98 412.546 1348.32C414.071 1347.67 415.805 1347.34 417.746 1347.34C419.722 1347.34 421.455 1347.68 422.946 1348.38C424.471 1349.07 425.737 1350.04 426.742 1351.29C427.747 1352.5 428.493 1353.92 428.978 1355.55C429.498 1357.18 429.758 1358.93 429.758 1360.8V1362.94H411.194V1363.82C411.194 1365.9 411.801 1367.62 413.014 1368.97C414.262 1370.29 416.03 1370.94 418.318 1370.94C419.982 1370.94 421.386 1370.58 422.53 1369.85C423.674 1369.12 424.645 1368.14 425.442 1366.89L428.77 1370.16C427.765 1371.83 426.309 1373.16 424.402 1374.17C422.495 1375.14 420.277 1375.62 417.746 1375.62ZM417.746 1351.76C416.775 1351.76 415.874 1351.93 415.042 1352.28C414.245 1352.62 413.551 1353.11 412.962 1353.73C412.407 1354.36 411.974 1355.1 411.662 1355.97C411.35 1356.83 411.194 1357.79 411.194 1358.83V1359.19H423.778V1358.67C423.778 1356.59 423.241 1354.93 422.166 1353.68C421.091 1352.4 419.618 1351.76 417.746 1351.76ZM447.542 1358.83C447.542 1356.3 447.767 1353.87 448.218 1351.55C448.703 1349.23 449.362 1347.06 450.194 1345.05C451.026 1343.04 451.996 1341.22 453.106 1339.59C454.25 1337.96 455.48 1336.59 456.798 1335.48H462.154C460.732 1336.8 459.45 1338.27 458.306 1339.9C457.162 1341.53 456.191 1343.26 455.394 1345.1C454.596 1346.94 453.972 1348.84 453.522 1350.82C453.106 1352.8 452.898 1354.77 452.898 1356.75V1360.91C452.898 1362.88 453.106 1364.86 453.522 1366.84C453.972 1368.81 454.596 1370.72 455.394 1372.56C456.191 1374.39 457.162 1376.13 458.306 1377.76C459.45 1379.42 460.732 1380.89 462.154 1382.18H456.798C455.48 1381.07 454.25 1379.7 453.106 1378.07C451.996 1376.44 451.026 1374.62 450.194 1372.61C449.362 1370.6 448.703 1368.43 448.218 1366.11C447.767 1363.79 447.542 1361.36 447.542 1358.83ZM488.514 1359.19H472.082V1375H466.206V1338.7H472.082V1353.99H488.514V1338.7H494.39V1375H488.514V1359.19ZM516.795 1343.9V1375H510.919V1343.9H500.103V1338.7H527.611V1343.9H516.795ZM561.107 1347.23H560.847L557.987 1353.11L550.031 1367.62L542.075 1353.11L539.215 1347.23H538.955V1375H533.339V1338.7H540.307L550.031 1357.16H550.343L560.067 1338.7H566.723V1375H561.107V1347.23ZM575.691 1375V1338.7H581.567V1369.8H596.335V1375H575.691ZM606.638 1367.77C607.92 1367.77 608.874 1368.1 609.498 1368.76C610.122 1369.42 610.434 1370.27 610.434 1371.31V1372.14C610.434 1373.84 609.966 1375.61 609.03 1377.44C608.128 1379.32 606.898 1380.89 605.338 1382.18H601.126C602.235 1381.07 603.154 1379.99 603.882 1378.95C604.61 1377.91 605.164 1376.75 605.546 1375.47C604.644 1375.29 603.968 1374.91 603.518 1374.32C603.067 1373.7 602.842 1372.97 602.842 1372.14V1371.31C602.842 1370.27 603.154 1369.42 603.778 1368.76C604.402 1368.1 605.355 1367.77 606.638 1367.77ZM641.809 1375.62C638.758 1375.62 636.158 1375.07 634.009 1373.96C631.894 1372.85 630.074 1371.36 628.549 1369.49L632.605 1365.69C633.887 1367.25 635.291 1368.43 636.817 1369.23C638.377 1370.03 640.145 1370.42 642.121 1370.42C644.443 1370.42 646.194 1369.9 647.373 1368.86C648.551 1367.82 649.141 1366.42 649.141 1364.65C649.141 1363.23 648.725 1362.1 647.893 1361.27C647.061 1360.44 645.587 1359.82 643.473 1359.4L640.249 1358.83C636.713 1358.17 634.061 1357.01 632.293 1355.34C630.525 1353.68 629.641 1351.39 629.641 1348.48C629.641 1346.89 629.935 1345.45 630.525 1344.16C631.149 1342.85 631.998 1341.75 633.073 1340.89C634.182 1339.99 635.517 1339.29 637.077 1338.81C638.637 1338.32 640.387 1338.08 642.329 1338.08C645.067 1338.08 647.442 1338.57 649.453 1339.54C651.463 1340.47 653.179 1341.84 654.601 1343.64L650.493 1347.28C649.557 1346.07 648.413 1345.1 647.061 1344.37C645.709 1343.64 644.027 1343.28 642.017 1343.28C639.937 1343.28 638.325 1343.7 637.181 1344.53C636.037 1345.36 635.465 1346.57 635.465 1348.17C635.465 1349.69 635.933 1350.84 636.869 1351.6C637.805 1352.33 639.261 1352.88 641.237 1353.26L644.461 1353.94C648.101 1354.63 650.753 1355.81 652.417 1357.48C654.115 1359.14 654.965 1361.43 654.965 1364.34C654.965 1366.04 654.67 1367.58 654.081 1368.97C653.491 1370.35 652.625 1371.55 651.481 1372.56C650.371 1373.53 649.002 1374.29 647.373 1374.84C645.743 1375.36 643.889 1375.62 641.809 1375.62ZM672.055 1375.62C670.114 1375.62 668.38 1375.29 666.855 1374.64C665.33 1373.98 664.047 1373.04 663.007 1371.83C661.967 1370.58 661.17 1369.09 660.615 1367.36C660.06 1365.59 659.783 1363.63 659.783 1361.48C659.783 1359.33 660.06 1357.39 660.615 1355.66C661.17 1353.89 661.967 1352.4 663.007 1351.18C664.047 1349.94 665.33 1348.98 666.855 1348.32C668.38 1347.67 670.114 1347.34 672.055 1347.34C674.759 1347.34 676.978 1347.94 678.711 1349.16C680.444 1350.37 681.71 1351.98 682.507 1353.99L677.827 1356.18C677.446 1354.93 676.77 1353.94 675.799 1353.21C674.863 1352.45 673.615 1352.07 672.055 1352.07C669.975 1352.07 668.398 1352.73 667.323 1354.04C666.283 1355.33 665.763 1357.01 665.763 1359.09V1363.92C665.763 1366 666.283 1367.7 667.323 1369.02C668.398 1370.3 669.975 1370.94 672.055 1370.94C673.719 1370.94 675.036 1370.55 676.007 1369.75C677.012 1368.92 677.81 1367.82 678.399 1366.47L682.715 1368.76C681.814 1370.98 680.462 1372.68 678.659 1373.86C676.856 1375.03 674.655 1375.62 672.055 1375.62ZM688.111 1375V1347.96H693.779V1353.16H694.039C694.42 1351.77 695.217 1350.56 696.431 1349.52C697.644 1348.48 699.325 1347.96 701.475 1347.96H702.983V1353.42H700.747C698.493 1353.42 696.76 1353.78 695.547 1354.51C694.368 1355.24 693.779 1356.31 693.779 1357.74V1375H688.111ZM710.877 1343.12C709.698 1343.12 708.832 1342.85 708.277 1342.29C707.757 1341.74 707.497 1341.03 707.497 1340.16V1339.28C707.497 1338.41 707.757 1337.7 708.277 1337.14C708.832 1336.59 709.698 1336.31 710.877 1336.31C712.056 1336.31 712.905 1336.59 713.425 1337.14C713.945 1337.7 714.205 1338.41 714.205 1339.28V1340.16C714.205 1341.03 713.945 1341.74 713.425 1342.29C712.905 1342.85 712.056 1343.12 710.877 1343.12ZM708.017 1347.96H713.685V1375H708.017V1347.96ZM721.779 1347.96H727.447V1352.43H727.707C728.296 1350.8 729.249 1349.55 730.567 1348.69C731.919 1347.79 733.496 1347.34 735.299 1347.34C738.731 1347.34 741.383 1348.58 743.255 1351.08C745.127 1353.54 746.063 1357.01 746.063 1361.48C746.063 1365.95 745.127 1369.44 743.255 1371.93C741.383 1374.39 738.731 1375.62 735.299 1375.62C733.496 1375.62 731.919 1375.17 730.567 1374.27C729.249 1373.37 728.296 1372.12 727.707 1370.53H727.447V1385.4H721.779V1347.96ZM733.583 1370.74C735.559 1370.74 737.136 1370.11 738.315 1368.86C739.493 1367.58 740.083 1365.9 740.083 1363.82V1359.14C740.083 1357.06 739.493 1355.4 738.315 1354.15C737.136 1352.87 735.559 1352.22 733.583 1352.22C731.849 1352.22 730.393 1352.66 729.215 1353.52C728.036 1354.36 727.447 1355.47 727.447 1356.85V1366.11C727.447 1367.49 728.036 1368.62 729.215 1369.49C730.393 1370.32 731.849 1370.74 733.583 1370.74ZM759.735 1375C757.759 1375 756.269 1374.5 755.263 1373.49C754.258 1372.45 753.755 1371 753.755 1369.12V1352.59H749.543V1347.96H751.831C752.767 1347.96 753.409 1347.75 753.755 1347.34C754.137 1346.92 754.327 1346.24 754.327 1345.31V1340.58H759.423V1347.96H765.091V1352.59H759.423V1370.37H764.675V1375H759.735ZM781.38 1358.83C781.38 1361.36 781.137 1363.79 780.652 1366.11C780.201 1368.43 779.56 1370.6 778.728 1372.61C777.896 1374.62 776.908 1376.44 775.764 1378.07C774.654 1379.7 773.441 1381.07 772.124 1382.18H766.768C768.189 1380.89 769.472 1379.42 770.616 1377.76C771.76 1376.13 772.73 1374.39 773.528 1372.56C774.325 1370.72 774.932 1368.81 775.348 1366.84C775.798 1364.86 776.024 1362.88 776.024 1360.91V1356.75C776.024 1354.77 775.798 1352.8 775.348 1350.82C774.932 1348.84 774.325 1346.94 773.528 1345.1C772.73 1343.26 771.76 1341.53 770.616 1339.9C769.472 1338.27 768.189 1336.8 766.768 1335.48H772.124C773.441 1336.59 774.654 1337.96 775.764 1339.59C776.908 1341.22 777.896 1343.04 778.728 1345.05C779.56 1347.06 780.201 1349.23 780.652 1351.55C781.137 1353.87 781.38 1356.3 781.38 1358.83Z" fill="white"/>
<path d="M528.2 1433.34L515.213 1444.16L528.2 1454.98C528.63 1455.33 528.987 1455.77 529.249 1456.26C529.511 1456.75 529.673 1457.29 529.725 1457.84C529.778 1458.4 529.721 1458.96 529.556 1459.49C529.392 1460.02 529.124 1460.51 528.767 1460.94C528.411 1461.37 527.973 1461.72 527.48 1461.98C526.986 1462.24 526.447 1462.4 525.892 1462.44C525.337 1462.49 524.778 1462.43 524.247 1462.26C523.717 1462.09 523.225 1461.82 522.8 1461.46L505.925 1447.4C505.45 1447 505.067 1446.51 504.805 1445.95C504.542 1445.39 504.406 1444.78 504.406 1444.16C504.406 1443.54 504.542 1442.93 504.805 1442.37C505.067 1441.81 505.45 1441.31 505.925 1440.92L522.8 1426.85C523.661 1426.15 524.765 1425.81 525.874 1425.92C526.982 1426.02 528.003 1426.56 528.715 1427.42C529.428 1428.27 529.773 1429.37 529.677 1430.48C529.58 1431.59 529.049 1432.62 528.2 1433.34ZM590.075 1440.92L573.2 1426.85C572.775 1426.49 572.283 1426.22 571.752 1426.05C571.221 1425.88 570.663 1425.82 570.108 1425.87C569.553 1425.92 569.013 1426.08 568.52 1426.33C568.026 1426.59 567.589 1426.95 567.232 1427.37C566.876 1427.8 566.608 1428.3 566.443 1428.83C566.279 1429.36 566.221 1429.92 566.274 1430.47C566.327 1431.03 566.489 1431.57 566.751 1432.06C567.013 1432.55 567.369 1432.98 567.8 1433.34L580.787 1444.16L567.8 1454.98C567.369 1455.33 567.013 1455.77 566.751 1456.26C566.489 1456.75 566.327 1457.29 566.274 1457.84C566.221 1458.4 566.279 1458.96 566.443 1459.49C566.608 1460.02 566.876 1460.51 567.232 1460.94C567.589 1461.37 568.026 1461.72 568.52 1461.98C569.013 1462.24 569.553 1462.4 570.108 1462.44C570.663 1462.49 571.221 1462.43 571.752 1462.26C572.283 1462.09 572.775 1461.82 573.2 1461.46L590.075 1447.4C590.55 1447 590.932 1446.51 591.195 1445.95C591.457 1445.39 591.593 1444.78 591.593 1444.16C591.593 1443.54 591.457 1442.93 591.195 1442.37C590.932 1441.81 590.55 1441.31 590.075 1440.92ZM560.691 1409.25C560.17 1409.06 559.617 1408.98 559.064 1409C558.51 1409.03 557.967 1409.16 557.465 1409.4C556.963 1409.63 556.512 1409.96 556.137 1410.37C555.763 1410.78 555.473 1411.26 555.284 1411.78L532.784 1473.65C532.403 1474.7 532.454 1475.86 532.928 1476.88C533.401 1477.89 534.257 1478.67 535.308 1479.06C535.77 1479.23 536.258 1479.31 536.75 1479.31C537.616 1479.31 538.461 1479.05 539.171 1478.55C539.88 1478.05 540.419 1477.35 540.715 1476.54L563.215 1414.66C563.405 1414.14 563.49 1413.59 563.465 1413.03C563.441 1412.48 563.308 1411.94 563.073 1411.43C562.839 1410.93 562.508 1410.48 562.099 1410.11C561.69 1409.73 561.212 1409.44 560.691 1409.25Z" fill="#F9FF00"/>
</svg>
