<svg width="800" height="600" xmlns="http://www.w3.org/2000/svg">
<!--  <rect width="800" height="600" fill="white"/>-->

  <svg x="70" y="70" xmlns="http://www.w3.org/2000/svg" viewBox="0 0 680 480" width="340" height="240">
    <title>Unreal Engine logo</title>
    <path d="M64.72,462.64q-9.8,0-17.18-.53a79.32,79.32,0,0,1-12.74-1.79,30.35,30.35,0,0,1-8.87-3.44,17.29,17.29,0,0,1-5.61-5.44,21.72,21.72,0,0,1-2.95-7.78,56.33,56.33,0,0,1-.86-10.54v-52h23.7v44.32q0,4.11.29,7.06a17.08,17.08,0,0,0,1.17,5,8.14,8.14,0,0,0,2.55,3.36,12.36,12.36,0,0,0,4.41,2,33.9,33.9,0,0,0,6.75,1c2.68.15,5.86.23,9.57.23h2q5.55,0,9.56-.26a38.23,38.23,0,0,0,6.76-.95,11.87,11.87,0,0,0,4.41-2,8.48,8.48,0,0,0,2.54-3.36,16.76,16.76,0,0,0,1.18-5q.28-3,.28-7V381.11h23.71v52a61.52,61.52,0,0,1-.8,10.51,21.49,21.49,0,0,1-2.87,7.81,17.09,17.09,0,0,1-5.55,5.44,30.1,30.1,0,0,1-8.85,3.44,79.35,79.35,0,0,1-12.79,1.79q-7.45.52-17.35.53Z"/>
    <path d="M237.26,461.65H201.82l-46.66-60.3h-.46v60.3H131.46V381h36l46.09,60.36H214V381h23.24v80.61Zm0,0"/>
    <path d="M307.13,421.72c4.09,0,7.34-.12,9.77-.37a13.22,13.22,0,0,0,5.52-1.57,5.46,5.46,0,0,0,2.46-3.29,22.1,22.1,0,0,0,.58-5.59v-1.39a21.78,21.78,0,0,0-.58-5.52,5.2,5.2,0,0,0-2.49-3.24,13.87,13.87,0,0,0-5.55-1.51c-2.43-.25-5.66-.37-9.71-.37H277.59v22.85Zm42.2,39.93H325.91v-6.54a55.9,55.9,0,0,0-.28-6.08,12.37,12.37,0,0,0-1.21-4.31,7.37,7.37,0,0,0-2.57-2.83,12.94,12.94,0,0,0-4.38-1.65,42.55,42.55,0,0,0-6.7-.78q-4-.21-9.48-.21h-23.7v22.4H254.11V381h62.53a88.81,88.81,0,0,1,16.2,1.22,23.13,23.13,0,0,1,10,4.08,14.72,14.72,0,0,1,5.07,7.58,41.65,41.65,0,0,1,1.4,11.66v2.83a41.49,41.49,0,0,1-.74,8.31,18.07,18.07,0,0,1-2.41,6.13,14,14,0,0,1-4.29,4.25,20.43,20.43,0,0,1-6.47,2.55v.46a34.65,34.65,0,0,1,6.95,1.77,9.33,9.33,0,0,1,4.27,3.18,12.84,12.84,0,0,1,2.12,5.53,54.6,54.6,0,0,1,.57,8.73v12.33Zm0,0"/>
    <path d="M452.32,461.65h-87.6V381h86.22v17.83H388.19v13.71h59.43v16.84H388.19v13.89h64.13v18.34Zm0,0"/>
    <path d="M531.52,430.41l-16.43-32.35h-.58L498.2,430.41ZM573,461.71H547.44l-7.39-14.47H489.78l-7.27,14.47H457.14l43.29-80.6h29.09L573,461.71Zm0,0"/>
    <path d="M659.33,461.71H581.69v-80.6h23.7V443h53.94v18.75Zm0,0"/>
    <path d="M434.82,195h0c-2.81,13.56-15.32,48.34-55.19,67.18l-16-18-27,27.16a99.72,99.72,0,0,1-78.86-40.45,38.88,38.88,0,0,0,8.84,1.66c4.42.08,9.21-1.54,9.21-9V150.3a12.06,12.06,0,0,0-15.18-12.07c-12.5,2.86-22.5,34.07-22.5,34.07a99.25,99.25,0,0,1,34.36-76.06C291.12,80.46,309.31,75,323.13,72.86,309.48,80.64,301.8,93.34,301.8,104c0,17.09,10.32,15.07,13.38,12.55v98.92a16,16,0,0,0,2,3.49A14.59,14.59,0,0,0,329.15,225c10.34,0,23.75-11.8,23.75-11.8v-80.1c0-8.15-6.14-18-12.29-21.36,0,0,11.38-2,20.18,4.71h0a74.2,74.2,0,0,1,5.26-5.79C386.51,90.56,405.82,84.86,421.9,82h0s-29.27,23-29.27,53.8c0,22.93.59,78.84.59,78.84C404.11,225.1,420.24,210,434.82,195Z"/>
    <path d="M337.92,8.48A163.07,163.07,0,1,0,501,171.54,163.06,163.06,0,0,0,337.92,8.48Zm0,319.61A156.55,156.55,0,1,1,494.46,171.54,156.55,156.55,0,0,1,337.92,328.09Z"/>
  </svg>


  <svg x="450" y="300" xmlns="http://www.w3.org/2000/svg" viewBox="0 0 512 512" width="256" height="256">
    <title>HTML5 Logo</title>
    <path d="M108.4 0h23v22.8h21.2V0h23v69h-23V46h-21v23h-23.2M206 23h-20.3V0h63.7v23H229v46h-23M259.5 0h24.1l14.8 24.3L313.2 0h24.1v69h-23V34.8l-16.1 24.8l-16.1-24.8v34.2h-22.6M348.7 0h23v46.2h32.6V69h-55.6"/>
    <path fill="#e44d26" d="M107.6 471l-33-370.4h362.8l-33 370.2L255.7 512"/>
    <path fill="#f16529" d="M256 480.5V131H404.3L376 447"/>
    <path fill="#ebebeb" d="M142 176.3h114v45.4h-64.2l4.2 46.5h60v45.3H154.4M156.4 336.3H202l3.2 36.3 50.8 13.6v47.4l-93.2-26"/>
    <path fill="#fff" d="M369.6 176.3H255.8v45.4h109.6M361.3 268.2H255.8v45.4h56l-5.3 59-50.7 13.6v47.2l93-25.8"/>
  </svg>
</svg>
