<svg width="800" height="600" xmlns="http://www.w3.org/2000/svg">
<!--  <rect width="800" height="600" fill="white"/>-->

  <svg x="320" y="310" xmlns="http://www.w3.org/2000/svg" viewBox="0 0 680 480" width="340" height="240">
    <title>Unreal Engine logo</title>
    <path fill="black" d="M64.72,462.64q-9.8,0-17.18-.53a79.32,79.32,0,0,1-12.74-1.79,30.35,30.35,0,0,1-8.87-3.44,17.29,17.29,0,0,1-5.61-5.44,21.72,21.72,0,0,1-2.95-7.78,56.33,56.33,0,0,1-.86-10.54v-52h23.7v44.32q0,4.11.29,7.06a17.08,17.08,0,0,0,1.17,5,8.14,8.14,0,0,0,2.55,3.36,12.36,12.36,0,0,0,4.41,2,33.9,33.9,0,0,0,6.75,1c2.68.15,5.86.23,9.57.23h2q5.55,0,9.56-.26a38.23,38.23,0,0,0,6.76-.95,11.87,11.87,0,0,0,4.41-2,8.48,8.48,0,0,0,2.54-3.36,16.76,16.76,0,0,0,1.18-5q.28-3,.28-7V381.11h23.71v52a61.52,61.52,0,0,1-.8,10.51,21.49,21.49,0,0,1-2.87,7.81,17.09,17.09,0,0,1-5.55,5.44,30.1,30.1,0,0,1-8.85,3.44,79.35,79.35,0,0,1-12.79,1.79q-7.45.52-17.35.53Z"/>
    <path fill="black" d="M237.26,461.65H201.82l-46.66-60.3h-.46v60.3H131.46V381h36l46.09,60.36H214V381h23.24v80.61Zm0,0"/>
    <path fill="black" d="M307.13,421.72c4.09,0,7.34-.12,9.77-.37a13.22,13.22,0,0,0,5.52-1.57,5.46,5.46,0,0,0,2.46-3.29,22.1,22.1,0,0,0,.58-5.59v-1.39a21.78,21.78,0,0,0-.58-5.52,5.2,5.2,0,0,0-2.49-3.24,13.87,13.87,0,0,0-5.55-1.51c-2.43-.25-5.66-.37-9.71-.37H277.59v22.85Zm42.2,39.93H325.91v-6.54a55.9,55.9,0,0,0-.28-6.08,12.37,12.37,0,0,0-1.21-4.31,7.37,7.37,0,0,0-2.57-2.83,12.94,12.94,0,0,0-4.38-1.65,42.55,42.55,0,0,0-6.7-.78q-4-.21-9.48-.21h-23.7v22.4H254.11V381h62.53a88.81,88.81,0,0,1,16.2,1.22,23.13,23.13,0,0,1,10,4.08,14.72,14.72,0,0,1,5.07,7.58,41.65,41.65,0,0,1,1.4,11.66v2.83a41.49,41.49,0,0,1-.74,8.31,18.07,18.07,0,0,1-2.41,6.13,14,14,0,0,1-4.29,4.25,20.43,20.43,0,0,1-6.47,2.55v.46a34.65,34.65,0,0,1,6.95,1.77,9.33,9.33,0,0,1,4.27,3.18,12.84,12.84,0,0,1,2.12,5.53,54.6,54.6,0,0,1,.57,8.73v12.33Zm0,0"/>
    <path fill="black" d="M452.32,461.65h-87.6V381h86.22v17.83H388.19v13.71h59.43v16.84H388.19v13.89h64.13v18.34Zm0,0"/>
    <path fill="black" d="M531.52,430.41l-16.43-32.35h-.58L498.2,430.41ZM573,461.71H547.44l-7.39-14.47H489.78l-7.27,14.47H457.14l43.29-80.6h29.09L573,461.71Zm0,0"/>
    <path fill="black" d="M659.33,461.71H581.69v-80.6h23.7V443h53.94v18.75Zm0,0"/>
    <path fill="black" d="M434.82,195h0c-2.81,13.56-15.32,48.34-55.19,67.18l-16-18-27,27.16a99.72,99.72,0,0,1-78.86-40.45,38.88,38.88,0,0,0,8.84,1.66c4.42.08,9.21-1.54,9.21-9V150.3a12.06,12.06,0,0,0-15.18-12.07c-12.5,2.86-22.5,34.07-22.5,34.07a99.25,99.25,0,0,1,34.36-76.06C291.12,80.46,309.31,75,323.13,72.86,309.48,80.64,301.8,93.34,301.8,104c0,17.09,10.32,15.07,13.38,12.55v98.92a16,16,0,0,0,2,3.49A14.59,14.59,0,0,0,329.15,225c10.34,0,23.75-11.8,23.75-11.8v-80.1c0-8.15-6.14-18-12.29-21.36,0,0,11.38-2,20.18,4.71h0a74.2,74.2,0,0,1,5.26-5.79C386.51,90.56,405.82,84.86,421.9,82h0s-29.27,23-29.27,53.8c0,22.93.59,78.84.59,78.84C404.11,225.1,420.24,210,434.82,195Z"/>
    <path fill="black" d="M337.92,8.48A163.07,163.07,0,1,0,501,171.54,163.06,163.06,0,0,0,337.92,8.48Zm0,319.61A156.55,156.55,0,1,1,494.46,171.54,156.55,156.55,0,0,1,337.92,328.09Z"/>
  </svg>

  <svg x="150" y="50" xmlns="http://www.w3.org/2000/svg" viewBox="0 0 512 512" width="256" height="256">
    <title>HTML5 Logo</title>
    <path fill="black" d="M108.4 0h23v22.8h21.2V0h23v69h-23V46h-21v23h-23.2M206 23h-20.3V0h63.7v23H229v46h-23M259.5 0h24.1l14.8 24.3L313.2 0h24.1v69h-23V34.8l-16.1 24.8l-16.1-24.8v34.2h-22.6M348.7 0h23v46.2h32.6V69h-55.6"/>
    <path fill="#e44d26" d="M107.6 471l-33-370.4h362.8l-33 370.2L255.7 512"/>
    <path fill="#f16529" d="M256 480.5V131H404.3L376 447"/>
    <path fill="#ebebeb" d="M142 176.3h114v45.4h-64.2l4.2 46.5h60v45.3H154.4M156.4 336.3H202l3.2 36.3 50.8 13.6v47.4l-93.2-26"/>
    <path fill="#fff" d="M369.6 176.3H255.8v45.4h109.6M361.3 268.2H255.8v45.4h56l-5.3 59-50.7 13.6v47.2l93-25.8"/>
  </svg>

  <svg x="300" y="150" width="120" height="120" viewBox="0 0 120 120" fill="none" xmlns="http://www.w3.org/2000/svg">    <g clip-path="url(#ee)">      <path d="m60 81.99c12.15 0 22-9.8497 22-22 0-12.15-9.8497-22-22-22s-22 9.8498-22 22c0 12.15 9.8497 22 22 22z" fill="#fff">      </path>      <path d="m60 38h38.099c-3.8606-6.6892-9.4144-12.244-16.103-16.106-6.6884-3.862-14.276-5.8948-21.999-5.8943-7.7232 5e-4 -15.31 2.0345-21.998 5.8973-6.6879 3.8629-12.241 9.4184-16.101 16.108l19.05 32.995 0.017-0.0044c-1.9378-3.3417-2.9604-7.1352-2.9648-10.998-0.0043-3.8629 1.0098-7.6586 2.9401-11.005 1.9303-3.346 4.7086-6.124 8.0548-8.0539 3.3463-1.93 7.1422-2.9437 11.005-2.9389z" fill="url(#cc)"></path>      <path d="m60 77.417c9.619 0 17.417-7.7977 17.417-17.417 0-9.6189-7.7977-17.417-17.417-17.417-9.6189 0-17.417 7.7977-17.417 17.417 0 9.619 7.7977 17.417 17.417 17.417z" fill="#1A73E8"></path>      <path d="m79.05 71.006-19.05 32.994c7.7233 1e-3 15.311-2.031 21.999-5.8925 6.6886-3.8614 12.243-9.4158 16.104-16.105 3.8607-6.6888 5.8927-14.276 5.8917-22-1e-3 -7.7232-2.036-15.31-5.8996-21.997h-38.099l-0.0045 0.017c3.8629-0.0074 7.6595 1.0036 11.007 2.9313 3.3476 1.9277 6.1278 4.7038 8.0604 8.0485s2.9492 7.1398 2.9474 11.003c-0.0017 3.8629-1.0219 7.657-2.9575 11z" fill="url(#bb)"></path>      <path d="m40.949 71.006-19.049-32.995c-3.8626 6.688-5.8963 14.275-5.8966 21.998s2.0328 15.31 5.8949 21.999 9.4171 12.242 16.106 16.102c6.6893 3.8603 14.277 5.8913 22 5.8893l19.049-32.994-0.0123-0.0124c-1.925 3.349-4.699 6.1314-8.0422 8.0666s-7.1375 2.9549-11 2.9562-7.6579-1.0158-11.002-2.9488c-3.3445-1.9329-6.1203-4.7134-8.0476-8.0612z" fill="url(#aa)"></path>    </g>    <defs>      <linearGradient id="cc" x1="21.898" x2="98.099" y1="43.5" y2="43.5" gradientUnits="userSpaceOnUse">        <stop stop-color="#D93025" offset="0"></stop>        <stop stop-color="#EA4335" offset="1"></stop>      </linearGradient>      <linearGradient id="bb" x1="53.99" x2="92.09" y1="103.41" y2="37.42" gradientUnits="userSpaceOnUse">        <stop stop-color="#FCC934" offset="0"></stop>        <stop stop-color="#FBBC04" offset="1"></stop>      </linearGradient>      <linearGradient id="aa" x1="64.763" x2="26.663" y1="101.25" y2="35.261" gradientUnits="userSpaceOnUse">        <stop stop-color="#1E8E3E" offset="0"></stop>        <stop stop-color="#34A853" offset="1"></stop>      </linearGradient>      <clipPath id="ee">        <rect transform="translate(16 16)" width="88" height="88" fill="#fff"></rect>      </clipPath>    </defs>  </svg>

  <svg x="280" y="210" width="120" height="120" viewBox="0 0 120 120" fill="none" xmlns="http://www.w3.org/2000/svg"><path d="m60 104c24.3 0 44-19.7 44-44s-19.7-44-44-44-44 19.7-44 44 19.7 44 44 44z" fill="url(#aaa)"></path><path d="m60.002 100.1v-6.756" stroke="#fff" stroke-linecap="square" stroke-width=".84706"></path><path d="m60.002 26.624v-6.7563" stroke="#fff" stroke-linecap="square" stroke-width=".84706"></path><path d="m53.018 99.512 1.1732-6.6536m11.585-65.704 1.1732-6.6536" stroke="#fff" stroke-linecap="square" stroke-width=".84706"></path><path d="m46.278 97.689 2.3108-6.3488m22.819-62.694 2.3108-6.3488" stroke="#fff" stroke-linecap="square" stroke-width=".84706"></path><path d="m39.91 94.765 3.3781-5.851m33.359-57.779 3.3782-5.8511" stroke="#fff" stroke-linecap="square" stroke-width=".84706"></path><path d="m34.252 90.737 4.3428-5.1756m42.885-51.109 4.3429-5.1756" stroke="#fff" stroke-linecap="square" stroke-width=".84706"></path><path d="m29.227 85.774 5.1756-4.3428m51.109-42.885 5.1756-4.3428" stroke="#fff" stroke-linecap="square" stroke-width=".84706"></path><path d="m25.244 80.033 5.8511-3.3781m57.779-33.359 5.8511-3.3781" stroke="#fff" stroke-linecap="square" stroke-width=".84706"></path><path d="m22.238 73.725 6.3488-2.3108m62.694-22.819 6.3488-2.3108" stroke="#fff" stroke-linecap="square" stroke-width=".84706"></path><path d="m20.469 67.009 6.6535-1.1733m65.704-11.585 6.6536-1.1732" stroke="#fff" stroke-linecap="square" stroke-width=".84706"></path><path d="m19.9 60.002h6.7563m66.718 0h6.7558" stroke="#fff" stroke-linecap="square" stroke-width=".84706"></path><path d="m20.488 53.062 6.6536 1.1732m65.704 11.585 6.6536 1.1732" stroke="#fff" stroke-linecap="square" stroke-width=".84706"></path><path d="m22.309 46.295 6.3488 2.3108m62.694 22.819 6.3488 2.3108" stroke="#fff" stroke-linecap="square" stroke-width=".84706"></path><path d="m25.229 39.99 5.8511 3.3781m57.779 33.359 5.851 3.3781" stroke="#fff" stroke-linecap="square" stroke-width=".84706"></path><path d="m29.24 34.19 5.1756 4.3428m51.109 42.885 5.1756 4.3429" stroke="#fff" stroke-linecap="square" stroke-width=".84706"></path><path d="m34.166 29.281 4.3428 5.1756m42.885 51.109 4.3428 5.1755" stroke="#fff" stroke-linecap="square" stroke-width=".84706"></path><path d="m39.918 25.256 3.3781 5.8511m33.359 57.779 3.3781 5.8511" stroke="#fff" stroke-linecap="square" stroke-width=".84706"></path><path d="m46.28 22.3 2.3108 6.3487m22.819 62.694 2.3107 6.3488" stroke="#fff" stroke-linecap="square" stroke-width=".84706"></path><path d="m52.992 20.554 1.1733 6.6536m11.585 65.704 1.1732 6.6536" stroke="#fff" stroke-linecap="square" stroke-width=".84706"></path><path d="m56.484 99.953 0.2945-3.3653m6.4037-73.194 0.2944-3.3653" stroke="#fff" stroke-linecap="square" stroke-width=".84706"></path><path d="m49.629 98.788 0.8743-3.263m19.016-70.97 0.8743-3.263" stroke="#fff" stroke-linecap="square" stroke-width=".84706"></path><path d="m43.024 96.33 1.4276-3.0616m31.052-66.59 1.4277-3.0616" stroke="#fff" stroke-linecap="square" stroke-width=".84706"></path><path d="m36.978 92.875 1.9376-2.7672m42.143-60.186 1.9376-2.7672" stroke="#fff" stroke-linecap="square" stroke-width=".84706"></path><path d="m31.658 88.369 2.3887-2.3886m51.954-51.954 2.3887-2.3886" stroke="#fff" stroke-linecap="square" stroke-width=".84706"></path><path d="m27.141 83.051 2.7672-1.9376m60.186-42.143 2.7672-1.9376" stroke="#fff" stroke-linecap="square" stroke-width=".84706"></path><path d="m23.653 76.966 3.0616-1.4277m66.59-31.052 3.0617-1.4276" stroke="#fff" stroke-linecap="square" stroke-width=".84706"></path><path d="m21.24 70.41 3.263-0.8744m70.97-19.016 3.263-0.8743" stroke="#fff" stroke-linecap="square" stroke-width=".84706"></path><path d="m20 63.507 3.3653-0.2944m73.194-6.4037 3.3652-0.2944" stroke="#fff" stroke-linecap="square" stroke-width=".84706"></path><path d="m20.03 56.514 3.3653 0.2944m73.194 6.4037 3.3653 0.2944" stroke="#fff" stroke-linecap="square" stroke-width=".84706"></path><path d="m21.19 49.657 3.2631 0.8743m70.97 19.016 3.263 0.8744" stroke="#fff" stroke-linecap="square" stroke-width=".84706"></path><path d="m23.624 43.042 3.0616 1.4276m66.59 31.052 3.0616 1.4277" stroke="#fff" stroke-linecap="square" stroke-width=".84706"></path><path d="m27.127 37.029 2.7671 1.9376m60.186 42.143 2.7672 1.9376" stroke="#fff" stroke-linecap="square" stroke-width=".84706"></path><path d="m31.654 31.661 2.3887 2.3887m51.954 51.954 2.3887 2.3887" stroke="#fff" stroke-linecap="square" stroke-width=".84706"></path><path d="m36.935 27.134 1.9376 2.7672m42.143 60.186 1.9376 2.7672" stroke="#fff" stroke-linecap="square" stroke-width=".84706"></path><path d="m43.044 23.676 1.4276 3.0616m31.052 66.59 1.4277 3.0616" stroke="#fff" stroke-linecap="square" stroke-width=".84706"></path><path d="m49.59 21.297 0.8743 3.263m19.016 70.97 0.8743 3.263" stroke="#fff" stroke-linecap="square" stroke-width=".84706"></path><path d="m56.449 20.063 0.2944 3.3653m6.4037 73.194 0.2944 3.3652" stroke="#fff" stroke-linecap="square" stroke-width=".84706"></path><path d="m91.222 33.87-34.71 22.211-27.785 30.15 34.879-21.704 27.616-30.656z" clip-rule="evenodd" fill="#fff" fill-rule="evenodd"></path><path d="m91.222 33.87-34.71 22.211 7.094 8.4453 27.616-30.656z" clip-rule="evenodd" fill="#FF3B30" fill-rule="evenodd"></path><defs><linearGradient id="aaa" x1="59.999" x2="59.999" y1="104.01" y2="15.992" gradientUnits="userSpaceOnUse"><stop stop-color="#1E6FF1" offset="0"></stop><stop stop-color="#28CEFB" offset="1"></stop></linearGradient></defs></svg>

  <svg x="230" y="250" width="120" height="120" viewBox="0 0 120 120" fill="none" xmlns="http://www.w3.org/2000/svg"><path d="m101.3 42.856c-1.9371-4.6598-5.8655-9.691-8.9417-11.282 2.1941 4.2494 3.7168 8.8131 4.5137 13.529l0.0081 0.0748c-5.0393-12.564-13.585-17.63-20.564-28.66-0.3605-0.5624-0.7106-1.1313-1.05-1.7066-0.175-0.3005-0.3388-0.6074-0.491-0.92-0.2895-0.5606-0.5126-1.153-0.6647-1.7653 2e-4 -0.0282-0.01-0.0556-0.0287-0.0768s-0.0445-0.0348-0.0725-0.0382c-0.0275-0.0075-0.0565-0.0075-0.084 0-0.0057 0-0.0149 0.0104-0.0218 0.0127s-0.0219 0.0126-0.0322 0.0172l0.0172-0.0299c-11.195 6.555-14.994 18.69-15.343 24.76-4.4708 0.3074-8.7453 1.9549-12.266 4.7277-0.3673-0.3111-0.7512-0.6021-1.15-0.8717-1.0156-3.5547-1.0588-7.3168-0.1253-10.894-4.1114 1.9917-7.7645 4.8151-10.728 8.2915h-0.0207c-1.7664-2.239-1.6422-9.622-1.541-11.164-0.5225 0.21-1.0214 0.4749-1.4881 0.7901-1.5593 1.1129-3.0171 2.3617-4.3562 3.7317-1.5259 1.5472-2.9196 3.2193-4.1664 4.9991v0.0069-0.0081c-2.8656 4.0625-4.898 8.6523-5.98 13.504l-0.0598 0.2944c-0.1644 0.9247-0.3105 1.8525-0.4382 2.783 0 0.0333-0.0069 0.0644-0.0103 0.0977-0.3902 2.0279-0.6319 4.0815-0.7234 6.1445v0.23c0.0098 11.16 4.2056 21.91 11.758 30.126 7.5526 8.216 17.912 13.3 29.032 14.247s22.19-2.312 31.023-9.132c8.8332-6.8204 14.786-16.706 16.683-27.704 0.075-0.575 0.136-1.1443 0.203-1.725 0.918-7.5875-0.076-15.284-2.891-22.389zm-51.371 34.889c0.2082 0.1001 0.4037 0.2082 0.6176 0.3036l0.031 0.0196c-0.2162-0.1035-0.4324-0.2112-0.6486-0.3232zm46.954-32.556v-0.0425l0.0081 0.0471-0.0081-0.0046z" fill="url(#l)"></path><path d="m101.3 42.856c-1.9371-4.6598-5.8655-9.691-8.9417-11.282 2.1941 4.2494 3.7168 8.8131 4.5137 13.529v0.0426l0.0081 0.0471c3.4349 9.8307 2.9384 20.609-1.3869 30.082-5.1083 10.961-17.473 22.195-36.828 21.649-20.913-0.5923-39.33-16.11-42.773-36.436-0.6268-3.205 0-4.83 0.3151-7.4347-0.4299 2.0233-0.6697 4.0823-0.7165 6.1502v0.23c0.0098 11.16 4.2056 21.91 11.758 30.126 7.5526 8.216 17.912 13.3 29.032 14.247s22.19-2.312 31.023-9.1321c8.8332-6.8204 14.786-16.706 16.683-27.704 0.075-0.575 0.136-1.1443 0.203-1.725 0.918-7.5875-0.076-15.284-2.891-22.389z" fill="url(#i)"></path><path d="m101.3 42.856c-1.9371-4.6598-5.8655-9.691-8.9417-11.282 2.1941 4.2494 3.7168 8.8131 4.5137 13.529v0.0426l0.0081 0.0471c3.4349 9.8307 2.9384 20.609-1.3869 30.082-5.1083 10.961-17.473 22.195-36.828 21.649-20.913-0.5923-39.33-16.11-42.773-36.436-0.6268-3.205 0-4.83 0.3151-7.4347-0.4299 2.0233-0.6697 4.0823-0.7165 6.1502v0.23c0.0098 11.16 4.2056 21.91 11.758 30.126 7.5526 8.216 17.912 13.3 29.032 14.247s22.19-2.312 31.023-9.1321c8.8332-6.8204 14.786-16.706 16.683-27.704 0.075-0.575 0.136-1.1443 0.203-1.725 0.918-7.5875-0.076-15.284-2.891-22.389z" fill="url(#h)"></path><path d="m79.644 48.095c0.0966 0.0678 0.1863 0.1357 0.2772 0.2035-1.1196-1.9852-2.5133-3.8028-4.14-5.3992-13.853-13.855-3.6306-30.042-1.9067-30.864l0.0172-0.0253c-11.195 6.555-14.994 18.69-15.343 24.76 0.5198-0.0357 1.035-0.0794 1.5663-0.0794 3.9723 0.0073 7.8719 1.0664 11.302 3.0696 3.4303 2.0031 6.2689 4.879 8.2272 8.335z" fill="url(#g)"></path><path d="m60.144 50.862c-0.0736 1.1086-3.9905 4.9323-5.3602 4.9323-12.674 0-14.732 7.6671-14.732 7.6671 0.5612 6.4561 5.06 11.774 10.498 14.587 0.2484 0.1288 0.5002 0.2449 0.7521 0.3588 0.4362 0.1932 0.8724 0.3718 1.3087 0.5359 1.8664 0.6605 3.8212 1.0377 5.7994 1.1189 22.215 1.0419 26.518-26.565 10.487-34.576 3.7818-0.492 7.6116 0.4378 10.747 2.6094-1.9583-3.4561-4.7969-6.3319-8.2272-8.3351-3.4302-2.0031-7.3298-3.0622-11.302-3.0695-0.529 0-1.0465 0.0437-1.5663 0.0794-4.4708 0.3073-8.7453 1.9548-12.266 4.7276 0.6797 0.575 1.4467 1.3432 3.0625 2.936 3.0245 2.9796 10.781 6.0662 10.798 6.4285z" fill="url(#f)"></path><path d="m60.144 50.862c-0.0736 1.1086-3.9905 4.9323-5.3602 4.9323-12.674 0-14.732 7.6671-14.732 7.6671 0.5612 6.4561 5.06 11.774 10.498 14.587 0.2484 0.1288 0.5002 0.2449 0.7521 0.3588 0.4362 0.1932 0.8724 0.3718 1.3087 0.5359 1.8664 0.6605 3.8212 1.0377 5.7994 1.1189 22.215 1.0419 26.518-26.565 10.487-34.576 3.7818-0.492 7.6116 0.4378 10.747 2.6094-1.9583-3.4561-4.7969-6.3319-8.2272-8.3351-3.4302-2.0031-7.3298-3.0622-11.302-3.0695-0.529 0-1.0465 0.0437-1.5663 0.0794-4.4708 0.3073-8.7453 1.9548-12.266 4.7276 0.6797 0.575 1.4467 1.3432 3.0625 2.936 3.0245 2.9796 10.781 6.0662 10.798 6.4285z" fill="url(#e)"></path><path d="m44.205 40.015c0.3611 0.23 0.6589 0.4301 0.92 0.6107-1.0156-3.5547-1.0589-7.3168-0.1254-10.894-4.1113 1.9917-7.7644 4.8151-10.728 8.2915 0.2173-0.0057 6.6826-0.1219 9.9337 1.9918z" fill="url(#d)"></path><path d="m15.902 60.487c3.4397 20.325 21.86 35.843 42.773 36.436 19.354 0.5474 31.719-10.688 36.828-21.649 4.3254-9.4729 4.8223-20.251 1.3869-30.082v-0.0425c0-0.0334-0.0069-0.0529 0-0.0426l0.0081 0.0748c1.5812 10.324-3.6697 20.325-11.878 27.088l-0.0253 0.0575c-15.994 13.026-31.301 7.8591-34.399 5.75-0.2162-0.1035-0.4324-0.2112-0.6486-0.3231-9.3253-4.4574-13.178-12.954-12.352-20.24-2.2137 0.0326-4.3893-0.5774-6.2632-1.7561-1.874-1.1788-3.3659-2.8757-4.295-4.8852 2.4479-1.4997 5.2391-2.3475 8.1075-2.4626 2.8685-0.1152 5.7186 0.5062 8.2789 1.8048 5.2783 2.3962 11.285 2.6323 16.735 0.6578-0.0173-0.3622-7.774-3.45-10.798-6.4285-1.6158-1.5927-2.3828-2.3598-3.0625-2.9359-0.3673-0.3112-0.7512-0.6022-1.15-0.8717-0.2645-0.1806-0.5623-0.3761-0.92-0.6107-3.251-2.1137-9.7163-1.9975-9.9302-1.9918h-0.0207c-1.7664-2.239-1.6422-9.622-1.541-11.164-0.5226 0.21-1.0214 0.4749-1.4881 0.7901-1.5594 1.1129-3.0171 2.3617-4.3562 3.7317-1.5314 1.5428-2.9309 3.2111-4.1837 4.9876v0.0069-0.0081c-2.8656 4.0624-4.898 8.6523-5.98 13.504-0.0219 0.0908-1.6054 7.0138-0.8246 10.604z" fill="url(#c)"></path><path d="m75.784 42.9c1.6271 1.5982 3.0208 3.4178 4.14 5.405 0.2449 0.1852 0.4738 0.3692 0.6681 0.5474 10.105 9.315 4.8105 22.482 4.416 23.42 8.2087-6.7632 13.455-16.765 11.878-27.088-5.0416-12.57-13.587-17.635-20.567-28.666-0.3605-0.5624-0.7106-1.1313-1.05-1.7066-0.175-0.3005-0.3388-0.6074-0.491-0.92-0.2895-0.5606-0.5126-1.153-0.6647-1.7653 2e-4 -0.0282-0.01-0.0556-0.0287-0.0768s-0.0445-0.0348-0.0725-0.0382c-0.0275-0.0075-0.0565-0.0075-0.084 0-0.0057 0-0.0149 0.0104-0.0218 0.0127s-0.0219 0.0126-0.0322 0.0172c-1.7239 0.8177-11.946 17.004 1.909 30.859z" fill="url(#b)"></path><path d="m80.585 48.846c-0.2142-0.1927-0.4371-0.3754-0.6682-0.5474-0.0908-0.0679-0.1805-0.1357-0.2771-0.2036-3.1351-2.1715-6.965-3.1014-10.747-2.6093 16.031 8.0155 11.73 35.618-10.487 34.576-1.9781-0.0812-3.933-0.4584-5.7994-1.119-0.4362-0.1633-0.8725-0.3419-1.3087-0.5359-0.2519-0.115-0.5037-0.23-0.7521-0.3588l0.031 0.0196c3.0981 2.1148 18.4 7.2818 34.399-5.75l0.0253-0.0575c0.399-0.9315 5.6936-14.102-4.416-23.414z" fill="url(#a)"></path><path d="m40.052 63.462s2.0573-7.667 14.732-7.667c1.3696 0 5.29-3.8238 5.3601-4.9324-5.4501 1.9745-11.456 1.7384-16.735-0.6578-2.5602-1.2986-5.4104-1.9199-8.2788-1.8048-2.8684 0.1152-5.6596 0.963-8.1075 2.4626 0.9291 2.0095 2.421 3.7064 4.2949 4.8852 1.874 1.1788 4.0496 1.7888 6.2632 1.7561-0.8257 7.2875 3.0268 15.784 12.352 20.24 0.2081 0.1 0.4036 0.2081 0.6175 0.3036-5.4429-2.8118-9.9371-8.1294-10.498-14.586z" fill="url(#k)"></path><path d="m101.3 42.856c-1.9371-4.6598-5.8655-9.691-8.9417-11.282 2.1941 4.2494 3.7168 8.8131 4.5137 13.529l0.0081 0.0748c-5.0393-12.564-13.585-17.63-20.564-28.66-0.3605-0.5624-0.7106-1.1313-1.05-1.7066-0.175-0.3005-0.3388-0.6074-0.491-0.92-0.2895-0.5606-0.5126-1.153-0.6647-1.7653 2e-4 -0.0282-0.01-0.0556-0.0287-0.0768s-0.0445-0.0348-0.0725-0.0382c-0.0275-0.0075-0.0565-0.0075-0.084 0-0.0057 0-0.0149 0.0104-0.0218 0.0127s-0.0219 0.0126-0.0322 0.0172l0.0172-0.0299c-11.195 6.555-14.994 18.69-15.343 24.76 0.5198-0.0356 1.035-0.0793 1.5663-0.0793 3.9723 0.0073 7.8719 1.0663 11.302 3.0695 3.4303 2.0032 6.2689 4.879 8.2272 8.335-3.1351-2.1715-6.9649-3.1014-10.747-2.6093 16.031 8.0155 11.73 35.618-10.487 34.576-1.9782-0.0813-3.933-0.4584-5.7994-1.119-0.4363-0.1633-0.8725-0.3419-1.3087-0.5359-0.2519-0.115-0.5037-0.23-0.7521-0.3588l0.031 0.0196c-0.2162-0.1035-0.4324-0.2112-0.6486-0.3232 0.2082 0.1001 0.4037 0.2082 0.6176 0.3036-5.443-2.8129-9.9372-8.1305-10.498-14.587 0 0 2.0574-7.667 14.732-7.667 1.3697 0 5.29-3.8238 5.3602-4.9324-0.0173-0.3622-7.774-3.45-10.798-6.4285-1.6158-1.5927-2.3828-2.3598-3.0625-2.9359-0.3673-0.3111-0.7512-0.6021-1.15-0.8717-1.0156-3.5547-1.0588-7.3168-0.1253-10.894-4.1114 1.9917-7.7645 4.8151-10.728 8.2915h-0.0207c-1.7664-2.239-1.6422-9.622-1.541-11.164-0.5225 0.21-1.0214 0.4749-1.4881 0.7901-1.5593 1.1129-3.0171 2.3617-4.3562 3.7317-1.5259 1.5472-2.9196 3.2193-4.1664 4.9991v0.0069-0.0081c-2.8656 4.0625-4.898 8.6523-5.98 13.504l-0.0598 0.2944c-0.084 0.3921-0.46 2.3839-0.5141 2.8117v0c-0.3439 2.0561-0.5636 4.131-0.6578 6.2135v0.23c0.0098 11.16 4.2056 21.91 11.758 30.126 7.5526 8.216 17.912 13.3 29.032 14.247s22.19-2.312 31.023-9.132c8.8332-6.8204 14.786-16.706 16.683-27.704 0.075-0.575 0.136-1.1443 0.203-1.725 0.918-7.5875-0.076-15.284-2.891-22.389z" fill="url(#j)"></path><defs><linearGradient id="l" x1="95.404" x2="21.414" y1="26.252" y2="97.638" gradientUnits="userSpaceOnUse"><stop stop-color="#FFF44F" offset=".048"></stop><stop stop-color="#FFE847" offset=".111"></stop><stop stop-color="#FFC830" offset=".225"></stop><stop stop-color="#FF980E" offset=".368"></stop><stop stop-color="#FF8B16" offset=".401"></stop><stop stop-color="#FF672A" offset=".462"></stop><stop stop-color="#FF3647" offset=".534"></stop><stop stop-color="#E31587" offset=".705"></stop></linearGradient><radialGradient id="i" cx="0" cy="0" r="1" gradientTransform="translate(91.985 22.211) scale(92.916 92.917)" gradientUnits="userSpaceOnUse"><stop stop-color="#FFBD4F" offset=".129"></stop><stop stop-color="#FFAC31" offset=".186"></stop><stop stop-color="#FF9D17" offset=".247"></stop><stop stop-color="#FF980E" offset=".283"></stop><stop stop-color="#FF563B" offset=".403"></stop><stop stop-color="#FF3750" offset=".467"></stop><stop stop-color="#F5156C" offset=".71"></stop><stop stop-color="#EB0878" offset=".782"></stop><stop stop-color="#E50080" offset=".86"></stop></radialGradient><radialGradient id="h" cx="0" cy="0" r="1" gradientTransform="translate(58.032 60.198) scale(92.916 92.917)" gradientUnits="userSpaceOnUse"><stop stop-color="#960E18" offset=".3"></stop><stop stop-color="#B11927" stop-opacity=".74" offset=".351"></stop><stop stop-color="#DB293D" stop-opacity=".343" offset=".435"></stop><stop stop-color="#F5334B" stop-opacity=".094" offset=".497"></stop><stop stop-color="#FF3750" stop-opacity="0" offset=".53"></stop></radialGradient><radialGradient id="g" cx="0" cy="0" r="1" gradientTransform="translate(69.234 1.1246) scale(67.314)" gradientUnits="userSpaceOnUse"><stop stop-color="#FFF44F" offset=".132"></stop><stop stop-color="#FFDC3E" offset=".252"></stop><stop stop-color="#FF9D12" offset=".506"></stop><stop stop-color="#FF980E" offset=".526"></stop></radialGradient><radialGradient id="f" cx="0" cy="0" r="1" gradientTransform="translate(47.755 84.468) scale(44.242 44.242)" gradientUnits="userSpaceOnUse"><stop stop-color="#3A8EE6" offset=".353"></stop><stop stop-color="#5C79F0" offset=".472"></stop><stop stop-color="#9059FF" offset=".669"></stop><stop stop-color="#C139E6" offset="1"></stop></radialGradient><radialGradient id="e" cx="0" cy="0" r="1" gradientTransform="translate(63.11 52.583) rotate(-13.592) scale(23.457 27.462)" gradientUnits="userSpaceOnUse"><stop stop-color="#9059FF" stop-opacity="0" offset=".206"></stop><stop stop-color="#8C4FF3" stop-opacity=".064" offset=".278"></stop><stop stop-color="#7716A8" stop-opacity=".45" offset=".747"></stop><stop stop-color="#6E008B" stop-opacity=".6" offset=".975"></stop></radialGradient><radialGradient id="d" cx="0" cy="0" r="1" gradientTransform="translate(56.859 18.409) scale(31.827)" gradientUnits="userSpaceOnUse"><stop stop-color="#FFE226" offset="0"></stop><stop stop-color="#FFDB27" offset=".121"></stop><stop stop-color="#FFC82A" offset=".295"></stop><stop stop-color="#FFA930" offset=".502"></stop><stop stop-color="#FF7E37" offset=".732"></stop><stop stop-color="#FF7139" offset=".792"></stop></radialGradient><radialGradient id="c" cx="0" cy="0" r="1" gradientTransform="translate(81.876 -1.7782) scale(135.79)" gradientUnits="userSpaceOnUse"><stop stop-color="#FFF44F" offset=".113"></stop><stop stop-color="#FF980E" offset=".456"></stop><stop stop-color="#FF5634" offset=".622"></stop><stop stop-color="#FF3647" offset=".716"></stop><stop stop-color="#E31587" offset=".904"></stop></radialGradient><radialGradient id="b" cx="0" cy="0" r="1" gradientTransform="translate(70.431 5.7724) rotate(83.976) scale(99.526 65.318)" gradientUnits="userSpaceOnUse"><stop stop-color="#FFF44F" offset="0"></stop><stop stop-color="#FFE847" offset=".06"></stop><stop stop-color="#FFC830" offset=".168"></stop><stop stop-color="#FF980E" offset=".304"></stop><stop stop-color="#FF8B16" offset=".356"></stop><stop stop-color="#FF672A" offset=".455"></stop><stop stop-color="#FF3647" offset=".57"></stop><stop stop-color="#E31587" offset=".737"></stop></radialGradient><radialGradient id="a" cx="0" cy="0" r="1" gradientTransform="translate(56.11 30.198) scale(84.778)" gradientUnits="userSpaceOnUse"><stop stop-color="#FFF44F" offset=".137"></stop><stop stop-color="#FF980E" offset=".48"></stop><stop stop-color="#FF5634" offset=".592"></stop><stop stop-color="#FF3647" offset=".655"></stop><stop stop-color="#E31587" offset=".904"></stop></radialGradient><radialGradient id="k" cx="0" cy="0" r="1" gradientTransform="translate(78.488 35.16) scale(92.789)" gradientUnits="userSpaceOnUse"><stop stop-color="#FFF44F" offset=".094"></stop><stop stop-color="#FFE141" offset=".231"></stop><stop stop-color="#FFAF1E" offset=".509"></stop><stop stop-color="#FF980E" offset=".626"></stop></radialGradient><linearGradient id="j" x1="94.515" x2="31.557" y1="25.87" y2="88.827" gradientUnits="userSpaceOnUse"><stop stop-color="#FFF44F" stop-opacity=".8" offset=".167"></stop><stop stop-color="#FFF44F" stop-opacity=".634" offset=".266"></stop><stop stop-color="#FFF44F" stop-opacity=".217" offset=".489"></stop><stop stop-color="#FFF44F" stop-opacity="0" offset=".6"></stop></linearGradient></defs></svg>
</svg>

