<svg width="17" height="16" viewBox="0 0 17 16" fill="none" xmlns="http://www.w3.org/2000/svg">
<path d="M16.75 2.37503V6.12503C16.75 6.29079 16.6841 6.44976 16.5669 6.56697C16.4497 6.68418 16.2907 6.75003 16.125 6.75003H12.375C12.2513 6.75013 12.1304 6.71352 12.0275 6.64486C11.9246 6.57619 11.8444 6.47854 11.7971 6.36427C11.7498 6.25001 11.7374 6.12427 11.7615 6.00296C11.7857 5.88166 11.8453 5.77025 11.9328 5.68284L13.2609 4.35472L12.4367 3.60081L12.4172 3.58206C11.5485 2.71369 10.4432 2.12054 9.23932 1.87671C8.03548 1.63287 6.78648 1.74916 5.64834 2.21105C4.5102 2.67293 3.53339 3.45994 2.83994 4.47375C2.14648 5.48756 1.76712 6.68323 1.74925 7.91139C1.73139 9.13955 2.0758 10.3457 2.73946 11.3793C3.40313 12.4129 4.35663 13.228 5.48085 13.7228C6.60507 14.2176 7.85016 14.3701 9.06059 14.1614C10.271 13.9527 11.3931 13.392 12.2867 12.5492C12.3464 12.4928 12.4166 12.4487 12.4933 12.4194C12.57 12.3901 12.6517 12.3762 12.7338 12.3785C12.8159 12.3808 12.8967 12.3992 12.9717 12.4327C13.0466 12.4662 13.1143 12.5142 13.1707 12.5739C13.2271 12.6335 13.2712 12.7037 13.3005 12.7804C13.3298 12.8571 13.3437 12.9389 13.3415 13.0209C13.3392 13.103 13.3207 13.1839 13.2872 13.2588C13.2537 13.3338 13.2057 13.4014 13.1461 13.4578C11.7564 14.7738 9.91387 15.505 7.99999 15.5H7.89686C6.66853 15.4832 5.46314 15.1649 4.38663 14.5731C3.31011 13.9814 2.39544 13.1342 1.723 12.1062C1.05056 11.0781 0.64094 9.90062 0.530142 8.67718C0.419345 7.45374 0.610763 6.22182 1.08757 5.08968C1.56438 3.95755 2.31198 2.95986 3.26467 2.18432C4.21735 1.40878 5.34595 0.87912 6.55128 0.6419C7.7566 0.404679 9.00174 0.467158 10.1773 0.823847C11.3528 1.18054 12.4227 1.82051 13.293 2.68753L14.1469 3.46878L15.6828 1.92972C15.7704 1.84202 15.8821 1.78235 16.0037 1.75829C16.1253 1.73423 16.2513 1.74687 16.3657 1.7946C16.4801 1.84234 16.5777 1.92301 16.6461 2.02636C16.7146 2.12971 16.7507 2.25108 16.75 2.37503Z" fill="white"/>
</svg>
