<svg id="Logofiles" xmlns="http://www.w3.org/2000/svg" viewBox="0 0 1241.83 215.07"><defs><style>.cls-1{fill:#fff;}</style></defs><title>IMPROBABLE_FULL-WHITE</title><path class="cls-1" d="M293.83,164V52h22V164Z"/><path class="cls-1" d="M420.83,164V98.43L399.54,141H384.79l-22-42.61V164h-21V52H363l29.2,60.44,29-60.44h21.62V164Z"/><path class="cls-1" d="M512.1,121H490.83v43h-22V52H512.1C535.17,52,549,67.54,549,86.54S535.17,121,512.1,121ZM511,71H490.83v31H511c9.89,0,16.17-6.32,16.17-15.43S520.89,71,511,71Z"/><path class="cls-1" d="M626.69,164l-21.82-45h-16v45h-21V52h43.32c22.76,0,36.26,15.42,36.26,34.1,0,15.7-9.57,25.61-20.41,29.53L652,164Zm-17-93h-20.9v30h20.9c9.58,0,15.86-6.37,15.86-15S619.31,71,609.73,71Z"/><path class="cls-1" d="M737.67,152.27c-7.85,7.85-17.42,12.25-30.14,12.25s-22.45-4.4-30.3-12.25c-11.3-11.3-11-25.27-11-44.58s-.31-33.28,11-44.58c7.85-7.85,17.58-12.25,30.3-12.25s22.29,4.4,30.14,12.25c11.31,11.3,11.15,25.27,11.15,44.58S749,141,737.67,152.27Zm-16.17-76a18.13,18.13,0,0,0-14-6,18.49,18.49,0,0,0-14.13,6c-4.24,4.71-5.34,9.89-5.34,31.4s1.1,26.69,5.34,31.4a18.49,18.49,0,0,0,14.13,6,18.13,18.13,0,0,0,14-6c4.24-4.71,5.5-9.89,5.5-31.4S725.74,81,721.5,76.29Z"/><path class="cls-1" d="M817.88,164h-47V52H816c21.82,0,34.54,12.12,34.54,31.28a25.74,25.74,0,0,1-13.82,23c6.76,3.14,15.39,10.4,15.39,25.31C852.11,152.53,837.82,164,817.88,164Zm-3.6-93H792.83V97h21.45c9.26,0,14.44-5.31,14.44-13S823.54,71,814.28,71Zm1.41,46H792.83v27h22.86c9.89,0,14.6-6,14.6-13.58S825.58,117,815.69,117Z"/><path class="cls-1" d="M938,164l-6.59-20H891.66l-6.75,20H862.15L902.81,52h17.11l40.82,112ZM911.91,84.38,897.78,125h27.79Z"/><path class="cls-1" d="M1021.32,164H974.83V52h44.61c21.82,0,34.54,12.12,34.54,31.28a25.74,25.74,0,0,1-13.82,23c6.76,3.14,15.39,10.4,15.39,25.31C1055.55,152.53,1041.26,164,1021.32,164Zm-3.6-93H996.83V97h20.89c9.26,0,14.44-5.31,14.44-13S1027,71,1017.72,71Zm1.41,46h-22.3v27h22.3c9.89,0,14.6-6,14.6-13.58S1029,117,1019.13,117Z"/><path class="cls-1" d="M1077.83,164V52h22v92h51v20Z"/><path class="cls-1" d="M1167.83,164V52h74V71h-52V97h44v20h-44v27h52v20Z"/><path class="cls-1" d="M-.17,0V215h215V0Zm194,194h-172V22h172Z"/><rect class="cls-1" x="96.83" y="67.04" width="21" height="82"/><path class="cls-1" d="M163.18,67A14.34,14.34,0,1,0,148.85,52.7,14.35,14.35,0,0,0,163.18,67Zm.06-21.57a7.17,7.17,0,1,1-7.16,7.17A7.18,7.18,0,0,1,163.24,45.47Z"/></svg>
