<svg width="14" height="14" viewBox="0 0 14 14" fill="none" xmlns="http://www.w3.org/2000/svg">
<path d="M13.3538 12.6462L10.2244 9.5174C11.1314 8.42847 11.5837 7.03177 11.4872 5.61786C11.3906 4.20395 10.7527 2.88168 9.70611 1.92613C8.65951 0.970578 7.2848 0.455307 5.86796 0.487507C4.45113 0.519707 3.10125 1.0969 2.09913 2.09901C1.09702 3.10113 0.519829 4.451 0.487629 5.86784C0.455429 7.28468 0.9707 8.65938 1.92625 9.70599C2.88181 10.7526 4.20407 11.3905 5.61798 11.487C7.03189 11.5836 8.42859 11.1313 9.51752 10.2243L12.6463 13.3537C12.6927 13.4001 12.7479 13.437 12.8086 13.4621C12.8693 13.4872 12.9343 13.5002 13 13.5002C13.0657 13.5002 13.1308 13.4872 13.1915 13.4621C13.2522 13.437 13.3073 13.4001 13.3538 13.3537C13.4002 13.3072 13.4371 13.252 13.4622 13.1913C13.4874 13.1307 13.5003 13.0656 13.5003 12.9999C13.5003 12.9342 13.4874 12.8691 13.4622 12.8085C13.4371 12.7478 13.4002 12.6926 13.3538 12.6462ZM1.50002 5.9999C1.50002 5.10988 1.76394 4.23985 2.25841 3.49983C2.75287 2.75981 3.45568 2.18304 4.27795 1.84244C5.10021 1.50185 6.00501 1.41273 6.87793 1.58636C7.75084 1.76 8.55267 2.18858 9.182 2.81792C9.81134 3.44725 10.2399 4.24908 10.4136 5.12199C10.5872 5.99491 10.4981 6.89971 10.1575 7.72197C9.81689 8.54424 9.24011 9.24705 8.50009 9.74151C7.76007 10.236 6.89004 10.4999 6.00002 10.4999C4.80695 10.4986 3.66313 10.024 2.8195 9.18042C1.97587 8.33679 1.50134 7.19297 1.50002 5.9999Z" fill="black"/>
</svg>
