<svg width="16" height="14" viewBox="0 0 16 14" fill="none" xmlns="http://www.w3.org/2000/svg">
<path d="M0.682812 6.55746L6.30781 0.932464C6.42509 0.815188 6.58415 0.749303 6.75 0.749303C6.91585 0.749303 7.07491 0.815188 7.19219 0.932464C7.30946 1.04974 7.37535 1.2088 7.37535 1.37465C7.37535 1.5405 7.30946 1.69956 7.19219 1.81684L2.63359 6.37465L14.875 6.37465C15.0408 6.37465 15.1997 6.4405 15.3169 6.55771C15.4342 6.67492 15.5 6.83389 15.5 6.99965C15.5 7.16541 15.4342 7.32438 15.3169 7.44159C15.1997 7.5588 15.0408 7.62465 14.875 7.62465L2.63359 7.62465L7.19219 12.1825C7.30946 12.2997 7.37535 12.4588 7.37535 12.6247C7.37535 12.7905 7.30946 12.9496 7.19219 13.0668C7.07491 13.1841 6.91585 13.25 6.75 13.25C6.58415 13.25 6.42509 13.1841 6.30781 13.0668L0.682812 7.44184C0.624702 7.38379 0.578603 7.31486 0.54715 7.23899C0.515697 7.16312 0.499509 7.08179 0.499509 6.99965C0.499509 6.91752 0.515697 6.83619 0.54715 6.76031C0.578603 6.68444 0.624702 6.61551 0.682812 6.55746Z" fill="white"/>
</svg>
